<?xml version="1.0" standalone="no"?>
<!DOCTYPE svg PUBLIC "-//W3C//DTD SVG 20010904//EN"
 "http://www.w3.org/TR/2001/REC-SVG-20010904/DTD/svg10.dtd">
<svg version="1.0" xmlns="http://www.w3.org/2000/svg"
 width="614.000000pt" height="614.000000pt" viewBox="0 0 614.000000 614.000000"
 preserveAspectRatio="xMidYMid meet">
<metadata>
Created by potrace 1.14, written by Peter Selinger 2001-2017
</metadata>
<g transform="translate(0.000000,614.000000) scale(0.100000,-0.100000)"
fill="#000000" stroke="none">
<path d="M1718 4520 c-63 -16 -237 -109 -283 -151 -23 -22 -52 -62 -64 -89
l-21 -49 2 -1188 3 -1188 27 -46 c38 -65 75 -93 212 -160 110 -55 124 -59 188
-59 l70 0 585 295 c507 256 591 295 630 295 39 0 121 -39 621 -292 l577 -292
75 -4 75 -4 130 65 c139 69 181 104 214 177 20 44 21 60 21 1228 0 1001 -2
1188 -14 1217 -29 69 -94 124 -219 186 -64 32 -138 61 -162 65 -78 11 -104 1
-430 -175 -44 -24 -114 -62 -155 -84 -41 -23 -104 -56 -140 -75 -36 -18 -87
-46 -115 -61 -97 -54 -350 -189 -410 -220 -52 -26 -143 -18 -194 18 -16 12
-31 21 -34 21 -2 0 -47 24 -98 53 -52 29 -114 63 -139 76 -25 12 -67 36 -95
52 -27 16 -84 47 -125 68 -41 21 -104 55 -140 75 -36 21 -112 62 -170 92 -58
30 -121 64 -140 76 -123 74 -206 97 -282 78z m167 -393 c11 -8 77 -43 146 -79
69 -37 152 -81 185 -98 32 -18 100 -54 149 -80 50 -26 131 -69 180 -95 50 -26
113 -60 140 -75 28 -15 107 -57 177 -94 123 -64 130 -66 201 -66 51 0 83 5
107 18 19 10 78 41 130 69 52 28 214 111 360 186 146 74 345 176 443 227 97
50 177 87 177 80 0 -6 14 -16 31 -22 17 -6 34 -21 40 -35 5 -14 9 -426 9
-1006 0 -769 -3 -987 -13 -1007 -8 -15 -23 -26 -39 -28 -18 -2 -184 76 -545
256 -285 143 -543 267 -573 276 -69 21 -191 20 -261 0 -30 -9 -287 -133 -572
-276 -550 -276 -556 -278 -577 -222 -13 33 -13 1974 -1 2007 6 14 23 29 40 35
17 6 31 18 31 26 0 20 10 20 35 3z"/>
</g>
</svg>
