<svg width="240" height="65" viewBox="0 0 240 65" fill="none" xmlns="http://www.w3.org/2000/svg">
<path d="M9.79084 0H230.211C235.588 0 239.957 3.497 239.957 7.8V57.2C239.957 61.503 235.588 65 230.211 65H9.79084C4.41434 65 0.0449219 61.503 0.0449219 57.2V7.8C0.0449219 3.497 4.41434 0 9.79084 0Z" fill="black"/>
<path d="M66.0462 31.018C66.0072 26.364 69.8536 24.102 70.0225 23.998C67.8395 20.826 64.4609 20.384 63.2784 20.345C60.4455 20.046 57.6907 22.048 56.2483 22.048C54.7799 22.048 52.5449 20.384 50.1539 20.423C47.0741 20.475 44.1764 22.256 42.604 25.038C39.3424 30.693 41.7724 39.013 44.9041 43.589C46.4764 45.825 48.2956 48.334 50.6996 48.243C53.0386 48.152 53.9223 46.748 56.7421 46.748C59.5489 46.748 60.3676 48.243 62.8106 48.191C65.3315 48.152 66.9038 45.942 68.4242 43.68C70.2305 41.119 70.9581 38.584 70.9841 38.454C70.9192 38.428 66.0982 36.582 66.0462 31.018" fill="white"/>
<path d="M61.4328 17.342C62.6933 15.769 63.5509 13.624 63.317 11.44C61.4978 11.518 59.2108 12.701 57.8983 14.248C56.7418 15.613 55.7022 17.836 55.9621 19.929C58.0153 20.085 60.1204 18.889 61.4328 17.342" fill="white"/>
<path d="M99.9881 47.918H96.7135L94.9202 42.276H88.6828L86.9805 47.918H83.7969L89.9693 28.717H93.7897L99.9881 47.918ZM94.3874 39.91L92.7631 34.905C92.5942 34.385 92.2693 33.189 91.8015 31.291H91.7365C91.5416 32.11 91.2428 33.319 90.8269 34.905L89.2286 39.91H94.3874Z" fill="white"/>
<path d="M115.854 40.833C115.854 43.186 115.217 45.045 113.931 46.41C112.787 47.632 111.358 48.23 109.668 48.23C107.836 48.23 106.524 47.58 105.718 46.267V53.534H102.638V38.623C102.638 37.141 102.599 35.633 102.521 34.073H105.224L105.393 36.27H105.445C106.472 34.619 108.031 33.787 110.11 33.787C111.748 33.787 113.099 34.437 114.191 35.724C115.308 37.024 115.854 38.714 115.854 40.833V40.833ZM112.722 40.937C112.722 39.585 112.423 38.48 111.813 37.609C111.15 36.699 110.253 36.244 109.136 36.244C108.382 36.244 107.693 36.504 107.07 36.998C106.459 37.505 106.043 38.155 105.861 38.974C105.77 39.351 105.718 39.663 105.718 39.91V42.224C105.718 43.225 106.03 44.083 106.641 44.772C107.252 45.461 108.057 45.812 109.045 45.812C110.201 45.812 111.098 45.357 111.748 44.473C112.397 43.576 112.722 42.406 112.722 40.937V40.937Z" fill="white"/>
<path d="M131.76 40.833C131.76 43.186 131.123 45.045 129.837 46.41C128.693 47.632 127.264 48.23 125.575 48.23C123.743 48.23 122.43 47.58 121.624 46.267V53.534H118.545V38.623C118.545 37.141 118.506 35.633 118.428 34.073H121.131L121.3 36.27H121.352C122.378 34.619 123.937 33.787 126.017 33.787C127.654 33.787 129.005 34.437 130.097 35.724C131.214 37.024 131.76 38.714 131.76 40.833ZM128.628 40.937C128.628 39.585 128.33 38.48 127.719 37.609C127.056 36.699 126.159 36.244 125.042 36.244C124.288 36.244 123.6 36.504 122.976 36.998C122.365 37.505 121.962 38.155 121.767 38.974C121.676 39.351 121.624 39.663 121.624 39.91V42.224C121.624 43.225 121.936 44.083 122.547 44.772C123.158 45.461 123.963 45.812 124.951 45.812C126.108 45.812 127.017 45.357 127.654 44.473C128.317 43.576 128.628 42.406 128.628 40.937V40.937Z" fill="white"/>
<path d="M149.562 42.536C149.562 44.174 148.99 45.5 147.86 46.527C146.612 47.645 144.871 48.204 142.636 48.204C140.57 48.204 138.919 47.801 137.672 47.008L138.387 44.447C139.738 45.24 141.219 45.643 142.831 45.643C143.987 45.643 144.897 45.383 145.534 44.863C146.183 44.343 146.508 43.641 146.508 42.77C146.508 41.99 146.235 41.34 145.716 40.807C145.183 40.274 144.299 39.78 143.065 39.325C139.673 38.064 137.997 36.231 137.997 33.826C137.997 32.253 138.594 30.966 139.777 29.952C140.959 28.951 142.532 28.444 144.494 28.444C146.235 28.444 147.691 28.743 148.847 29.354L148.068 31.85C146.976 31.265 145.754 30.966 144.377 30.966C143.299 30.966 142.441 31.239 141.83 31.759C141.323 32.24 141.063 32.812 141.063 33.501C141.063 34.255 141.362 34.892 141.947 35.373C142.454 35.828 143.389 36.322 144.741 36.855C146.391 37.518 147.6 38.298 148.379 39.195C149.172 40.092 149.562 41.21 149.562 42.536" fill="white"/>
<path d="M159.751 36.387H156.359V43.108C156.359 44.811 156.957 45.669 158.152 45.669C158.698 45.669 159.153 45.617 159.517 45.526L159.608 47.866C158.997 48.087 158.204 48.204 157.217 48.204C155.995 48.204 155.06 47.827 154.371 47.086C153.682 46.345 153.344 45.097 153.344 43.355V36.374H151.33V34.073H153.344V31.538L156.359 30.628V34.073H159.751V36.387" fill="white"/>
<path d="M175.006 40.885C175.006 43.017 174.396 44.759 173.187 46.124C171.914 47.528 170.224 48.23 168.119 48.23C166.092 48.23 164.468 47.554 163.259 46.215C162.051 44.876 161.453 43.173 161.453 41.119C161.453 38.974 162.077 37.219 163.311 35.854C164.559 34.489 166.235 33.8 168.34 33.8C170.367 33.8 172.005 34.476 173.239 35.828C174.422 37.128 175.006 38.818 175.006 40.885V40.885ZM171.823 40.95C171.823 39.676 171.55 38.597 171.004 37.687C170.354 36.582 169.432 36.036 168.236 36.036C167.002 36.036 166.053 36.582 165.416 37.687C164.858 38.597 164.598 39.702 164.598 41.015C164.598 42.289 164.871 43.381 165.416 44.278C166.079 45.383 167.015 45.929 168.21 45.929C169.38 45.929 170.302 45.37 170.978 44.252C171.537 43.316 171.823 42.224 171.823 40.95V40.95Z" fill="white"/>
<path d="M185.012 36.777C184.713 36.725 184.388 36.699 184.037 36.699C182.959 36.699 182.114 37.102 181.529 37.921C181.022 38.636 180.762 39.559 180.762 40.651V47.918H177.683V38.428C177.683 36.829 177.657 35.373 177.592 34.073H180.269L180.386 36.725H180.477C180.801 35.815 181.308 35.074 182.01 34.528C182.699 34.034 183.439 33.787 184.232 33.787C184.518 33.787 184.778 33.813 184.999 33.839L185.012 36.777" fill="white"/>
<path d="M198.759 40.339C198.759 40.885 198.72 41.353 198.642 41.73H189.416C189.455 43.095 189.897 44.148 190.754 44.863C191.534 45.5 192.535 45.825 193.769 45.825C195.133 45.825 196.381 45.604 197.499 45.175L197.979 47.307C196.667 47.879 195.121 48.165 193.34 48.165C191.196 48.165 189.507 47.528 188.285 46.267C187.064 45.006 186.453 43.303 186.453 41.184C186.453 39.104 187.025 37.362 188.168 35.971C189.364 34.489 190.975 33.748 193.002 33.748C194.991 33.748 196.511 34.489 197.524 35.971C198.343 37.167 198.759 38.61 198.759 40.339V40.339ZM195.822 39.546C195.848 38.636 195.64 37.843 195.224 37.18C194.692 36.322 193.873 35.893 192.781 35.893C191.781 35.893 190.962 36.309 190.338 37.141C189.832 37.804 189.52 38.61 189.429 39.533L195.822 39.546V39.546Z" fill="white"/>
<path d="M92.9051 21.853H91.2938L90.4102 19.084H87.3434L86.4988 21.853H84.9395L87.9672 12.415H89.8384L92.9051 21.853ZM90.1373 17.914L89.3446 15.444C89.2666 15.197 89.1107 14.599 88.8638 13.663H88.8378C88.7339 14.066 88.6039 14.651 88.383 15.444L87.6033 17.914H90.1373Z" fill="white"/>
<path d="M100.493 15.041L97.9204 21.853H96.452L93.957 15.041H95.5814L96.7379 18.642C96.9328 19.24 97.1017 19.812 97.2317 20.358H97.2706C97.3876 19.864 97.5565 19.292 97.7644 18.642L98.908 15.041H100.493" fill="white"/>
<path d="M105.977 21.853L105.86 21.073H105.821C105.353 21.697 104.691 22.009 103.833 22.009C102.612 22.009 101.754 21.151 101.754 20.007C101.754 18.33 103.209 17.459 105.73 17.459V17.329C105.73 16.432 105.249 15.99 104.314 15.99C103.638 15.99 103.053 16.159 102.534 16.497L102.222 15.509C102.845 15.119 103.638 14.924 104.561 14.924C106.341 14.924 107.238 15.86 107.238 17.745V20.254C107.238 20.943 107.264 21.476 107.342 21.879L105.977 21.853V21.853ZM105.769 18.46C104.093 18.46 103.248 18.863 103.248 19.838C103.248 20.553 103.677 20.904 104.288 20.904C105.055 20.904 105.769 20.319 105.769 19.513V18.46Z" fill="white"/>
<path d="M110.604 13.923C110.097 13.923 109.707 13.533 109.707 13.013C109.707 12.493 110.11 12.116 110.63 12.116C111.149 12.116 111.565 12.493 111.552 13.013C111.552 13.559 111.162 13.923 110.604 13.923V13.923ZM109.876 15.041H111.383V21.84H109.876V15.041V15.041Z" fill="white"/>
<path d="M114.072 11.921H115.58V21.84H114.072V11.921Z" fill="white"/>
<path d="M122.001 21.853L121.884 21.073H121.845C121.377 21.697 120.714 22.009 119.856 22.009C118.635 22.009 117.777 21.151 117.777 20.007C117.777 18.33 119.233 17.459 121.754 17.459V17.329C121.754 16.432 121.273 15.99 120.337 15.99C119.662 15.99 119.077 16.159 118.557 16.497L118.245 15.496C118.869 15.106 119.662 14.911 120.584 14.911C122.364 14.911 123.261 15.847 123.261 17.732V20.241C123.261 20.93 123.287 21.463 123.352 21.866H122.001V21.853V21.853ZM121.793 18.46C120.116 18.46 119.272 18.863 119.272 19.838C119.272 20.553 119.701 20.904 120.311 20.904C121.078 20.904 121.793 20.319 121.793 19.513V18.46Z" fill="white"/>
<path d="M129.393 22.009C128.432 22.009 127.717 21.606 127.249 20.8H127.223L127.132 21.853H125.846C125.885 21.307 125.898 20.696 125.898 20.02V11.921H127.418V16.042H127.444C127.899 15.288 128.614 14.911 129.614 14.911C131.251 14.911 132.395 16.315 132.395 18.356C132.395 20.462 131.121 22.009 129.393 22.009V22.009ZM129.081 16.094C128.211 16.094 127.418 16.848 127.418 17.901V19.097C127.418 20.033 128.133 20.8 129.055 20.8C130.186 20.8 130.862 19.877 130.862 18.408C130.862 17.03 130.16 16.094 129.081 16.094V16.094Z" fill="white"/>
<path d="M134.631 11.921H136.138V21.84H134.631V11.921Z" fill="white"/>
<path d="M144.364 18.811H139.828C139.854 20.098 140.712 20.826 141.973 20.826C142.648 20.826 143.259 20.709 143.805 20.501L144.039 21.554C143.402 21.84 142.648 21.97 141.765 21.97C139.634 21.97 138.373 20.631 138.373 18.538C138.373 16.458 139.66 14.885 141.596 14.885C143.324 14.885 144.429 16.172 144.429 18.122C144.429 18.395 144.416 18.629 144.364 18.811V18.811ZM142.986 17.732C142.986 16.679 142.453 15.938 141.492 15.938C140.621 15.938 139.945 16.692 139.841 17.732H142.986Z" fill="white"/>
<path d="M153.525 22.009C151.536 22.009 150.25 20.527 150.25 18.512C150.25 16.406 151.562 14.911 153.642 14.911C155.604 14.911 156.916 16.328 156.916 18.395C156.916 20.514 155.565 22.009 153.525 22.009ZM153.59 16.016C152.498 16.016 151.796 17.043 151.796 18.46C151.796 19.864 152.511 20.878 153.577 20.878C154.642 20.878 155.357 19.786 155.357 18.421C155.344 17.043 154.655 16.016 153.59 16.016V16.016Z" fill="white"/>
<path d="M165.037 21.853H163.53V17.94C163.53 16.731 163.062 16.133 162.153 16.133C161.256 16.133 160.645 16.9 160.645 17.797V21.84H159.138V16.991C159.138 16.393 159.125 15.743 159.086 15.041H160.411L160.476 16.094H160.515C160.918 15.366 161.75 14.898 162.672 14.898C164.102 14.898 165.037 15.99 165.037 17.771V21.853Z" fill="white"/>
<path d="M174.928 16.185H173.265V19.487C173.265 20.332 173.563 20.748 174.148 20.748C174.408 20.748 174.642 20.722 174.824 20.683L174.863 21.827C174.564 21.944 174.174 21.996 173.693 21.996C172.498 21.996 171.796 21.333 171.796 19.617V16.185H170.809V15.054H171.796V13.806L173.278 13.351V15.041H174.941V16.185" fill="white"/>
<path d="M182.931 21.853H181.423V17.966C181.423 16.744 180.956 16.133 180.046 16.133C179.266 16.133 178.539 16.666 178.539 17.745V21.84H177.031V11.921H178.539V16.003H178.565C179.045 15.262 179.721 14.898 180.605 14.898C182.047 14.898 182.931 16.016 182.931 17.797V21.853" fill="white"/>
<path d="M190.651 18.811H186.116C186.142 20.098 186.999 20.826 188.26 20.826C188.935 20.826 189.546 20.709 190.092 20.501L190.326 21.554C189.689 21.84 188.935 21.97 188.052 21.97C185.921 21.97 184.66 20.631 184.66 18.538C184.66 16.458 185.947 14.885 187.883 14.885C189.611 14.885 190.716 16.172 190.716 18.122C190.716 18.395 190.703 18.629 190.651 18.811V18.811ZM189.273 17.732C189.273 16.679 188.74 15.938 187.779 15.938C186.908 15.938 186.22 16.692 186.129 17.732H189.273Z" fill="white"/>
</svg>
