<svg width="375" height="564" viewBox="0 0 375 564" fill="none" xmlns="http://www.w3.org/2000/svg">
<g clip-path="url(#clip0_109_8053)">
<rect width="375" height="564" rx="9.68" fill="#282830"/>
<mask id="mask0_109_8053" style="mask-type:alpha" maskUnits="userSpaceOnUse" x="-4" y="-39" width="385" height="613">
<rect x="-3.03125" y="-38.7119" width="383.328" height="611.776" rx="10.108" fill="url(#paint0_linear_109_8053)"/>
</mask>
<g mask="url(#mask0_109_8053)">
<rect x="-3.03125" y="-38.7119" width="383.328" height="618.552" rx="10.108" fill="url(#paint1_linear_109_8053)"/>
<g opacity="0.08">
<path d="M187.5 206.525C187.836 206.367 188.225 206.367 188.561 206.525L204.92 214.205C205.361 214.412 205.642 214.857 205.638 215.344L205.562 225.979L205.638 236.609C205.642 237.099 205.359 237.545 204.915 237.751L188.556 245.336C188.223 245.491 187.839 245.491 187.506 245.336L171.147 237.751C170.703 237.545 170.42 237.099 170.424 236.609L170.5 225.979L170.424 215.344C170.42 214.857 170.7 214.412 171.141 214.205L187.5 206.525Z" fill="white"/>
<path d="M187.5 537.623C187.836 537.465 188.225 537.465 188.561 537.623L204.92 545.303C205.361 545.511 205.642 545.955 205.638 546.442L205.562 557.077L205.638 567.707C205.642 568.197 205.359 568.643 204.915 568.849L188.556 576.434C188.223 576.589 187.839 576.589 187.506 576.434L171.147 568.849C170.703 568.643 170.42 568.197 170.424 567.707L170.5 557.077L170.424 546.442C170.42 545.955 170.7 545.511 171.141 545.303L187.5 537.623Z" fill="white"/>
<path d="M187.5 40.9761C187.836 40.8183 188.225 40.8183 188.561 40.9761L204.92 48.6565C205.361 48.8636 205.642 49.3083 205.638 49.7954L205.562 60.4301L205.638 71.0605C205.642 71.5498 205.359 71.9961 204.915 72.2019L188.556 79.7875C188.223 79.9419 187.839 79.9419 187.506 79.7875L171.147 72.2019C170.703 71.9961 170.42 71.5498 170.424 71.0605L170.5 60.4301L170.424 49.7954C170.42 49.3083 170.7 48.8636 171.141 48.6565L187.5 40.9761Z" fill="white"/>
<path d="M187.5 372.074C187.836 371.916 188.225 371.916 188.561 372.074L204.92 379.754C205.361 379.961 205.642 380.406 205.638 380.893L205.562 391.528L205.638 402.158C205.642 402.647 205.359 403.094 204.915 403.3L188.556 410.885C188.223 411.04 187.839 411.04 187.506 410.885L171.147 403.3C170.703 403.094 170.42 402.647 170.424 402.158L170.5 391.528L170.424 380.893C170.42 380.406 170.7 379.961 171.141 379.754L187.5 372.074Z" fill="white"/>
<path d="M187.5 289.299C187.836 289.142 188.225 289.142 188.561 289.299L204.92 296.98C205.361 297.187 205.642 297.631 205.638 298.119L205.562 308.753L205.638 319.384C205.642 319.873 205.359 320.319 204.915 320.525L188.556 328.111C188.223 328.265 187.839 328.265 187.506 328.111L171.147 320.525C170.703 320.319 170.42 319.873 170.424 319.384L170.5 308.753L170.424 298.119C170.42 297.631 170.7 297.187 171.141 296.98L187.5 289.299Z" fill="white"/>
<path d="M187.5 123.75C187.836 123.592 188.225 123.592 188.561 123.75L204.92 131.43C205.361 131.637 205.642 132.082 205.638 132.569L205.562 143.204L205.638 153.834C205.642 154.324 205.359 154.77 204.915 154.976L188.556 162.561C188.223 162.716 187.839 162.716 187.506 162.561L171.147 154.976C170.703 154.77 170.42 154.324 170.424 153.834L170.5 143.204L170.424 132.569C170.42 132.082 170.7 131.637 171.141 131.43L187.5 123.75Z" fill="white"/>
<path d="M187.5 454.849C187.836 454.691 188.225 454.691 188.561 454.849L204.92 462.529C205.361 462.736 205.642 463.181 205.638 463.668L205.562 474.303L205.638 484.933C205.642 485.422 205.359 485.869 204.915 486.074L188.556 493.66C188.223 493.814 187.839 493.814 187.506 493.66L171.147 486.074C170.703 485.869 170.42 485.422 170.424 484.933L170.5 474.303L170.424 463.668C170.42 463.181 170.7 462.736 171.141 462.529L187.5 454.849Z" fill="white"/>
<path d="M212.153 247.912C212.489 247.754 212.878 247.754 213.214 247.912L229.573 255.593C230.014 255.8 230.294 256.244 230.29 256.731L230.214 267.366L230.29 277.997C230.294 278.486 230.011 278.932 229.567 279.138L213.208 286.723C212.875 286.878 212.491 286.878 212.158 286.723L195.799 279.138C195.355 278.932 195.073 278.486 195.076 277.997L195.152 267.366L195.076 256.731C195.073 256.244 195.353 255.8 195.794 255.593L212.153 247.912Z" fill="white"/>
<path d="M212.153 82.3633C212.489 82.2055 212.878 82.2055 213.214 82.3633L229.573 90.0437C230.014 90.2508 230.294 90.6955 230.29 91.1826L230.214 101.817L230.29 112.448C230.294 112.937 230.011 113.383 229.567 113.589L213.208 121.175C212.875 121.329 212.491 121.329 212.158 121.175L195.799 113.589C195.355 113.383 195.073 112.937 195.076 112.448L195.152 101.817L195.076 91.1826C195.073 90.6955 195.353 90.2508 195.794 90.0437L212.153 82.3633Z" fill="white"/>
<path d="M212.153 413.461C212.489 413.303 212.878 413.303 213.214 413.461L229.573 421.141C230.014 421.348 230.294 421.793 230.29 422.28L230.214 432.915L230.29 443.545C230.294 444.035 230.011 444.481 229.567 444.687L213.208 452.272C212.875 452.427 212.491 452.427 212.158 452.272L195.799 444.687C195.355 444.481 195.073 444.035 195.076 443.545L195.152 432.915L195.076 422.28C195.073 421.793 195.353 421.348 195.794 421.141L212.153 413.461Z" fill="white"/>
<path d="M212.153 -0.411082C212.489 -0.568869 212.878 -0.568869 213.214 -0.411082L229.573 7.2693C230.014 7.47635 230.294 7.92105 230.29 8.40822L230.214 19.0428L230.29 29.6733C230.294 30.1626 230.011 30.6089 229.567 30.8147L213.208 38.4003C212.875 38.5547 212.491 38.5547 212.158 38.4003L195.799 30.8147C195.355 30.6089 195.073 30.1626 195.076 29.6733L195.152 19.0428L195.076 8.40822C195.073 7.92104 195.353 7.47635 195.794 7.2693L212.153 -0.411082Z" fill="white"/>
<path d="M212.153 330.687C212.489 330.529 212.878 330.529 213.214 330.687L229.573 338.367C230.014 338.574 230.294 339.019 230.29 339.506L230.214 350.141L230.29 360.771C230.294 361.26 230.011 361.707 229.567 361.912L213.208 369.498C212.875 369.652 212.491 369.652 212.158 369.498L195.799 361.912C195.355 361.707 195.073 361.26 195.076 360.771L195.152 350.141L195.076 339.506C195.073 339.019 195.353 338.574 195.794 338.367L212.153 330.687Z" fill="white"/>
<path d="M212.153 165.138C212.489 164.98 212.878 164.98 213.214 165.138L229.573 172.818C230.014 173.025 230.294 173.47 230.29 173.957L230.214 184.592L230.29 195.222C230.294 195.711 230.011 196.158 229.567 196.364L213.208 203.949C212.875 204.104 212.491 204.104 212.158 203.949L195.799 196.364C195.355 196.158 195.073 195.711 195.076 195.222L195.152 184.592L195.076 173.957C195.073 173.47 195.353 173.025 195.794 172.818L212.153 165.138Z" fill="white"/>
<path d="M212.153 496.235C212.489 496.078 212.878 496.078 213.214 496.235L229.573 503.916C230.014 504.123 230.294 504.568 230.29 505.055L230.214 515.689L230.29 526.32C230.294 526.809 230.011 527.255 229.567 527.461L213.208 535.047C212.875 535.201 212.491 535.201 212.158 535.047L195.799 527.461C195.355 527.255 195.073 526.809 195.076 526.32L195.152 515.689L195.076 505.055C195.073 504.568 195.353 504.123 195.794 503.916L212.153 496.235Z" fill="white"/>
<path d="M-9.76525 206.525C-9.42917 206.367 -9.04029 206.367 -8.70421 206.525L7.6547 214.205C8.0957 214.412 8.37596 214.857 8.37247 215.344L8.29633 225.979L8.37244 236.609C8.37594 237.099 8.09322 237.545 7.64928 237.751L-8.7096 245.336C-9.04265 245.491 -9.42681 245.491 -9.75986 245.336L-26.1187 237.751C-26.5627 237.545 -26.8454 237.099 -26.8419 236.609L-26.7658 225.979L-26.8419 215.344C-26.8454 214.857 -26.5652 214.412 -26.1242 214.205L-9.76525 206.525Z" fill="white"/>
<path d="M-9.76525 537.623C-9.42917 537.465 -9.04029 537.465 -8.70421 537.623L7.6547 545.303C8.0957 545.511 8.37596 545.955 8.37247 546.442L8.29633 557.077L8.37244 567.707C8.37594 568.197 8.09322 568.643 7.64928 568.849L-8.7096 576.434C-9.04265 576.589 -9.42681 576.589 -9.75986 576.434L-26.1187 568.849C-26.5627 568.643 -26.8454 568.197 -26.8419 567.707L-26.7658 557.077L-26.8419 546.442C-26.8454 545.955 -26.5652 545.511 -26.1242 545.303L-9.76525 537.623Z" fill="white"/>
<path d="M-9.76525 40.9761C-9.42917 40.8183 -9.04029 40.8183 -8.70421 40.9761L7.6547 48.6565C8.0957 48.8636 8.37596 49.3083 8.37247 49.7954L8.29633 60.4301L8.37244 71.0605C8.37594 71.5498 8.09322 71.9961 7.64928 72.2019L-8.7096 79.7875C-9.04265 79.9419 -9.42681 79.9419 -9.75986 79.7875L-26.1187 72.2019C-26.5627 71.9961 -26.8454 71.5498 -26.8419 71.0605L-26.7658 60.4301L-26.8419 49.7954C-26.8454 49.3083 -26.5652 48.8636 -26.1242 48.6565L-9.76525 40.9761Z" fill="white"/>
<path d="M-9.76525 372.074C-9.42917 371.916 -9.04029 371.916 -8.70421 372.074L7.6547 379.754C8.0957 379.961 8.37596 380.406 8.37247 380.893L8.29633 391.528L8.37244 402.158C8.37594 402.647 8.09322 403.094 7.64928 403.3L-8.7096 410.885C-9.04265 411.04 -9.42681 411.04 -9.75986 410.885L-26.1187 403.3C-26.5627 403.094 -26.8454 402.647 -26.8419 402.158L-26.7658 391.528L-26.8419 380.893C-26.8454 380.406 -26.5652 379.961 -26.1242 379.754L-9.76525 372.074Z" fill="white"/>
<path d="M-9.76525 289.299C-9.42917 289.142 -9.04029 289.142 -8.70421 289.299L7.6547 296.98C8.0957 297.187 8.37596 297.631 8.37247 298.119L8.29633 308.753L8.37244 319.384C8.37594 319.873 8.09322 320.319 7.64928 320.525L-8.7096 328.111C-9.04265 328.265 -9.42681 328.265 -9.75986 328.111L-26.1187 320.525C-26.5627 320.319 -26.8454 319.873 -26.8419 319.384L-26.7658 308.753L-26.8419 298.119C-26.8454 297.631 -26.5652 297.187 -26.1242 296.98L-9.76525 289.299Z" fill="white"/>
<path d="M-9.76525 123.75C-9.42917 123.592 -9.04029 123.592 -8.70421 123.75L7.6547 131.43C8.0957 131.637 8.37596 132.082 8.37247 132.569L8.29633 143.204L8.37244 153.834C8.37594 154.324 8.09322 154.77 7.64928 154.976L-8.7096 162.561C-9.04265 162.716 -9.42681 162.716 -9.75986 162.561L-26.1187 154.976C-26.5627 154.77 -26.8454 154.324 -26.8419 153.834L-26.7658 143.204L-26.8419 132.569C-26.8454 132.082 -26.5652 131.637 -26.1242 131.43L-9.76525 123.75Z" fill="white"/>
<path d="M-9.76525 454.849C-9.42917 454.691 -9.04029 454.691 -8.70421 454.849L7.6547 462.529C8.0957 462.736 8.37596 463.181 8.37247 463.668L8.29633 474.303L8.37244 484.933C8.37594 485.422 8.09322 485.869 7.64928 486.074L-8.7096 493.66C-9.04265 493.814 -9.42681 493.814 -9.75986 493.66L-26.1187 486.074C-26.5627 485.869 -26.8454 485.422 -26.8419 484.933L-26.7658 474.303L-26.8419 463.668C-26.8454 463.181 -26.5652 462.736 -26.1242 462.529L-9.76525 454.849Z" fill="white"/>
<path d="M14.8949 247.912C15.231 247.754 15.6199 247.754 15.9559 247.912L32.3149 255.593C32.7559 255.8 33.0361 256.244 33.0326 256.731L32.9565 267.366L33.0326 277.997C33.0361 278.486 32.7534 278.932 32.3094 279.138L15.9506 286.723C15.6175 286.878 15.2333 286.878 14.9003 286.723L-1.45859 279.138C-1.90253 278.932 -2.18525 278.486 -2.18175 277.997L-2.10563 267.366L-2.18178 256.731C-2.18527 256.244 -1.90501 255.8 -1.46401 255.593L14.8949 247.912Z" fill="white"/>
<path d="M14.8949 82.3633C15.231 82.2055 15.6199 82.2055 15.9559 82.3633L32.3149 90.0437C32.7559 90.2508 33.0361 90.6955 33.0326 91.1826L32.9565 101.817L33.0326 112.448C33.0361 112.937 32.7534 113.383 32.3094 113.589L15.9506 121.175C15.6175 121.329 15.2333 121.329 14.9003 121.175L-1.45859 113.589C-1.90253 113.383 -2.18525 112.937 -2.18175 112.448L-2.10563 101.817L-2.18178 91.1826C-2.18527 90.6955 -1.90501 90.2508 -1.46401 90.0437L14.8949 82.3633Z" fill="white"/>
<path d="M14.8949 413.461C15.231 413.303 15.6199 413.303 15.9559 413.461L32.3149 421.141C32.7559 421.348 33.0361 421.793 33.0326 422.28L32.9565 432.915L33.0326 443.545C33.0361 444.035 32.7534 444.481 32.3094 444.687L15.9506 452.272C15.6175 452.427 15.2333 452.427 14.9003 452.272L-1.45859 444.687C-1.90253 444.481 -2.18525 444.035 -2.18175 443.545L-2.10563 432.915L-2.18178 422.28C-2.18527 421.793 -1.90501 421.348 -1.46401 421.141L14.8949 413.461Z" fill="white"/>
<path d="M14.8949 -0.411082C15.231 -0.568869 15.6199 -0.568869 15.9559 -0.411082L32.3149 7.2693C32.7559 7.47635 33.0361 7.92105 33.0326 8.40822L32.9565 19.0428L33.0326 29.6733C33.0361 30.1626 32.7534 30.6089 32.3094 30.8147L15.9506 38.4003C15.6175 38.5547 15.2333 38.5547 14.9003 38.4003L-1.45859 30.8147C-1.90253 30.6089 -2.18525 30.1626 -2.18175 29.6733L-2.10563 19.0428L-2.18178 8.40822C-2.18527 7.92104 -1.90501 7.47635 -1.46401 7.2693L14.8949 -0.411082Z" fill="white"/>
<path d="M14.8949 330.687C15.231 330.529 15.6199 330.529 15.9559 330.687L32.3149 338.367C32.7559 338.574 33.0361 339.019 33.0326 339.506L32.9565 350.141L33.0326 360.771C33.0361 361.26 32.7534 361.707 32.3094 361.912L15.9506 369.498C15.6175 369.652 15.2333 369.652 14.9003 369.498L-1.45859 361.912C-1.90253 361.707 -2.18525 361.26 -2.18175 360.771L-2.10563 350.141L-2.18178 339.506C-2.18527 339.019 -1.90501 338.574 -1.46401 338.367L14.8949 330.687Z" fill="white"/>
<path d="M14.8949 165.138C15.231 164.98 15.6199 164.98 15.9559 165.138L32.3149 172.818C32.7559 173.025 33.0361 173.47 33.0326 173.957L32.9565 184.592L33.0326 195.222C33.0361 195.711 32.7534 196.158 32.3094 196.364L15.9506 203.949C15.6175 204.104 15.2333 204.104 14.9003 203.949L-1.45859 196.364C-1.90253 196.158 -2.18525 195.711 -2.18175 195.222L-2.10563 184.592L-2.18178 173.957C-2.18527 173.47 -1.90501 173.025 -1.46401 172.818L14.8949 165.138Z" fill="white"/>
<path d="M14.8949 496.235C15.231 496.078 15.6199 496.078 15.9559 496.235L32.3149 503.916C32.7559 504.123 33.0361 504.568 33.0326 505.055L32.9565 515.689L33.0326 526.32C33.0361 526.809 32.7534 527.255 32.3094 527.461L15.9506 535.047C15.6175 535.201 15.2333 535.201 14.9003 535.047L-1.45859 527.461C-1.90253 527.255 -2.18525 526.809 -2.18175 526.32L-2.10563 515.689L-2.18178 505.055C-2.18527 504.568 -1.90501 504.123 -1.46401 503.916L14.8949 496.235Z" fill="white"/>
<path d="M384.77 206.525C385.106 206.367 385.495 206.367 385.831 206.525L402.19 214.205C402.631 214.412 402.911 214.857 402.908 215.344L402.831 225.979L402.908 236.609C402.911 237.099 402.628 237.545 402.184 237.751L385.826 245.336C385.493 245.491 385.108 245.491 384.775 245.336L368.416 237.751C367.972 237.545 367.69 237.099 367.693 236.609L367.769 225.979L367.693 215.344C367.69 214.857 367.97 214.412 368.411 214.205L384.77 206.525Z" fill="white"/>
<path d="M384.77 537.623C385.106 537.465 385.495 537.465 385.831 537.623L402.19 545.303C402.631 545.511 402.911 545.955 402.908 546.442L402.831 557.077L402.908 567.707C402.911 568.197 402.628 568.643 402.184 568.849L385.826 576.434C385.493 576.589 385.108 576.589 384.775 576.434L368.416 568.849C367.972 568.643 367.69 568.197 367.693 567.707L367.769 557.077L367.693 546.442C367.69 545.955 367.97 545.511 368.411 545.303L384.77 537.623Z" fill="white"/>
<path d="M384.77 40.9756C385.106 40.8178 385.495 40.8178 385.831 40.9756L402.19 48.656C402.631 48.8631 402.911 49.3078 402.908 49.7949L402.831 60.4296L402.908 71.06C402.911 71.5493 402.628 71.9956 402.184 72.2014L385.826 79.787C385.493 79.9414 385.108 79.9414 384.775 79.787L368.416 72.2014C367.972 71.9956 367.69 71.5493 367.693 71.06L367.769 60.4296L367.693 49.7949C367.69 49.3078 367.97 48.8631 368.411 48.656L384.77 40.9756Z" fill="white"/>
<path d="M384.77 372.074C385.106 371.916 385.495 371.916 385.831 372.074L402.19 379.754C402.631 379.961 402.911 380.406 402.908 380.893L402.831 391.528L402.908 402.158C402.911 402.647 402.628 403.094 402.184 403.3L385.826 410.885C385.493 411.04 385.108 411.04 384.775 410.885L368.416 403.3C367.972 403.094 367.69 402.647 367.693 402.158L367.769 391.528L367.693 380.893C367.69 380.406 367.97 379.961 368.411 379.754L384.77 372.074Z" fill="white"/>
<path d="M384.77 289.299C385.106 289.142 385.495 289.142 385.831 289.299L402.19 296.98C402.631 297.187 402.911 297.631 402.908 298.119L402.831 308.753L402.908 319.384C402.911 319.873 402.628 320.319 402.184 320.525L385.826 328.111C385.493 328.265 385.108 328.265 384.775 328.111L368.416 320.525C367.972 320.319 367.69 319.873 367.693 319.384L367.769 308.753L367.693 298.119C367.69 297.631 367.97 297.187 368.411 296.98L384.77 289.299Z" fill="white"/>
<path d="M384.77 123.75C385.106 123.592 385.495 123.592 385.831 123.75L402.19 131.43C402.631 131.637 402.911 132.082 402.908 132.569L402.831 143.204L402.908 153.834C402.911 154.324 402.628 154.77 402.184 154.976L385.826 162.561C385.493 162.716 385.108 162.716 384.775 162.561L368.416 154.976C367.972 154.77 367.69 154.324 367.693 153.834L367.769 143.204L367.693 132.569C367.69 132.082 367.97 131.637 368.411 131.43L384.77 123.75Z" fill="white"/>
<path d="M384.77 454.849C385.106 454.691 385.495 454.691 385.831 454.849L402.19 462.529C402.631 462.736 402.911 463.181 402.908 463.668L402.831 474.303L402.908 484.933C402.911 485.422 402.628 485.869 402.184 486.074L385.826 493.66C385.493 493.814 385.108 493.814 384.775 493.66L368.416 486.074C367.972 485.869 367.69 485.422 367.693 484.933L367.769 474.303L367.693 463.668C367.69 463.181 367.97 462.736 368.411 462.529L384.77 454.849Z" fill="white"/>
<path d="M236.813 206.525C237.149 206.367 237.538 206.367 237.874 206.525L254.233 214.205C254.674 214.412 254.954 214.857 254.951 215.344L254.874 225.979L254.951 236.609C254.954 237.099 254.671 237.545 254.227 237.751L237.869 245.336C237.535 245.491 237.151 245.491 236.818 245.336L220.459 237.751C220.015 237.545 219.733 237.099 219.736 236.609L219.812 225.979L219.736 215.344C219.733 214.857 220.013 214.412 220.454 214.205L236.813 206.525Z" fill="white"/>
<path d="M236.813 537.623C237.149 537.465 237.538 537.465 237.874 537.623L254.233 545.303C254.674 545.511 254.954 545.955 254.951 546.442L254.874 557.077L254.951 567.707C254.954 568.197 254.671 568.643 254.227 568.849L237.869 576.434C237.535 576.589 237.151 576.589 236.818 576.434L220.459 568.849C220.015 568.643 219.733 568.197 219.736 567.707L219.812 557.077L219.736 546.442C219.733 545.955 220.013 545.511 220.454 545.303L236.813 537.623Z" fill="white"/>
<path d="M236.813 40.9761C237.149 40.8183 237.538 40.8183 237.874 40.9761L254.233 48.6565C254.674 48.8636 254.954 49.3083 254.951 49.7954L254.874 60.4301L254.951 71.0605C254.954 71.5498 254.671 71.9961 254.227 72.2019L237.869 79.7875C237.535 79.9419 237.151 79.9419 236.818 79.7875L220.459 72.2019C220.015 71.9961 219.733 71.5498 219.736 71.0605L219.812 60.4301L219.736 49.7954C219.733 49.3083 220.013 48.8636 220.454 48.6565L236.813 40.9761Z" fill="white"/>
<path d="M236.813 372.074C237.149 371.916 237.538 371.916 237.874 372.074L254.233 379.754C254.674 379.961 254.954 380.406 254.951 380.893L254.874 391.528L254.951 402.158C254.954 402.647 254.671 403.094 254.227 403.3L237.869 410.885C237.535 411.04 237.151 411.04 236.818 410.885L220.459 403.3C220.015 403.094 219.733 402.647 219.736 402.158L219.812 391.528L219.736 380.893C219.733 380.406 220.013 379.961 220.454 379.754L236.813 372.074Z" fill="white"/>
<path d="M236.813 289.299C237.149 289.142 237.538 289.142 237.874 289.299L254.233 296.98C254.674 297.187 254.954 297.631 254.951 298.119L254.874 308.753L254.951 319.384C254.954 319.873 254.671 320.319 254.227 320.525L237.869 328.111C237.535 328.265 237.151 328.265 236.818 328.111L220.459 320.525C220.015 320.319 219.733 319.873 219.736 319.384L219.812 308.753L219.736 298.119C219.733 297.631 220.013 297.187 220.454 296.98L236.813 289.299Z" fill="white"/>
<path d="M236.813 123.75C237.149 123.592 237.538 123.592 237.874 123.75L254.233 131.43C254.674 131.637 254.954 132.082 254.951 132.569L254.874 143.204L254.951 153.834C254.954 154.324 254.671 154.77 254.227 154.976L237.869 162.561C237.535 162.716 237.151 162.716 236.818 162.561L220.459 154.976C220.015 154.77 219.733 154.324 219.736 153.834L219.812 143.204L219.736 132.569C219.733 132.082 220.013 131.637 220.454 131.43L236.813 123.75Z" fill="white"/>
<path d="M236.813 454.849C237.149 454.691 237.538 454.691 237.874 454.849L254.233 462.529C254.674 462.736 254.954 463.181 254.951 463.668L254.874 474.303L254.951 484.933C254.954 485.422 254.671 485.869 254.227 486.074L237.869 493.66C237.535 493.814 237.151 493.814 236.818 493.66L220.459 486.074C220.015 485.869 219.733 485.422 219.736 484.933L219.812 474.303L219.736 463.668C219.733 463.181 220.013 462.736 220.454 462.529L236.813 454.849Z" fill="white"/>
<path d="M261.473 247.912C261.809 247.754 262.198 247.754 262.534 247.912L278.893 255.593C279.334 255.8 279.614 256.244 279.611 256.731L279.535 267.366L279.611 277.997C279.614 278.486 279.332 278.932 278.888 279.138L262.529 286.723C262.196 286.878 261.811 286.878 261.478 286.723L245.12 279.138C244.676 278.932 244.393 278.486 244.396 277.997L244.472 267.366L244.396 256.731C244.393 256.244 244.673 255.8 245.114 255.593L261.473 247.912Z" fill="white"/>
<path d="M261.473 82.3633C261.809 82.2055 262.198 82.2055 262.534 82.3633L278.893 90.0437C279.334 90.2508 279.614 90.6955 279.611 91.1826L279.535 101.817L279.611 112.448C279.614 112.937 279.332 113.383 278.888 113.589L262.529 121.175C262.196 121.329 261.811 121.329 261.478 121.175L245.12 113.589C244.676 113.383 244.393 112.937 244.396 112.448L244.472 101.817L244.396 91.1826C244.393 90.6955 244.673 90.2508 245.114 90.0437L261.473 82.3633Z" fill="white"/>
<path d="M261.473 413.461C261.809 413.303 262.198 413.303 262.534 413.461L278.893 421.141C279.334 421.348 279.614 421.793 279.611 422.28L279.535 432.915L279.611 443.545C279.614 444.035 279.332 444.481 278.888 444.687L262.529 452.272C262.196 452.427 261.811 452.427 261.478 452.272L245.12 444.687C244.676 444.481 244.393 444.035 244.396 443.545L244.472 432.915L244.396 422.28C244.393 421.793 244.673 421.348 245.114 421.141L261.473 413.461Z" fill="white"/>
<path d="M261.473 -0.411082C261.809 -0.568869 262.198 -0.568869 262.534 -0.411082L278.893 7.2693C279.334 7.47635 279.614 7.92105 279.611 8.40822L279.535 19.0428L279.611 29.6733C279.614 30.1626 279.332 30.6089 278.888 30.8147L262.529 38.4003C262.196 38.5547 261.811 38.5547 261.478 38.4003L245.12 30.8147C244.676 30.6089 244.393 30.1626 244.396 29.6733L244.472 19.0428L244.396 8.40822C244.393 7.92104 244.673 7.47635 245.114 7.2693L261.473 -0.411082Z" fill="white"/>
<path d="M261.473 330.687C261.809 330.529 262.198 330.529 262.534 330.687L278.893 338.367C279.334 338.574 279.614 339.019 279.611 339.506L279.535 350.141L279.611 360.771C279.614 361.26 279.332 361.707 278.888 361.912L262.529 369.498C262.196 369.652 261.811 369.652 261.478 369.498L245.12 361.912C244.676 361.707 244.393 361.26 244.396 360.771L244.472 350.141L244.396 339.506C244.393 339.019 244.673 338.574 245.114 338.367L261.473 330.687Z" fill="white"/>
<path d="M261.473 165.138C261.809 164.98 262.198 164.98 262.534 165.138L278.893 172.818C279.334 173.025 279.614 173.47 279.611 173.957L279.535 184.592L279.611 195.222C279.614 195.711 279.332 196.158 278.888 196.364L262.529 203.949C262.196 204.104 261.811 204.104 261.478 203.949L245.12 196.364C244.676 196.158 244.393 195.711 244.396 195.222L244.472 184.592L244.396 173.957C244.393 173.47 244.673 173.025 245.114 172.818L261.473 165.138Z" fill="white"/>
<path d="M261.473 496.235C261.809 496.078 262.198 496.078 262.534 496.235L278.893 503.916C279.334 504.123 279.614 504.568 279.611 505.055L279.535 515.689L279.611 526.32C279.614 526.809 279.332 527.255 278.888 527.461L262.529 535.047C262.196 535.201 261.811 535.201 261.478 535.047L245.12 527.461C244.676 527.255 244.393 526.809 244.396 526.32L244.472 515.689L244.396 505.055C244.393 504.568 244.673 504.123 245.114 503.916L261.473 496.235Z" fill="white"/>
<path d="M39.5473 206.525C39.8833 206.367 40.2722 206.367 40.6083 206.525L56.9672 214.205C57.4082 214.412 57.6885 214.857 57.685 215.344L57.6088 225.979L57.6849 236.609C57.6884 237.099 57.4057 237.545 56.9618 237.751L40.6029 245.336C40.2698 245.491 39.8857 245.491 39.5526 245.336L23.1938 237.751C22.7498 237.545 22.4671 237.099 22.4706 236.609L22.5467 225.979L22.4706 215.344C22.4671 214.857 22.7473 214.412 23.1883 214.205L39.5473 206.525Z" fill="white"/>
<path d="M39.5473 537.623C39.8833 537.465 40.2722 537.465 40.6083 537.623L56.9672 545.303C57.4082 545.511 57.6885 545.955 57.685 546.442L57.6088 557.077L57.6849 567.707C57.6884 568.197 57.4057 568.643 56.9618 568.849L40.6029 576.434C40.2698 576.589 39.8857 576.589 39.5526 576.434L23.1938 568.849C22.7498 568.643 22.4671 568.197 22.4706 567.707L22.5467 557.077L22.4706 546.442C22.4671 545.955 22.7473 545.511 23.1883 545.303L39.5473 537.623Z" fill="white"/>
<path d="M39.5473 40.9761C39.8833 40.8183 40.2722 40.8183 40.6083 40.9761L56.9672 48.6565C57.4082 48.8636 57.6885 49.3083 57.685 49.7954L57.6088 60.4301L57.6849 71.0605C57.6884 71.5498 57.4057 71.9961 56.9618 72.2019L40.6029 79.7875C40.2698 79.9419 39.8857 79.9419 39.5526 79.7875L23.1938 72.2019C22.7498 71.9961 22.4671 71.5498 22.4706 71.0605L22.5467 60.4301L22.4706 49.7954C22.4671 49.3083 22.7473 48.8636 23.1883 48.6565L39.5473 40.9761Z" fill="white"/>
<path d="M39.5473 372.074C39.8833 371.916 40.2722 371.916 40.6083 372.074L56.9672 379.754C57.4082 379.961 57.6885 380.406 57.685 380.893L57.6088 391.528L57.6849 402.158C57.6884 402.647 57.4057 403.094 56.9618 403.3L40.6029 410.885C40.2698 411.04 39.8857 411.04 39.5526 410.885L23.1938 403.3C22.7498 403.094 22.4671 402.647 22.4706 402.158L22.5467 391.528L22.4706 380.893C22.4671 380.406 22.7473 379.961 23.1883 379.754L39.5473 372.074Z" fill="white"/>
<path d="M39.5473 289.299C39.8833 289.142 40.2722 289.142 40.6083 289.299L56.9672 296.98C57.4082 297.187 57.6885 297.631 57.685 298.119L57.6088 308.753L57.6849 319.384C57.6884 319.873 57.4057 320.319 56.9618 320.525L40.6029 328.111C40.2698 328.265 39.8857 328.265 39.5526 328.111L23.1938 320.525C22.7498 320.319 22.4671 319.873 22.4706 319.384L22.5467 308.753L22.4706 298.119C22.4671 297.631 22.7473 297.187 23.1883 296.98L39.5473 289.299Z" fill="white"/>
<path d="M39.5473 123.75C39.8833 123.592 40.2722 123.592 40.6083 123.75L56.9672 131.43C57.4082 131.637 57.6885 132.082 57.685 132.569L57.6088 143.204L57.6849 153.834C57.6884 154.324 57.4057 154.77 56.9618 154.976L40.6029 162.561C40.2698 162.716 39.8857 162.716 39.5526 162.561L23.1938 154.976C22.7498 154.77 22.4671 154.324 22.4706 153.834L22.5467 143.204L22.4706 132.569C22.4671 132.082 22.7473 131.637 23.1883 131.43L39.5473 123.75Z" fill="white"/>
<path d="M39.5473 454.849C39.8833 454.691 40.2722 454.691 40.6083 454.849L56.9672 462.529C57.4082 462.736 57.6885 463.181 57.685 463.668L57.6088 474.303L57.6849 484.933C57.6884 485.422 57.4057 485.869 56.9618 486.074L40.6029 493.66C40.2698 493.814 39.8857 493.814 39.5526 493.66L23.1938 486.074C22.7498 485.869 22.4671 485.422 22.4706 484.933L22.5467 474.303L22.4706 463.668C22.4671 463.181 22.7473 462.736 23.1883 462.529L39.5473 454.849Z" fill="white"/>
<path d="M64.1996 247.912C64.5357 247.754 64.9245 247.754 65.2606 247.912L81.6195 255.593C82.0605 255.8 82.3408 256.244 82.3373 256.731L82.2612 267.366L82.3373 277.997C82.3408 278.486 82.0581 278.932 81.6141 279.138L65.2552 286.723C64.9222 286.878 64.538 286.878 64.205 286.723L47.8461 279.138C47.4022 278.932 47.1194 278.486 47.1229 277.997L47.1991 267.366L47.1229 256.731C47.1194 256.244 47.3997 255.8 47.8407 255.593L64.1996 247.912Z" fill="white"/>
<path d="M64.1996 82.3633C64.5357 82.2055 64.9245 82.2055 65.2606 82.3633L81.6195 90.0437C82.0605 90.2508 82.3408 90.6955 82.3373 91.1826L82.2612 101.817L82.3373 112.448C82.3408 112.937 82.0581 113.383 81.6141 113.589L65.2552 121.175C64.9222 121.329 64.538 121.329 64.205 121.175L47.8461 113.589C47.4022 113.383 47.1194 112.937 47.1229 112.448L47.1991 101.817L47.1229 91.1826C47.1194 90.6955 47.3997 90.2508 47.8407 90.0437L64.1996 82.3633Z" fill="white"/>
<path d="M64.1996 413.461C64.5357 413.303 64.9245 413.303 65.2606 413.461L81.6195 421.141C82.0605 421.348 82.3408 421.793 82.3373 422.28L82.2612 432.915L82.3373 443.545C82.3408 444.035 82.0581 444.481 81.6141 444.687L65.2552 452.272C64.9222 452.427 64.538 452.427 64.205 452.272L47.8461 444.687C47.4022 444.481 47.1194 444.035 47.1229 443.545L47.1991 432.915L47.1229 422.28C47.1194 421.793 47.3997 421.348 47.8407 421.141L64.1996 413.461Z" fill="white"/>
<path d="M64.1996 -0.411082C64.5357 -0.568869 64.9245 -0.568869 65.2606 -0.411082L81.6195 7.2693C82.0605 7.47635 82.3408 7.92105 82.3373 8.40822L82.2612 19.0428L82.3373 29.6733C82.3408 30.1626 82.0581 30.6089 81.6141 30.8147L65.2552 38.4003C64.9222 38.5547 64.538 38.5547 64.205 38.4003L47.8461 30.8147C47.4022 30.6089 47.1194 30.1626 47.1229 29.6733L47.1991 19.0428L47.1229 8.40822C47.1194 7.92104 47.3997 7.47635 47.8407 7.2693L64.1996 -0.411082Z" fill="white"/>
<path d="M64.1996 330.687C64.5357 330.529 64.9245 330.529 65.2606 330.687L81.6195 338.367C82.0605 338.574 82.3408 339.019 82.3373 339.506L82.2612 350.141L82.3373 360.771C82.3408 361.26 82.0581 361.707 81.6141 361.912L65.2552 369.498C64.9222 369.652 64.538 369.652 64.205 369.498L47.8461 361.912C47.4022 361.707 47.1194 361.26 47.1229 360.771L47.1991 350.141L47.1229 339.506C47.1194 339.019 47.3997 338.574 47.8407 338.367L64.1996 330.687Z" fill="white"/>
<path d="M64.1996 165.138C64.5357 164.98 64.9245 164.98 65.2606 165.138L81.6195 172.818C82.0605 173.025 82.3408 173.47 82.3373 173.957L82.2612 184.592L82.3373 195.222C82.3408 195.711 82.0581 196.158 81.6141 196.364L65.2552 203.949C64.9222 204.104 64.538 204.104 64.205 203.949L47.8461 196.364C47.4022 196.158 47.1194 195.711 47.1229 195.222L47.1991 184.592L47.1229 173.957C47.1194 173.47 47.3997 173.025 47.8407 172.818L64.1996 165.138Z" fill="white"/>
<path d="M64.1996 496.235C64.5357 496.078 64.9245 496.078 65.2606 496.235L81.6195 503.916C82.0605 504.123 82.3408 504.568 82.3373 505.055L82.2612 515.689L82.3373 526.32C82.3408 526.809 82.0581 527.255 81.6141 527.461L65.2552 535.047C64.9222 535.201 64.538 535.201 64.205 535.047L47.8461 527.461C47.4022 527.255 47.1194 526.809 47.1229 526.32L47.1991 515.689L47.1229 505.055C47.1194 504.568 47.3997 504.123 47.8407 503.916L64.1996 496.235Z" fill="white"/>
<path d="M286.127 206.525C286.463 206.367 286.852 206.367 287.188 206.525L303.547 214.205C303.988 214.412 304.269 214.857 304.265 215.344L304.189 225.979L304.265 236.609C304.269 237.099 303.986 237.545 303.542 237.751L287.183 245.336C286.85 245.491 286.466 245.491 286.133 245.336L269.774 237.751C269.33 237.545 269.047 237.099 269.051 236.609L269.127 225.979L269.051 215.344C269.047 214.857 269.327 214.412 269.768 214.205L286.127 206.525Z" fill="white"/>
<path d="M286.127 537.623C286.463 537.465 286.852 537.465 287.188 537.623L303.547 545.303C303.988 545.511 304.269 545.955 304.265 546.442L304.189 557.077L304.265 567.707C304.269 568.197 303.986 568.643 303.542 568.849L287.183 576.434C286.85 576.589 286.466 576.589 286.133 576.434L269.774 568.849C269.33 568.643 269.047 568.197 269.051 567.707L269.127 557.077L269.051 546.442C269.047 545.955 269.327 545.511 269.768 545.303L286.127 537.623Z" fill="white"/>
<path d="M286.127 40.9761C286.463 40.8183 286.852 40.8183 287.188 40.9761L303.547 48.6565C303.988 48.8636 304.269 49.3083 304.265 49.7954L304.189 60.4301L304.265 71.0605C304.269 71.5498 303.986 71.9961 303.542 72.2019L287.183 79.7875C286.85 79.9419 286.466 79.9419 286.133 79.7875L269.774 72.2019C269.33 71.9961 269.047 71.5498 269.051 71.0605L269.127 60.4301L269.051 49.7954C269.047 49.3083 269.327 48.8636 269.768 48.6565L286.127 40.9761Z" fill="white"/>
<path d="M286.127 372.074C286.463 371.916 286.852 371.916 287.188 372.074L303.547 379.754C303.988 379.961 304.269 380.406 304.265 380.893L304.189 391.528L304.265 402.158C304.269 402.647 303.986 403.094 303.542 403.3L287.183 410.885C286.85 411.04 286.466 411.04 286.133 410.885L269.774 403.3C269.33 403.094 269.047 402.647 269.051 402.158L269.127 391.528L269.051 380.893C269.047 380.406 269.327 379.961 269.768 379.754L286.127 372.074Z" fill="white"/>
<path d="M286.127 289.299C286.463 289.142 286.852 289.142 287.188 289.299L303.547 296.98C303.988 297.187 304.269 297.631 304.265 298.119L304.189 308.753L304.265 319.384C304.269 319.873 303.986 320.319 303.542 320.525L287.183 328.111C286.85 328.265 286.466 328.265 286.133 328.111L269.774 320.525C269.33 320.319 269.047 319.873 269.051 319.384L269.127 308.753L269.051 298.119C269.047 297.631 269.327 297.187 269.768 296.98L286.127 289.299Z" fill="white"/>
<path d="M286.127 123.75C286.463 123.592 286.852 123.592 287.188 123.75L303.547 131.43C303.988 131.637 304.269 132.082 304.265 132.569L304.189 143.204L304.265 153.834C304.269 154.324 303.986 154.77 303.542 154.976L287.183 162.561C286.85 162.716 286.466 162.716 286.133 162.561L269.774 154.976C269.33 154.77 269.047 154.324 269.051 153.834L269.127 143.204L269.051 132.569C269.047 132.082 269.327 131.637 269.768 131.43L286.127 123.75Z" fill="white"/>
<path d="M286.127 454.849C286.463 454.691 286.852 454.691 287.188 454.849L303.547 462.529C303.988 462.736 304.269 463.181 304.265 463.668L304.189 474.303L304.265 484.933C304.269 485.422 303.986 485.869 303.542 486.074L287.183 493.66C286.85 493.814 286.466 493.814 286.133 493.66L269.774 486.074C269.33 485.869 269.047 485.422 269.051 484.933L269.127 474.303L269.051 463.668C269.047 463.181 269.327 462.736 269.768 462.529L286.127 454.849Z" fill="white"/>
<path d="M310.787 247.912C311.124 247.754 311.512 247.754 311.849 247.912L328.207 255.593C328.648 255.8 328.929 256.244 328.925 256.731L328.849 267.366L328.925 277.997C328.929 278.486 328.646 278.932 328.202 279.138L311.843 286.723C311.51 286.878 311.126 286.878 310.793 286.723L294.434 279.138C293.99 278.932 293.707 278.486 293.711 277.997L293.787 267.366L293.711 256.731C293.707 256.244 293.988 255.8 294.429 255.593L310.787 247.912Z" fill="white"/>
<path d="M310.787 82.3633C311.124 82.2055 311.512 82.2055 311.849 82.3633L328.207 90.0437C328.648 90.2508 328.929 90.6955 328.925 91.1826L328.849 101.817L328.925 112.448C328.929 112.937 328.646 113.383 328.202 113.589L311.843 121.175C311.51 121.329 311.126 121.329 310.793 121.175L294.434 113.589C293.99 113.383 293.707 112.937 293.711 112.448L293.787 101.817L293.711 91.1826C293.707 90.6955 293.988 90.2508 294.429 90.0437L310.787 82.3633Z" fill="white"/>
<path d="M310.787 413.461C311.124 413.303 311.512 413.303 311.849 413.461L328.207 421.141C328.648 421.348 328.929 421.793 328.925 422.28L328.849 432.915L328.925 443.545C328.929 444.035 328.646 444.481 328.202 444.687L311.843 452.272C311.51 452.427 311.126 452.427 310.793 452.272L294.434 444.687C293.99 444.481 293.707 444.035 293.711 443.545L293.787 432.915L293.711 422.28C293.707 421.793 293.988 421.348 294.429 421.141L310.787 413.461Z" fill="white"/>
<path d="M310.787 -0.411082C311.124 -0.568869 311.512 -0.568869 311.849 -0.411082L328.207 7.2693C328.648 7.47635 328.929 7.92105 328.925 8.40822L328.849 19.0428L328.925 29.6733C328.929 30.1626 328.646 30.6089 328.202 30.8147L311.843 38.4003C311.51 38.5547 311.126 38.5547 310.793 38.4003L294.434 30.8147C293.99 30.6089 293.707 30.1626 293.711 29.6733L293.787 19.0428L293.711 8.40822C293.707 7.92104 293.988 7.47635 294.429 7.2693L310.787 -0.411082Z" fill="white"/>
<path d="M310.787 330.687C311.124 330.529 311.512 330.529 311.849 330.687L328.207 338.367C328.648 338.574 328.929 339.019 328.925 339.506L328.849 350.141L328.925 360.771C328.929 361.26 328.646 361.707 328.202 361.912L311.843 369.498C311.51 369.652 311.126 369.652 310.793 369.498L294.434 361.912C293.99 361.707 293.707 361.26 293.711 360.771L293.787 350.141L293.711 339.506C293.707 339.019 293.988 338.574 294.429 338.367L310.787 330.687Z" fill="white"/>
<path d="M310.787 165.138C311.124 164.98 311.512 164.98 311.849 165.138L328.207 172.818C328.648 173.025 328.929 173.47 328.925 173.957L328.849 184.592L328.925 195.222C328.929 195.711 328.646 196.158 328.202 196.364L311.843 203.949C311.51 204.104 311.126 204.104 310.793 203.949L294.434 196.364C293.99 196.158 293.707 195.711 293.711 195.222L293.787 184.592L293.711 173.957C293.707 173.47 293.988 173.025 294.429 172.818L310.787 165.138Z" fill="white"/>
<path d="M310.787 496.235C311.124 496.078 311.512 496.078 311.849 496.235L328.207 503.916C328.648 504.123 328.929 504.568 328.925 505.055L328.849 515.689L328.925 526.32C328.929 526.809 328.646 527.255 328.202 527.461L311.843 535.047C311.51 535.201 311.126 535.201 310.793 535.047L294.434 527.461C293.99 527.255 293.707 526.809 293.711 526.32L293.787 515.689L293.711 505.055C293.707 504.568 293.988 504.123 294.429 503.916L310.787 496.235Z" fill="white"/>
<path d="M88.8676 206.525C89.2036 206.367 89.5925 206.367 89.9286 206.525L106.288 214.205C106.729 214.412 107.009 214.857 107.005 215.344L106.929 225.979L107.005 236.609C107.009 237.099 106.726 237.545 106.282 237.751L89.9232 245.336C89.5902 245.491 89.206 245.491 88.8729 245.336L72.5141 237.751C72.0701 237.545 71.7874 237.099 71.7909 236.609L71.867 225.979L71.7909 215.344C71.7874 214.857 72.0676 214.412 72.5087 214.205L88.8676 206.525Z" fill="white"/>
<path d="M88.8676 537.623C89.2036 537.465 89.5925 537.465 89.9286 537.623L106.288 545.303C106.729 545.511 107.009 545.955 107.005 546.442L106.929 557.077L107.005 567.707C107.009 568.197 106.726 568.643 106.282 568.849L89.9232 576.434C89.5902 576.589 89.206 576.589 88.8729 576.434L72.5141 568.849C72.0701 568.643 71.7874 568.197 71.7909 567.707L71.867 557.077L71.7909 546.442C71.7874 545.955 72.0676 545.511 72.5087 545.303L88.8676 537.623Z" fill="white"/>
<path d="M88.8676 40.9761C89.2036 40.8183 89.5925 40.8183 89.9286 40.9761L106.288 48.6565C106.729 48.8636 107.009 49.3083 107.005 49.7954L106.929 60.4301L107.005 71.0605C107.009 71.5498 106.726 71.9961 106.282 72.2019L89.9232 79.7875C89.5902 79.9419 89.206 79.9419 88.8729 79.7875L72.5141 72.2019C72.0701 71.9961 71.7874 71.5498 71.7909 71.0605L71.867 60.4301L71.7909 49.7954C71.7874 49.3083 72.0676 48.8636 72.5087 48.6565L88.8676 40.9761Z" fill="white"/>
<path d="M88.8676 372.074C89.2036 371.916 89.5925 371.916 89.9286 372.074L106.288 379.754C106.729 379.961 107.009 380.406 107.005 380.893L106.929 391.528L107.005 402.158C107.009 402.647 106.726 403.094 106.282 403.3L89.9232 410.885C89.5902 411.04 89.206 411.04 88.8729 410.885L72.5141 403.3C72.0701 403.094 71.7874 402.647 71.7909 402.158L71.867 391.528L71.7909 380.893C71.7874 380.406 72.0676 379.961 72.5087 379.754L88.8676 372.074Z" fill="white"/>
<path d="M88.8676 289.299C89.2036 289.142 89.5925 289.142 89.9286 289.299L106.288 296.98C106.729 297.187 107.009 297.631 107.005 298.119L106.929 308.753L107.005 319.384C107.009 319.873 106.726 320.319 106.282 320.525L89.9232 328.111C89.5902 328.265 89.206 328.265 88.8729 328.111L72.5141 320.525C72.0701 320.319 71.7874 319.873 71.7909 319.384L71.867 308.753L71.7909 298.119C71.7874 297.631 72.0676 297.187 72.5087 296.98L88.8676 289.299Z" fill="white"/>
<path d="M88.8676 123.75C89.2036 123.592 89.5925 123.592 89.9286 123.75L106.288 131.43C106.729 131.637 107.009 132.082 107.005 132.569L106.929 143.204L107.005 153.834C107.009 154.324 106.726 154.77 106.282 154.976L89.9232 162.561C89.5902 162.716 89.206 162.716 88.8729 162.561L72.5141 154.976C72.0701 154.77 71.7874 154.324 71.7909 153.834L71.867 143.204L71.7909 132.569C71.7874 132.082 72.0676 131.637 72.5087 131.43L88.8676 123.75Z" fill="white"/>
<path d="M88.8676 454.849C89.2036 454.691 89.5925 454.691 89.9286 454.849L106.288 462.529C106.729 462.736 107.009 463.181 107.005 463.668L106.929 474.303L107.005 484.933C107.009 485.422 106.726 485.869 106.282 486.074L89.9232 493.66C89.5902 493.814 89.206 493.814 88.8729 493.66L72.5141 486.074C72.0701 485.869 71.7874 485.422 71.7909 484.933L71.867 474.303L71.7909 463.668C71.7874 463.181 72.0676 462.736 72.5087 462.529L88.8676 454.849Z" fill="white"/>
<path d="M113.524 247.912C113.86 247.754 114.249 247.754 114.585 247.912L130.944 255.593C131.385 255.8 131.665 256.244 131.662 256.731L131.585 267.366L131.662 277.997C131.665 278.486 131.382 278.932 130.938 279.138L114.579 286.723C114.246 286.878 113.862 286.878 113.529 286.723L97.1703 279.138C96.7264 278.932 96.4437 278.486 96.4472 277.997L96.5233 267.366L96.4471 256.731C96.4436 256.244 96.7239 255.8 97.1649 255.593L113.524 247.912Z" fill="white"/>
<path d="M113.524 82.3633C113.86 82.2055 114.249 82.2055 114.585 82.3633L130.944 90.0437C131.385 90.2508 131.665 90.6955 131.662 91.1826L131.585 101.817L131.662 112.448C131.665 112.937 131.382 113.383 130.938 113.589L114.579 121.175C114.246 121.329 113.862 121.329 113.529 121.175L97.1703 113.589C96.7264 113.383 96.4437 112.937 96.4472 112.448L96.5233 101.817L96.4471 91.1826C96.4436 90.6955 96.7239 90.2508 97.1649 90.0437L113.524 82.3633Z" fill="white"/>
<path d="M113.524 413.461C113.86 413.303 114.249 413.303 114.585 413.461L130.944 421.141C131.385 421.348 131.665 421.793 131.662 422.28L131.585 432.915L131.662 443.545C131.665 444.035 131.382 444.481 130.938 444.687L114.579 452.272C114.246 452.427 113.862 452.427 113.529 452.272L97.1703 444.687C96.7264 444.481 96.4437 444.035 96.4472 443.545L96.5233 432.915L96.4471 422.28C96.4436 421.793 96.7239 421.348 97.1649 421.141L113.524 413.461Z" fill="white"/>
<path d="M113.524 -0.411082C113.86 -0.568869 114.249 -0.568869 114.585 -0.411082L130.944 7.2693C131.385 7.47635 131.665 7.92105 131.662 8.40822L131.585 19.0428L131.662 29.6733C131.665 30.1626 131.382 30.6089 130.938 30.8147L114.579 38.4003C114.246 38.5547 113.862 38.5547 113.529 38.4003L97.1703 30.8147C96.7264 30.6089 96.4437 30.1626 96.4472 29.6733L96.5233 19.0428L96.4471 8.40822C96.4436 7.92104 96.7239 7.47635 97.1649 7.2693L113.524 -0.411082Z" fill="white"/>
<path d="M113.524 330.687C113.86 330.529 114.249 330.529 114.585 330.687L130.944 338.367C131.385 338.574 131.665 339.019 131.662 339.506L131.585 350.141L131.662 360.771C131.665 361.26 131.382 361.707 130.938 361.912L114.579 369.498C114.246 369.652 113.862 369.652 113.529 369.498L97.1703 361.912C96.7264 361.707 96.4437 361.26 96.4472 360.771L96.5233 350.141L96.4471 339.506C96.4436 339.019 96.7239 338.574 97.1649 338.367L113.524 330.687Z" fill="white"/>
<path d="M113.524 165.138C113.86 164.98 114.249 164.98 114.585 165.138L130.944 172.818C131.385 173.025 131.665 173.47 131.662 173.957L131.585 184.592L131.662 195.222C131.665 195.711 131.382 196.158 130.938 196.364L114.579 203.949C114.246 204.104 113.862 204.104 113.529 203.949L97.1703 196.364C96.7264 196.158 96.4437 195.711 96.4472 195.222L96.5233 184.592L96.4471 173.957C96.4436 173.47 96.7239 173.025 97.1649 172.818L113.524 165.138Z" fill="white"/>
<path d="M113.524 496.235C113.86 496.078 114.249 496.078 114.585 496.235L130.944 503.916C131.385 504.123 131.665 504.568 131.662 505.055L131.585 515.689L131.662 526.32C131.665 526.809 131.382 527.255 130.938 527.461L114.579 535.047C114.246 535.201 113.862 535.201 113.529 535.047L97.1703 527.461C96.7264 527.255 96.4437 526.809 96.4472 526.32L96.5233 515.689L96.4471 505.055C96.4436 504.568 96.7239 504.123 97.1649 503.916L113.524 496.235Z" fill="white"/>
<path d="M335.45 206.525C335.786 206.367 336.175 206.367 336.511 206.525L352.87 214.205C353.311 214.412 353.591 214.857 353.587 215.344L353.511 225.979L353.587 236.609C353.591 237.099 353.308 237.545 352.864 237.751L336.505 245.336C336.172 245.491 335.788 245.491 335.455 245.336L319.096 237.751C318.652 237.545 318.369 237.099 318.373 236.609L318.449 225.979L318.373 215.344C318.369 214.857 318.65 214.412 319.091 214.205L335.45 206.525Z" fill="white"/>
<path d="M335.45 537.623C335.786 537.465 336.175 537.465 336.511 537.623L352.87 545.303C353.311 545.511 353.591 545.955 353.587 546.442L353.511 557.077L353.587 567.707C353.591 568.197 353.308 568.643 352.864 568.849L336.505 576.434C336.172 576.589 335.788 576.589 335.455 576.434L319.096 568.849C318.652 568.643 318.369 568.197 318.373 567.707L318.449 557.077L318.373 546.442C318.369 545.955 318.65 545.511 319.091 545.303L335.45 537.623Z" fill="white"/>
<path d="M335.45 40.9756C335.786 40.8178 336.175 40.8178 336.511 40.9756L352.87 48.656C353.311 48.8631 353.591 49.3078 353.587 49.7949L353.511 60.4296L353.587 71.06C353.591 71.5493 353.308 71.9956 352.864 72.2014L336.505 79.787C336.172 79.9414 335.788 79.9414 335.455 79.787L319.096 72.2014C318.652 71.9956 318.369 71.5493 318.373 71.06L318.449 60.4296L318.373 49.7949C318.369 49.3078 318.65 48.8631 319.091 48.656L335.45 40.9756Z" fill="white"/>
<path d="M335.45 372.074C335.786 371.916 336.175 371.916 336.511 372.074L352.87 379.754C353.311 379.961 353.591 380.406 353.587 380.893L353.511 391.528L353.587 402.158C353.591 402.647 353.308 403.094 352.864 403.3L336.505 410.885C336.172 411.04 335.788 411.04 335.455 410.885L319.096 403.3C318.652 403.094 318.369 402.647 318.373 402.158L318.449 391.528L318.373 380.893C318.369 380.406 318.65 379.961 319.091 379.754L335.45 372.074Z" fill="white"/>
<path d="M335.45 289.299C335.786 289.142 336.175 289.142 336.511 289.299L352.87 296.98C353.311 297.187 353.591 297.631 353.587 298.119L353.511 308.753L353.587 319.384C353.591 319.873 353.308 320.319 352.864 320.525L336.505 328.111C336.172 328.265 335.788 328.265 335.455 328.111L319.096 320.525C318.652 320.319 318.369 319.873 318.373 319.384L318.449 308.753L318.373 298.119C318.369 297.631 318.65 297.187 319.091 296.98L335.45 289.299Z" fill="white"/>
<path d="M335.45 123.75C335.786 123.592 336.175 123.592 336.511 123.75L352.87 131.43C353.311 131.637 353.591 132.082 353.587 132.569L353.511 143.204L353.587 153.834C353.591 154.324 353.308 154.77 352.864 154.976L336.505 162.561C336.172 162.716 335.788 162.716 335.455 162.561L319.096 154.976C318.652 154.77 318.369 154.324 318.373 153.834L318.449 143.204L318.373 132.569C318.369 132.082 318.65 131.637 319.091 131.43L335.45 123.75Z" fill="white"/>
<path d="M335.45 454.849C335.786 454.691 336.175 454.691 336.511 454.849L352.87 462.529C353.311 462.736 353.591 463.181 353.587 463.668L353.511 474.303L353.587 484.933C353.591 485.422 353.308 485.869 352.864 486.074L336.505 493.66C336.172 493.814 335.788 493.814 335.455 493.66L319.096 486.074C318.652 485.869 318.369 485.422 318.373 484.933L318.449 474.303L318.373 463.668C318.369 463.181 318.65 462.736 319.091 462.529L335.45 454.849Z" fill="white"/>
<path d="M360.102 247.912C360.438 247.754 360.827 247.754 361.163 247.912L377.522 255.593C377.963 255.8 378.243 256.244 378.24 256.731L378.164 267.366L378.24 277.997C378.243 278.486 377.96 278.932 377.516 279.138L361.158 286.723C360.825 286.878 360.44 286.878 360.107 286.723L343.748 279.138C343.305 278.932 343.022 278.486 343.025 277.997L343.101 267.366L343.025 256.731C343.022 256.244 343.302 255.8 343.743 255.593L360.102 247.912Z" fill="white"/>
<path d="M360.102 82.3633C360.438 82.2055 360.827 82.2055 361.163 82.3633L377.522 90.0437C377.963 90.2508 378.243 90.6955 378.24 91.1826L378.164 101.817L378.24 112.448C378.243 112.937 377.96 113.383 377.516 113.589L361.158 121.175C360.825 121.329 360.44 121.329 360.107 121.175L343.748 113.589C343.305 113.383 343.022 112.937 343.025 112.448L343.101 101.817L343.025 91.1826C343.022 90.6955 343.302 90.2508 343.743 90.0437L360.102 82.3633Z" fill="white"/>
<path d="M360.102 413.461C360.438 413.303 360.827 413.303 361.163 413.461L377.522 421.141C377.963 421.348 378.243 421.793 378.24 422.28L378.164 432.915L378.24 443.545C378.243 444.035 377.96 444.481 377.516 444.687L361.158 452.272C360.825 452.427 360.44 452.427 360.107 452.272L343.748 444.687C343.305 444.481 343.022 444.035 343.025 443.545L343.101 432.915L343.025 422.28C343.022 421.793 343.302 421.348 343.743 421.141L360.102 413.461Z" fill="white"/>
<path d="M360.102 -0.411082C360.438 -0.568869 360.827 -0.568869 361.163 -0.411082L377.522 7.2693C377.963 7.47635 378.243 7.92105 378.24 8.40822L378.164 19.0428L378.24 29.6733C378.243 30.1626 377.96 30.6089 377.516 30.8147L361.158 38.4003C360.825 38.5547 360.44 38.5547 360.107 38.4003L343.748 30.8147C343.305 30.6089 343.022 30.1626 343.025 29.6733L343.101 19.0428L343.025 8.40822C343.022 7.92104 343.302 7.47635 343.743 7.2693L360.102 -0.411082Z" fill="white"/>
<path d="M360.102 330.687C360.438 330.529 360.827 330.529 361.163 330.687L377.522 338.367C377.963 338.574 378.243 339.019 378.24 339.506L378.164 350.141L378.24 360.771C378.243 361.26 377.96 361.707 377.516 361.912L361.158 369.498C360.825 369.652 360.44 369.652 360.107 369.498L343.748 361.912C343.305 361.707 343.022 361.26 343.025 360.771L343.101 350.141L343.025 339.506C343.022 339.019 343.302 338.574 343.743 338.367L360.102 330.687Z" fill="white"/>
<path d="M360.102 165.138C360.438 164.98 360.827 164.98 361.163 165.138L377.522 172.818C377.963 173.025 378.243 173.47 378.24 173.957L378.164 184.592L378.24 195.222C378.243 195.711 377.96 196.158 377.516 196.364L361.158 203.949C360.825 204.104 360.44 204.104 360.107 203.949L343.748 196.364C343.305 196.158 343.022 195.711 343.025 195.222L343.101 184.592L343.025 173.957C343.022 173.47 343.302 173.025 343.743 172.818L360.102 165.138Z" fill="white"/>
<path d="M360.102 496.235C360.438 496.078 360.827 496.078 361.163 496.235L377.522 503.916C377.963 504.123 378.243 504.568 378.24 505.055L378.164 515.689L378.24 526.32C378.243 526.809 377.96 527.255 377.516 527.461L361.158 535.047C360.825 535.201 360.44 535.201 360.107 535.047L343.748 527.461C343.305 527.255 343.022 526.809 343.025 526.32L343.101 515.689L343.025 505.055C343.022 504.568 343.302 504.123 343.743 503.916L360.102 496.235Z" fill="white"/>
<path d="M138.176 206.525C138.512 206.367 138.901 206.367 139.237 206.525L155.596 214.205C156.037 214.412 156.317 214.857 156.314 215.344L156.238 225.979L156.314 236.609C156.317 237.099 156.035 237.545 155.591 237.751L139.232 245.336C138.899 245.491 138.515 245.491 138.182 245.336L121.823 237.751C121.379 237.545 121.096 237.099 121.1 236.609L121.176 225.979L121.099 215.344C121.096 214.857 121.376 214.412 121.817 214.205L138.176 206.525Z" fill="white"/>
<path d="M138.176 537.623C138.512 537.465 138.901 537.465 139.237 537.623L155.596 545.303C156.037 545.511 156.317 545.955 156.314 546.442L156.238 557.077L156.314 567.707C156.317 568.197 156.035 568.643 155.591 568.849L139.232 576.434C138.899 576.589 138.515 576.589 138.182 576.434L121.823 568.849C121.379 568.643 121.096 568.197 121.1 567.707L121.176 557.077L121.099 546.442C121.096 545.955 121.376 545.511 121.817 545.303L138.176 537.623Z" fill="white"/>
<path d="M138.176 40.9761C138.512 40.8183 138.901 40.8183 139.237 40.9761L155.596 48.6565C156.037 48.8636 156.317 49.3083 156.314 49.7954L156.238 60.4301L156.314 71.0605C156.317 71.5498 156.035 71.9961 155.591 72.2019L139.232 79.7875C138.899 79.9419 138.515 79.9419 138.182 79.7875L121.823 72.2019C121.379 71.9961 121.096 71.5498 121.1 71.0605L121.176 60.4301L121.099 49.7954C121.096 49.3083 121.376 48.8636 121.817 48.6565L138.176 40.9761Z" fill="white"/>
<path d="M138.176 372.074C138.512 371.916 138.901 371.916 139.237 372.074L155.596 379.754C156.037 379.961 156.317 380.406 156.314 380.893L156.238 391.528L156.314 402.158C156.317 402.647 156.035 403.094 155.591 403.3L139.232 410.885C138.899 411.04 138.515 411.04 138.182 410.885L121.823 403.3C121.379 403.094 121.096 402.647 121.1 402.158L121.176 391.528L121.099 380.893C121.096 380.406 121.376 379.961 121.817 379.754L138.176 372.074Z" fill="white"/>
<path d="M138.176 289.299C138.512 289.142 138.901 289.142 139.237 289.299L155.596 296.98C156.037 297.187 156.317 297.631 156.314 298.119L156.238 308.753L156.314 319.384C156.317 319.873 156.035 320.319 155.591 320.525L139.232 328.111C138.899 328.265 138.515 328.265 138.182 328.111L121.823 320.525C121.379 320.319 121.096 319.873 121.1 319.384L121.176 308.753L121.099 298.119C121.096 297.631 121.376 297.187 121.817 296.98L138.176 289.299Z" fill="white"/>
<path d="M138.176 123.75C138.512 123.592 138.901 123.592 139.237 123.75L155.596 131.43C156.037 131.637 156.317 132.082 156.314 132.569L156.238 143.204L156.314 153.834C156.317 154.324 156.035 154.77 155.591 154.976L139.232 162.561C138.899 162.716 138.515 162.716 138.182 162.561L121.823 154.976C121.379 154.77 121.096 154.324 121.1 153.834L121.176 143.204L121.099 132.569C121.096 132.082 121.376 131.637 121.817 131.43L138.176 123.75Z" fill="white"/>
<path d="M138.176 454.849C138.512 454.691 138.901 454.691 139.237 454.849L155.596 462.529C156.037 462.736 156.317 463.181 156.314 463.668L156.238 474.303L156.314 484.933C156.317 485.422 156.035 485.869 155.591 486.074L139.232 493.66C138.899 493.814 138.515 493.814 138.182 493.66L121.823 486.074C121.379 485.869 121.096 485.422 121.1 484.933L121.176 474.303L121.099 463.668C121.096 463.181 121.376 462.736 121.817 462.529L138.176 454.849Z" fill="white"/>
<path d="M162.844 247.912C163.18 247.754 163.569 247.754 163.905 247.912L180.264 255.593C180.705 255.8 180.985 256.244 180.982 256.731L180.906 267.366L180.982 277.997C180.985 278.486 180.703 278.932 180.259 279.138L163.9 286.723C163.567 286.878 163.183 286.878 162.85 286.723L146.491 279.138C146.047 278.932 145.764 278.486 145.767 277.997L145.844 267.366L145.767 256.731C145.764 256.244 146.044 255.8 146.485 255.593L162.844 247.912Z" fill="white"/>
<path d="M162.844 82.3633C163.18 82.2055 163.569 82.2055 163.905 82.3633L180.264 90.0437C180.705 90.2508 180.985 90.6955 180.982 91.1826L180.906 101.817L180.982 112.448C180.985 112.937 180.703 113.383 180.259 113.589L163.9 121.175C163.567 121.329 163.183 121.329 162.85 121.175L146.491 113.589C146.047 113.383 145.764 112.937 145.767 112.448L145.844 101.817L145.767 91.1826C145.764 90.6955 146.044 90.2508 146.485 90.0437L162.844 82.3633Z" fill="white"/>
<path d="M162.844 413.461C163.18 413.303 163.569 413.303 163.905 413.461L180.264 421.141C180.705 421.348 180.985 421.793 180.982 422.28L180.906 432.915L180.982 443.545C180.985 444.035 180.703 444.481 180.259 444.687L163.9 452.272C163.567 452.427 163.183 452.427 162.85 452.272L146.491 444.687C146.047 444.481 145.764 444.035 145.767 443.545L145.844 432.915L145.767 422.28C145.764 421.793 146.044 421.348 146.485 421.141L162.844 413.461Z" fill="white"/>
<path d="M162.844 -0.411082C163.18 -0.568869 163.569 -0.568869 163.905 -0.411082L180.264 7.2693C180.705 7.47635 180.985 7.92105 180.982 8.40822L180.906 19.0428L180.982 29.6733C180.985 30.1626 180.703 30.6089 180.259 30.8147L163.9 38.4003C163.567 38.5547 163.183 38.5547 162.85 38.4003L146.491 30.8147C146.047 30.6089 145.764 30.1626 145.767 29.6733L145.844 19.0428L145.767 8.40822C145.764 7.92104 146.044 7.47635 146.485 7.2693L162.844 -0.411082Z" fill="white"/>
<path d="M162.844 330.687C163.18 330.529 163.569 330.529 163.905 330.687L180.264 338.367C180.705 338.574 180.985 339.019 180.982 339.506L180.906 350.141L180.982 360.771C180.985 361.26 180.703 361.707 180.259 361.912L163.9 369.498C163.567 369.652 163.183 369.652 162.85 369.498L146.491 361.912C146.047 361.707 145.764 361.26 145.767 360.771L145.844 350.141L145.767 339.506C145.764 339.019 146.044 338.574 146.485 338.367L162.844 330.687Z" fill="white"/>
<path d="M162.844 165.138C163.18 164.98 163.569 164.98 163.905 165.138L180.264 172.818C180.705 173.025 180.985 173.47 180.982 173.957L180.906 184.592L180.982 195.222C180.985 195.711 180.703 196.158 180.259 196.364L163.9 203.949C163.567 204.104 163.183 204.104 162.85 203.949L146.491 196.364C146.047 196.158 145.764 195.711 145.767 195.222L145.844 184.592L145.767 173.957C145.764 173.47 146.044 173.025 146.485 172.818L162.844 165.138Z" fill="white"/>
<path d="M162.844 496.235C163.18 496.078 163.569 496.078 163.905 496.235L180.264 503.916C180.705 504.123 180.985 504.568 180.982 505.055L180.906 515.689L180.982 526.32C180.985 526.809 180.703 527.255 180.259 527.461L163.9 535.047C163.567 535.201 163.183 535.201 162.85 535.047L146.491 527.461C146.047 527.255 145.764 526.809 145.767 526.32L145.844 515.689L145.767 505.055C145.764 504.568 146.044 504.123 146.485 503.916L162.844 496.235Z" fill="white"/>
</g>
</g>
<path d="M181.726 202.908C185.6 201.068 190.097 201.068 193.971 202.908L255.511 232.14C258.674 233.643 260.681 236.842 260.656 240.344L260.358 282.45L260.656 324.525C260.681 328.042 258.656 331.253 255.472 332.747L193.909 361.629C190.069 363.43 185.627 363.43 181.788 361.629L120.225 332.747C117.04 331.253 115.016 328.042 115.041 324.525L115.339 282.45L115.041 240.344C115.016 236.842 117.022 233.643 120.186 232.14L181.726 202.908Z" fill="#6E3BAB"/>
<path d="M194.436 219.065C190.266 217.092 185.431 217.092 181.261 219.065L135.165 240.886C131.335 242.699 128.905 246.569 128.935 250.806L129.159 282.403L128.935 313.969C128.905 318.225 131.357 322.109 135.212 323.911L181.328 345.472C185.46 347.404 190.237 347.404 194.369 345.472L240.485 323.911C244.34 322.109 246.792 318.225 246.762 313.969L246.538 282.403L246.762 250.806C246.792 246.569 244.362 242.699 240.532 240.886L194.436 219.065Z" stroke="url(#paint2_linear_109_8053)" stroke-width="3.75507"/>
<g clip-path="url(#clip1_109_8053)">
<mask id="mask1_109_8053" style="mask-type:alpha" maskUnits="userSpaceOnUse" x="145" y="250" width="86" height="65">
<path fill-rule="evenodd" clip-rule="evenodd" d="M157.938 251.236C156.517 250.649 154.919 250.664 153.51 251.278L148.502 253.46C146.435 254.36 145.098 256.401 145.098 258.656V306.735C145.098 308.984 146.428 311.021 148.487 311.925L153.501 314.125C154.947 314.76 156.593 314.763 158.041 314.133L186.429 301.778C187.294 301.402 188.277 301.402 189.143 301.778L217.531 314.133C218.979 314.763 220.624 314.76 222.07 314.125L227.084 311.925C229.144 311.021 230.474 308.984 230.474 306.735V258.671C230.474 256.408 229.128 254.362 227.05 253.466L221.933 251.26C220.535 250.658 218.953 250.643 217.544 251.219L188.862 262.951C188.033 263.29 187.104 263.288 186.276 262.946L157.938 251.236ZM218.22 305.142C218.968 305.464 219.802 304.915 219.802 304.101V261.362C219.802 260.544 218.962 259.995 218.213 260.324L191.658 271.978C189.19 273.061 186.381 273.061 183.914 271.978L157.304 260.3C156.555 259.971 155.715 260.52 155.715 261.338L155.715 304.082C155.715 304.899 156.553 305.448 157.301 305.122L183.742 293.605C186.183 292.542 188.955 292.536 191.401 293.59L218.22 305.142Z" fill="#00D1FF"/>
</mask>
<g mask="url(#mask1_109_8053)">
<path d="M157.066 250.574L144.734 255.354V312.709L157.066 307.93L157.066 250.574Z" fill="white"/>
<path d="M217.773 250.574L230.106 255.354V312.709L217.773 307.941V250.574Z" fill="white"/>
<g filter="url(#filter0_f_109_8053)">
<path d="M140.699 310.812L187.201 291.365L234.85 311.524L219.91 320.535L187.201 307.255L153.98 320.535L140.699 310.812Z" fill="white"/>
</g>
<g filter="url(#filter1_f_109_8053)">
<path d="M140.83 253.519L153.637 247.353L187.569 263.361L221.938 247.353L235.93 253.519L187.569 275.1L140.83 253.519Z" fill="#9743F3"/>
</g>
</g>
</g>
</g>
<defs>
<filter id="filter0_f_109_8053" x="138.432" y="289.098" width="98.6844" height="33.7044" filterUnits="userSpaceOnUse" color-interpolation-filters="sRGB">
<feFlood flood-opacity="0" result="BackgroundImageFix"/>
<feBlend mode="normal" in="SourceGraphic" in2="BackgroundImageFix" result="shape"/>
<feGaussianBlur stdDeviation="1.13351" result="effect1_foregroundBlur_109_8053"/>
</filter>
<filter id="filter1_f_109_8053" x="138.563" y="245.086" width="99.6336" height="32.2816" filterUnits="userSpaceOnUse" color-interpolation-filters="sRGB">
<feFlood flood-opacity="0" result="BackgroundImageFix"/>
<feBlend mode="normal" in="SourceGraphic" in2="BackgroundImageFix" result="shape"/>
<feGaussianBlur stdDeviation="1.13351" result="effect1_foregroundBlur_109_8053"/>
</filter>
<linearGradient id="paint0_linear_109_8053" x1="-86.8188" y1="-38.7121" x2="654.723" y2="-12.1412" gradientUnits="userSpaceOnUse">
<stop stop-color="#E04D04"/>
<stop offset="0.794052" stop-color="#FFA134"/>
<stop offset="1" stop-color="#FF8A00"/>
</linearGradient>
<linearGradient id="paint1_linear_109_8053" x1="49.1786" y1="454.461" x2="147.877" y2="-158.149" gradientUnits="userSpaceOnUse">
<stop stop-color="#794DF2"/>
<stop offset="0.794052" stop-color="#D273FF"/>
</linearGradient>
<linearGradient id="paint2_linear_109_8053" x1="125.514" y1="281.861" x2="258.444" y2="288.62" gradientUnits="userSpaceOnUse">
<stop stop-color="#AF66FF"/>
<stop offset="1" stop-color="#AE6EFF"/>
</linearGradient>
<clipPath id="clip0_109_8053">
<rect width="375" height="564" rx="9.68" fill="white"/>
</clipPath>
<clipPath id="clip1_109_8053">
<rect width="123.917" height="132.929" fill="white" transform="translate(125.514 215.771)"/>
</clipPath>
</defs>
</svg>
