<svg width="82" height="64" viewBox="0 0 82 64" fill="none" xmlns="http://www.w3.org/2000/svg">
<g clip-path="url(#clip0_233_4038)">
<path fill-rule="evenodd" clip-rule="evenodd" d="M0 14.3348V56.5755C0 57.5738 0.59038 58.4777 1.50454 58.8789L9.26922 62.2868C9.91104 62.5685 10.6413 62.5696 11.284 62.2899L40.502 49.5747C40.8861 49.4075 41.3224 49.4075 41.7065 49.5747L70.9245 62.2899C71.5672 62.5696 72.2974 62.5685 72.9392 62.2868L80.7041 58.8789C81.6183 58.4777 82.2087 57.5738 82.2087 56.5755V14.7817L71.9325 19.3675V53.0114C71.9325 53.373 71.5625 53.6165 71.2304 53.4735L42.5957 41.1394C41.5103 40.6719 40.2798 40.6744 39.1963 41.1463L10.9275 53.4589C10.5952 53.6037 10.2235 53.3602 10.2235 52.9977L10.2236 19.0554L0 14.3348ZM79.8787 3.77826L72.8504 0.748142C72.2298 0.480587 71.5277 0.47399 70.9022 0.729835L41.4688 12.7688C41.1009 12.9193 40.6884 12.9185 40.321 12.7667L11.2102 0.737483C10.5797 0.476955 9.87047 0.483667 9.24504 0.756079L4.44363 2.84736L40.8958 21.9142L79.8787 3.77826Z" fill="white"/>
<path fill-rule="evenodd" clip-rule="evenodd" d="M81.4228 4.56358C81.228 4.37902 81.0018 4.22401 80.75 4.10741L72.8871 0.466375C72.2455 0.169294 71.5086 0.155909 70.8566 0.429499L41.4814 12.7573C41.1061 12.9148 40.683 12.9141 40.3082 12.7552L11.2558 0.43768C10.5988 0.159123 9.85437 0.172735 9.20798 0.475124L1.44946 4.10465C1.0592 4.28721 0.731125 4.56215 0.486328 4.89628L10.7347 9.53649C10.7989 9.53757 10.8646 9.55122 10.9288 9.5794L39.3855 22.0688C40.4808 22.5495 41.7274 22.5495 42.8227 22.0688L54.2809 17.0399L81.4228 4.56358Z" fill="#EBFF00"/>
</g>
<defs>
<clipPath id="clip0_233_4038">
<rect width="82" height="64" fill="white"/>
</clipPath>
</defs>
</svg>
