<svg width="31" height="37" viewBox="0 0 31 37" fill="none" xmlns="http://www.w3.org/2000/svg">
<path d="M13.2048 0.901587C14.3344 0.334291 15.6656 0.334291 16.7952 0.901586L28.5864 6.82337C29.452 7.25811 29.9959 8.14647 29.9894 9.11511L29.9303 17.9497L29.9894 26.7756C29.9959 27.7488 29.4469 28.6405 28.5751 29.073L16.7774 34.9248C15.6576 35.4803 14.3424 35.4803 13.2226 34.9248L1.42495 29.073C0.553095 28.6405 0.0041324 27.7488 0.0106464 26.7756L0.0697214 17.9497L0.0105877 9.11511C0.00410419 8.14647 0.54796 7.25811 1.41358 6.82337L13.2048 0.901587Z" fill="white"/>
<mask id="mask0_90_6002" style="mask-type:alpha" maskUnits="userSpaceOnUse" x="4" y="9" width="22" height="18">
<path fill-rule="evenodd" clip-rule="evenodd" d="M8.13401 9.29539C7.68777 9.08269 7.16829 9.08809 6.72657 9.31002L5.80009 9.7755C5.25929 10.0472 4.91797 10.6007 4.91797 11.2059V24.3602C4.91797 24.9637 5.25732 25.5158 5.79569 25.7884L6.71954 26.2561C7.17238 26.4854 7.70713 26.4863 8.16076 26.2586L14.5734 23.0394C14.8446 22.9033 15.1641 22.9033 15.4352 23.0394L21.8479 26.2586C22.3016 26.4863 22.8363 26.4854 23.2892 26.2561L24.213 25.7884C24.7514 25.5158 25.0908 24.9637 25.0908 24.3602V11.2104C25.0908 10.6028 24.7468 10.0476 24.2028 9.77709L23.2507 9.30361C22.8122 9.0855 22.2979 9.08019 21.8549 9.2892L15.3648 12.3513C15.1041 12.4743 14.8019 12.4737 14.5417 12.3497L8.13401 9.29539ZM22.1066 23.8566C22.3194 23.9624 22.5692 23.8076 22.5692 23.5699V12.0162C22.5692 11.7775 22.3174 11.6228 22.1044 11.7306L16.2335 14.7028C15.4608 15.094 14.5479 15.094 13.7752 14.7028L7.89147 11.7241C7.6785 11.6163 7.4267 11.771 7.4267 12.0097L7.42667 23.5644C7.42667 23.8027 7.67765 23.9575 7.89056 23.8505L13.7379 20.9127C14.5028 20.5284 15.404 20.5264 16.1705 20.9073L22.1066 23.8566Z" fill="#00D1FF"/>
</mask>
<g mask="url(#mask0_90_6002)">
<path d="M7.83008 8.92578L4.91622 10.2285V25.861L7.83003 24.5583L7.83008 8.92578Z" fill="#30303D"/>
<path d="M22.1758 8.92578L25.0896 10.2285V25.861L22.1758 24.5613V8.92578Z" fill="#30303D"/>
<g filter="url(#filter0_f_90_6002)">
<path d="M3.96484 25.3438L14.9524 20.0435L26.211 25.5377L22.6808 27.9939L14.9524 24.3742L7.10284 27.9939L3.96484 25.3438Z" fill="#30303D"/>
</g>
<g filter="url(#filter1_f_90_6002)">
<path d="M3.9082 9.83074L6.93413 8.15015L14.9518 12.5132L23.0724 8.15015L26.3785 9.83074L14.9518 15.7128L3.9082 9.83074Z" fill="#8E8EAC"/>
</g>
</g>
<defs>
<filter id="filter0_f_90_6002" x="3.32453" y="19.4031" width="23.5267" height="9.23106" filterUnits="userSpaceOnUse" color-interpolation-filters="sRGB">
<feFlood flood-opacity="0" result="BackgroundImageFix"/>
<feBlend mode="normal" in="SourceGraphic" in2="BackgroundImageFix" result="shape"/>
<feGaussianBlur stdDeviation="0.320155" result="effect1_foregroundBlur_90_6002"/>
</filter>
<filter id="filter1_f_90_6002" x="3.26789" y="7.50984" width="23.7513" height="8.84337" filterUnits="userSpaceOnUse" color-interpolation-filters="sRGB">
<feFlood flood-opacity="0" result="BackgroundImageFix"/>
<feBlend mode="normal" in="SourceGraphic" in2="BackgroundImageFix" result="shape"/>
<feGaussianBlur stdDeviation="0.320155" result="effect1_foregroundBlur_90_6002"/>
</filter>
</defs>
</svg>
