<svg width="332" height="610" viewBox="0 0 332 610" fill="none" xmlns="http://www.w3.org/2000/svg">
<path d="M12.5719 62.6618C11.4211 40.7044 28.2883 21.9714 50.2457 20.8207L251.243 10.2869C273.201 9.13611 291.934 26.0033 293.084 47.9607L319.607 554.049C320.758 576.006 303.891 594.739 281.934 595.89L80.9359 606.424C58.9785 607.575 40.2456 590.707 39.0948 568.75L12.5719 62.6618Z" fill="white"/>
<path d="M216.773 383.665C217.155 384.166 217.922 384.126 218.249 383.587L224.681 373.017C224.869 372.709 224.852 372.317 224.639 372.025L217.113 361.696C216.732 361.174 215.94 361.215 215.615 361.775L209.21 372.834C209.028 373.147 209.053 373.538 209.272 373.825L216.773 383.665Z" fill="#8D5AC1"/>
<path d="M233.333 366.102L236.748 365.923C238.23 365.846 239.358 366.002 240.135 366.392C240.911 366.781 241.327 367.502 241.382 368.554C241.405 368.994 241.347 369.396 241.209 369.76C241.075 370.119 240.868 370.421 240.587 370.667C240.306 370.907 239.952 371.078 239.527 371.179L239.532 371.257C239.981 371.313 240.383 371.431 240.739 371.611C241.1 371.792 241.39 372.063 241.608 372.424C241.832 372.785 241.959 373.261 241.99 373.853C242.027 374.554 241.891 375.16 241.581 375.669C241.277 376.178 240.823 376.578 240.219 376.866C239.62 377.155 238.899 377.321 238.057 377.366L233.934 377.582L233.333 366.102ZM235.465 370.738L237.271 370.644C238.124 370.599 238.709 370.429 239.024 370.134C239.339 369.84 239.483 369.425 239.455 368.891C239.426 368.347 239.209 367.965 238.804 367.745C238.404 367.524 237.78 367.436 236.932 367.481L235.299 367.566L235.465 370.738ZM235.545 372.261L235.736 375.905L237.723 375.801C238.602 375.754 239.211 375.552 239.549 375.193C239.887 374.834 240.041 374.364 240.01 373.783C239.992 373.427 239.894 373.123 239.718 372.869C239.548 372.616 239.278 372.428 238.909 372.306C238.54 372.178 238.05 372.13 237.437 372.162L235.545 372.261ZM247.872 367.97C248.972 367.912 249.814 368.112 250.4 368.57C250.99 369.027 251.313 369.771 251.367 370.802L251.673 376.652L250.362 376.721L249.944 375.506L249.881 375.51C249.652 375.837 249.412 376.109 249.161 376.327C248.91 376.545 248.614 376.713 248.274 376.83C247.939 376.953 247.525 377.027 247.033 377.053C246.515 377.08 246.047 377.01 245.629 376.843C245.21 376.67 244.873 376.394 244.617 376.014C244.361 375.634 244.217 375.143 244.185 374.541C244.139 373.646 244.436 372.955 245.077 372.47C245.723 371.985 246.721 371.684 248.069 371.566L249.573 371.432L249.549 370.976C249.518 370.374 249.354 369.953 249.058 369.711C248.767 369.469 248.368 369.361 247.86 369.388C247.425 369.411 247.007 369.496 246.606 369.643C246.204 369.79 245.814 369.965 245.437 370.168L244.771 368.896C245.184 368.649 245.656 368.441 246.187 368.271C246.724 368.101 247.286 368.001 247.872 367.97ZM249.626 372.594L248.506 372.692C247.586 372.772 246.948 372.963 246.591 373.265C246.234 373.567 246.068 373.964 246.094 374.456C246.117 374.886 246.261 375.193 246.528 375.378C246.795 375.559 247.138 375.638 247.556 375.616C248.195 375.582 248.714 375.374 249.114 374.991C249.519 374.602 249.703 374.055 249.666 373.348L249.626 372.594ZM260.551 373.699C260.581 374.269 260.468 374.758 260.211 375.165C259.954 375.572 259.564 375.892 259.041 376.124C258.523 376.351 257.879 376.484 257.109 376.525C256.502 376.556 255.976 376.539 255.532 376.473C255.093 376.412 254.675 376.303 254.279 376.145L254.195 374.551C254.619 374.723 255.091 374.867 255.611 374.981C256.137 375.095 256.63 375.14 257.09 375.116C257.698 375.084 258.13 374.967 258.387 374.765C258.644 374.557 258.764 374.294 258.747 373.974C258.737 373.786 258.673 373.621 258.556 373.48C258.443 373.334 258.236 373.19 257.935 373.048C257.638 372.901 257.204 372.73 256.632 372.534C256.071 372.343 255.596 372.148 255.208 371.947C254.82 371.747 254.521 371.498 254.311 371.199C254.101 370.895 253.983 370.5 253.957 370.013C253.917 369.244 254.19 368.644 254.776 368.214C255.368 367.779 256.166 367.535 257.171 367.483C257.705 367.455 258.21 367.483 258.687 367.569C259.169 367.648 259.643 367.778 260.109 367.959L259.601 369.379C259.199 369.227 258.796 369.106 258.393 369.017C257.994 368.922 257.591 368.886 257.182 368.907C256.706 368.932 256.346 369.025 256.103 369.184C255.864 369.344 255.752 369.56 255.766 369.832C255.777 370.036 255.846 370.205 255.974 370.34C256.102 370.476 256.316 370.606 256.617 370.732C256.922 370.858 257.345 371.011 257.885 371.193C258.413 371.365 258.872 371.551 259.26 371.751C259.654 371.945 259.961 372.194 260.181 372.498C260.402 372.801 260.525 373.201 260.551 373.699ZM264.648 367.256L265.104 375.948L263.259 376.045L262.803 367.353L264.648 367.256ZM263.563 363.975C263.846 363.96 264.093 364.023 264.305 364.164C264.523 364.305 264.641 364.561 264.66 364.933C264.68 365.299 264.589 365.567 264.388 365.735C264.191 365.897 263.952 365.986 263.669 366.001C263.376 366.016 263.123 365.953 262.911 365.812C262.704 365.665 262.591 365.409 262.572 365.042C262.552 364.671 262.638 364.404 262.829 364.242C263.025 364.079 263.27 363.99 263.563 363.975ZM271.843 375.752C271.021 375.795 270.301 375.673 269.682 375.385C269.064 375.098 268.575 374.632 268.216 373.99C267.856 373.347 267.65 372.518 267.597 371.503C267.542 370.445 267.674 369.572 267.995 368.884C268.316 368.195 268.782 367.675 269.394 367.322C270.01 366.97 270.727 366.772 271.543 366.73C272.062 366.702 272.533 366.73 272.957 366.813C273.386 366.89 273.751 366.994 274.052 367.126L273.58 368.63C273.254 368.516 272.921 368.424 272.581 368.352C272.241 368.281 271.917 368.253 271.608 368.269C271.101 368.296 270.682 368.431 270.354 368.674C270.031 368.916 269.797 369.264 269.653 369.718C269.514 370.172 269.462 370.728 269.496 371.388C269.53 372.026 269.642 372.561 269.832 372.992C270.023 373.418 270.289 373.734 270.63 373.942C270.971 374.145 271.383 374.233 271.864 374.208C272.341 374.183 272.764 374.103 273.135 373.968C273.506 373.833 273.854 373.666 274.18 373.465L274.264 375.066C273.944 375.272 273.598 375.429 273.225 375.538C272.853 375.652 272.393 375.724 271.843 375.752Z" fill="black"/>
<path d="M68.0794 368.362C69.1777 367.736 70.5071 367.667 71.6648 368.174L80.2618 371.942C80.9268 372.233 81.3687 372.877 81.4018 373.602L81.7041 380.217L82.0945 386.821C82.1376 387.549 81.7617 388.238 81.1261 388.596L72.9583 393.195C71.8691 393.808 70.5557 393.877 69.4083 393.381L60.8046 389.661C60.1351 389.371 59.6892 388.725 59.6559 387.997L59.3539 381.388L58.9631 374.778C58.9203 374.053 59.2925 373.367 59.9234 373.008L68.0794 368.362Z" fill="#7013CE"/>
<mask id="mask0_90_6713" style="mask-type:alpha" maskUnits="userSpaceOnUse" x="62" y="373" width="17" height="15">
<path fill-rule="evenodd" clip-rule="evenodd" d="M65.2326 374.669C64.7758 374.48 64.2573 374.513 63.8278 374.758L63.538 374.923C63.0122 375.222 62.7003 375.793 62.732 376.397L63.2221 385.75C63.2537 386.353 63.6215 386.886 64.1734 387.13L64.473 387.263C64.9372 387.468 65.4712 387.441 65.9123 387.19L70.3052 384.689C70.5689 384.539 70.888 384.522 71.1659 384.644L75.7962 386.672C76.2611 386.876 76.795 386.847 77.2353 386.594L77.5194 386.431C78.0427 386.131 78.3527 385.561 78.3212 384.959L77.8312 375.611C77.7994 375.004 77.4269 374.467 76.8695 374.226L76.5444 374.085C76.095 373.89 75.5812 373.911 75.1497 374.143L70.6838 376.544C70.4298 376.68 70.1281 376.696 69.8617 376.585L65.2326 374.669ZM75.9619 384.894C76.18 384.988 76.4213 384.82 76.4089 384.583L75.9693 376.195C75.9568 375.956 75.6972 375.815 75.4902 375.934L71.625 378.152C70.8738 378.583 69.9622 378.631 69.1701 378.281L65.0843 376.474C64.866 376.378 64.6226 376.546 64.6351 376.784L65.0747 385.172C65.0872 385.41 65.3459 385.552 65.553 385.434L69.4055 383.238C70.1492 382.815 71.049 382.765 71.8345 383.106L75.9619 384.894Z" fill="#00D1FF"/>
</mask>
<g mask="url(#mask0_90_6713)">
<path d="M64.8105 374.33L62.6807 375.419L63.2939 387.12L65.4237 386.03L64.8105 374.33Z" fill="white"/>
<path d="M75.5469 373.767L77.779 374.628L78.3922 386.328L76.1602 385.47L75.5469 373.767Z" fill="white"/>
<g filter="url(#filter0_f_90_6713)">
<path d="M62.5614 386.77L70.5775 382.372L79.2199 386.042L76.674 388.019L70.7474 385.613L65.0141 388.63L62.5614 386.77Z" fill="white"/>
</g>
<g filter="url(#filter1_f_90_6713)">
<path d="M61.9097 375.161L64.1086 373.784L70.2809 376.735L76.1879 373.151L78.7284 374.279L70.4064 379.13L61.9097 375.161Z" fill="#15B7FC"/>
</g>
</g>
<path d="M98.5821 378.912C98.6307 379.839 98.6009 380.672 98.4927 381.413C98.3895 382.148 98.1968 382.777 97.9146 383.301C97.6323 383.825 97.2496 384.233 96.7663 384.526C96.283 384.819 95.6881 384.985 94.9814 385.022C94.0968 385.068 93.3544 384.873 92.7541 384.438C92.1537 383.997 91.6917 383.344 91.3681 382.479C91.0444 381.609 90.8501 380.556 90.7854 379.321C90.7206 378.085 90.7908 377.021 90.996 376.129C91.2061 375.231 91.5841 374.531 92.13 374.03C92.6759 373.529 93.4199 373.254 94.3621 373.205C95.252 373.158 95.9971 373.355 96.5976 373.796C97.2031 374.232 97.6677 374.884 97.9915 375.754C98.3202 376.619 98.5171 377.672 98.5821 378.912ZM92.6462 379.223C92.697 380.192 92.8022 380.997 92.9618 381.64C93.1267 382.282 93.3668 382.757 93.6822 383.066C93.9973 383.37 94.4035 383.509 94.9007 383.483C95.398 383.457 95.7875 383.276 96.0691 382.941C96.3507 382.606 96.54 382.111 96.6368 381.455C96.7389 380.799 96.7644 379.984 96.7134 379.01C96.6629 378.047 96.5553 377.244 96.3904 376.602C96.2255 375.96 95.9854 375.484 95.67 375.175C95.3543 374.861 94.9453 374.717 94.4428 374.744C93.9402 374.77 93.5484 374.956 93.2674 375.301C92.9912 375.641 92.8048 376.139 92.7079 376.795C92.6163 377.451 92.5957 378.26 92.6462 379.223ZM101.174 383.563C101.152 383.134 101.246 382.827 101.457 382.643C101.672 382.453 101.94 382.35 102.259 382.333C102.578 382.317 102.855 382.391 103.09 382.557C103.329 382.718 103.46 383.013 103.483 383.442C103.504 383.861 103.405 384.171 103.185 384.371C102.969 384.566 102.702 384.672 102.383 384.689C102.063 384.706 101.786 384.628 101.552 384.457C101.322 384.28 101.196 383.982 101.174 383.563ZM113.363 378.137C113.412 379.064 113.382 379.897 113.274 380.638C113.17 381.373 112.978 382.002 112.696 382.526C112.413 383.05 112.031 383.459 111.547 383.752C111.064 384.045 110.469 384.21 109.762 384.247C108.878 384.293 108.135 384.099 107.535 383.663C106.935 383.222 106.473 382.569 106.149 381.704C105.825 380.834 105.631 379.781 105.566 378.546C105.502 377.311 105.572 376.247 105.777 375.354C105.987 374.456 106.365 373.757 106.911 373.256C107.457 372.755 108.201 372.479 109.143 372.43C110.033 372.383 110.778 372.581 111.379 373.021C111.984 373.457 112.449 374.11 112.772 374.98C113.101 375.844 113.298 376.897 113.363 378.137ZM107.427 378.449C107.478 379.417 107.583 380.222 107.743 380.865C107.908 381.507 108.148 381.983 108.463 382.292C108.778 382.595 109.184 382.734 109.682 382.708C110.179 382.682 110.568 382.501 110.85 382.166C111.132 381.832 111.321 381.336 111.418 380.68C111.52 380.024 111.545 379.209 111.494 378.235C111.444 377.272 111.336 376.47 111.171 375.827C111.006 375.185 110.766 374.71 110.451 374.401C110.135 374.087 109.726 373.943 109.224 373.969C108.721 373.995 108.329 374.181 108.048 374.527C107.772 374.867 107.586 375.364 107.489 376.02C107.397 376.676 107.377 377.485 107.427 378.449ZM116.988 383.711L120.978 373.613L115.018 373.925L114.933 372.308L122.879 371.891L122.946 373.155L118.974 383.607L116.988 383.711ZM128.723 371.428C129.387 371.393 129.992 371.466 130.537 371.647C131.082 371.824 131.522 372.108 131.857 372.499C132.193 372.891 132.376 373.388 132.408 373.99C132.432 374.456 132.357 374.867 132.181 375.222C132.011 375.578 131.77 375.895 131.459 376.173C131.148 376.447 130.796 376.694 130.404 376.914C130.865 377.11 131.292 377.342 131.684 377.61C132.081 377.873 132.405 378.189 132.655 378.559C132.911 378.929 133.052 379.371 133.079 379.883C133.113 380.527 132.977 381.093 132.672 381.582C132.372 382.065 131.938 382.45 131.37 382.737C130.802 383.018 130.131 383.179 129.356 383.22C128.524 383.264 127.808 383.178 127.209 382.963C126.61 382.747 126.147 382.42 125.819 381.98C125.492 381.536 125.311 380.994 125.278 380.355C125.25 379.827 125.33 379.363 125.52 378.965C125.709 378.566 125.971 378.217 126.307 377.916C126.648 377.614 127.026 377.356 127.44 377.14C127.067 376.944 126.725 376.721 126.412 376.469C126.1 376.213 125.845 375.914 125.649 375.573C125.457 375.226 125.35 374.819 125.325 374.353C125.294 373.757 125.427 373.248 125.726 372.829C126.023 372.404 126.434 372.072 126.957 371.835C127.485 371.597 128.074 371.462 128.723 371.428ZM127.033 380.192C127.059 380.695 127.259 381.099 127.632 381.405C128.004 381.711 128.544 381.845 129.251 381.808C129.952 381.772 130.478 381.584 130.828 381.245C131.177 380.907 131.338 380.476 131.311 379.953C131.293 379.618 131.184 379.327 130.982 379.08C130.785 378.833 130.525 378.619 130.2 378.436C129.881 378.248 129.528 378.078 129.142 377.925L128.885 377.836C128.486 378.03 128.146 378.245 127.864 378.48C127.582 378.71 127.367 378.965 127.219 379.246C127.076 379.526 127.014 379.842 127.033 380.192ZM128.781 372.85C128.274 372.876 127.862 373.024 127.545 373.292C127.233 373.555 127.09 373.92 127.114 374.386C127.131 374.715 127.225 374.994 127.394 375.221C127.569 375.448 127.797 375.641 128.078 375.8C128.359 375.953 128.668 376.094 129.005 376.223C129.317 376.065 129.597 375.896 129.845 375.715C130.098 375.528 130.294 375.313 130.433 375.07C130.578 374.821 130.641 374.529 130.623 374.194C130.599 373.733 130.416 373.388 130.073 373.16C129.735 372.926 129.305 372.822 128.781 372.85ZM149.006 370.522L146.608 382.158L144.551 382.266L142.275 375.489C142.219 375.323 142.156 375.127 142.087 374.9C142.017 374.673 141.947 374.44 141.877 374.202C141.812 373.964 141.753 373.747 141.701 373.55C141.654 373.348 141.619 373.192 141.598 373.083C141.593 373.194 141.578 373.349 141.551 373.55C141.525 373.751 141.492 373.973 141.452 374.217C141.418 374.455 141.378 374.693 141.332 374.932C141.287 375.165 141.245 375.372 141.207 375.552L139.683 382.521L137.634 382.629L134.041 371.306L135.933 371.207L137.942 377.849C138.006 378.061 138.07 378.291 138.136 378.54C138.206 378.783 138.272 379.029 138.332 379.278C138.398 379.526 138.458 379.77 138.512 380.008C138.566 380.242 138.612 380.454 138.648 380.647C138.664 380.446 138.686 380.225 138.715 379.982C138.744 379.734 138.776 379.483 138.81 379.229C138.849 378.97 138.888 378.721 138.928 378.483C138.973 378.244 139.02 378.029 139.068 377.838L140.581 370.964L142.418 370.867L144.683 377.567C144.751 377.758 144.817 377.972 144.882 378.21C144.952 378.448 145.02 378.691 145.085 378.939C145.151 379.188 145.211 379.429 145.265 379.662C145.319 379.895 145.364 380.106 145.4 380.293C145.424 380.034 145.455 379.739 145.496 379.406C145.536 379.073 145.584 378.735 145.639 378.391C145.695 378.047 145.752 377.729 145.81 377.437L147.106 370.622L149.006 370.522ZM154.441 370.237C155.431 370.185 156.254 370.263 156.91 370.47C157.572 370.677 158.073 371.018 158.412 371.493C158.758 371.969 158.95 372.586 158.99 373.345C159.019 373.91 158.94 374.397 158.751 374.806C158.563 375.215 158.305 375.559 157.979 375.839C157.652 376.118 157.299 376.347 156.92 376.524L160.445 381.433L158.317 381.545L155.304 377.089L153.459 377.186L153.7 381.787L151.816 381.885L151.214 370.406L154.441 370.237ZM154.398 371.814L153.181 371.878L153.378 375.631L154.681 375.563C155.555 375.517 156.18 375.321 156.556 374.976C156.937 374.631 157.11 374.142 157.077 373.508C157.042 372.843 156.806 372.383 156.367 372.128C155.934 371.873 155.278 371.768 154.398 371.814ZM171.683 374.979C171.75 376.272 171.566 377.365 171.13 378.259C170.694 379.148 170.029 379.837 169.136 380.324C168.243 380.807 167.15 381.082 165.857 381.15L162.669 381.317L162.067 369.837L165.601 369.652C166.789 369.59 167.826 369.751 168.712 370.135C169.598 370.514 170.299 371.109 170.814 371.922C171.328 372.73 171.618 373.749 171.683 374.979ZM169.722 375.137C169.673 374.194 169.483 373.427 169.153 372.836C168.828 372.244 168.37 371.817 167.779 371.554C167.193 371.285 166.481 371.173 165.643 371.217L164.034 371.301L164.471 379.64L165.806 379.57C167.193 379.497 168.211 379.089 168.859 378.347C169.508 377.604 169.796 376.534 169.722 375.137Z" fill="black"/>
<path fill-rule="evenodd" clip-rule="evenodd" d="M45.9147 13.8813L254.826 2.93277C267.376 2.27502 279.041 6.5887 287.725 14.0698C296.409 21.551 302.113 32.2089 302.743 44.221L329.252 550.048C329.882 562.069 325.322 573.256 317.468 581.604C309.614 589.952 298.464 595.461 285.913 596.119L77.0022 607.067C64.4517 607.725 52.7874 603.411 44.1034 595.93C35.4198 588.458 29.716 577.81 29.086 565.788L2.57674 59.9614C1.94673 47.94 6.5062 36.7535 14.3607 28.4056C22.2049 20.0489 33.3544 14.5396 45.9147 13.8813ZM79.3725 24.5201C75.4747 24.7243 46.5623 26.2396 46.5623 26.2396C37.5698 26.7109 29.5831 30.666 23.9475 36.6556C18.312 42.6451 15.0374 50.6686 15.4884 59.2754L41.9977 565.102C42.4488 573.709 46.5441 581.346 52.7749 586.714C59.0056 592.082 67.3718 595.18 76.3546 594.709L285.266 583.76C294.258 583.289 302.255 579.333 307.89 573.344C313.526 567.354 316.801 559.331 316.35 550.724L289.841 44.9066C289.39 36.2998 285.294 28.6626 279.064 23.2949C272.833 17.9272 264.467 14.8291 255.474 15.3004C255.474 15.3004 226.535 16.817 222.664 17.0199C218.793 17.2227 218.992 21.0129 218.992 21.0129C219.305 26.9854 212.659 33.5288 204.136 33.9755L99.5718 39.4555C91.0484 39.9022 83.7554 34.0892 83.4424 28.1168C83.4424 28.1168 83.2704 24.3158 79.3725 24.5201Z" fill="#232125"/>
<rect x="61.9537" y="467.452" width="227.26" height="41.4708" rx="20.7354" transform="rotate(-3 61.9537 467.452)" fill="white" stroke="url(#paint0_linear_90_6713)" stroke-width="1.65883"/>
<rect x="59.1764" y="414.442" width="227.26" height="41.4708" rx="20.7354" transform="rotate(-3 59.1764 414.442)" fill="white" stroke="url(#paint1_linear_90_6713)" stroke-width="1.65883"/>
<rect x="63.8613" y="519.677" width="228.919" height="43.1297" rx="21.5648" transform="rotate(-3 63.8613 519.677)" fill="#851EEC"/>
<path d="M164.325 427.811L161.979 427.934L162.403 436.03L160.353 436.137L159.928 428.041L158.349 428.124L158.298 427.138L159.845 426.453L159.81 425.782C159.767 424.962 159.861 424.303 160.091 423.807C160.328 423.311 160.682 422.945 161.154 422.711C161.631 422.47 162.207 422.332 162.882 422.296C163.324 422.273 163.73 422.29 164.1 422.346C164.47 422.397 164.783 422.462 165.038 422.542L164.587 424.123C164.386 424.069 164.162 424.023 163.915 423.983C163.668 423.938 163.404 423.922 163.125 423.937C162.66 423.961 162.324 424.125 162.119 424.427C161.919 424.729 161.833 425.159 161.863 425.718L161.897 426.372L164.244 426.249L164.325 427.811ZM167.934 426.056L168.44 435.713L166.39 435.821L165.884 426.163L167.934 426.056ZM166.728 422.41C167.042 422.393 167.317 422.463 167.553 422.62C167.794 422.777 167.926 423.061 167.947 423.474C167.969 423.881 167.868 424.178 167.644 424.365C167.426 424.546 167.16 424.644 166.846 424.661C166.52 424.678 166.24 424.608 166.004 424.451C165.774 424.288 165.648 424.003 165.627 423.596C165.605 423.183 165.7 422.886 165.913 422.706C166.131 422.526 166.402 422.427 166.728 422.41ZM177.718 432.463C177.751 433.097 177.625 433.64 177.339 434.092C177.054 434.545 176.621 434.9 176.039 435.158C175.463 435.409 174.748 435.558 173.893 435.603C173.218 435.638 172.634 435.619 172.14 435.546C171.653 435.478 171.189 435.356 170.748 435.181L170.655 433.41C171.126 433.601 171.65 433.761 172.229 433.888C172.813 434.015 173.36 434.065 173.872 434.038C174.547 434.002 175.027 433.872 175.313 433.647C175.598 433.417 175.731 433.124 175.713 432.769C175.702 432.56 175.631 432.377 175.5 432.22C175.375 432.058 175.145 431.898 174.81 431.74C174.481 431.577 173.999 431.386 173.363 431.169C172.74 430.956 172.212 430.739 171.781 430.517C171.349 430.295 171.017 430.017 170.784 429.686C170.55 429.348 170.419 428.909 170.391 428.368C170.346 427.513 170.649 426.847 171.301 426.369C171.958 425.886 172.845 425.615 173.961 425.556C174.555 425.525 175.116 425.557 175.646 425.652C176.181 425.74 176.708 425.885 177.226 426.085L176.661 427.663C176.215 427.494 175.768 427.36 175.319 427.261C174.876 427.156 174.428 427.115 173.974 427.139C173.445 427.167 173.045 427.269 172.775 427.447C172.51 427.624 172.385 427.864 172.401 428.166C172.413 428.393 172.49 428.581 172.632 428.731C172.774 428.881 173.012 429.026 173.346 429.166C173.686 429.306 174.155 429.477 174.755 429.679C175.342 429.869 175.852 430.076 176.283 430.298C176.72 430.515 177.061 430.791 177.307 431.128C177.552 431.465 177.689 431.91 177.718 432.463ZM181.417 421.421L181.596 424.832C181.614 425.187 181.621 425.534 181.615 425.872C181.615 426.211 181.609 426.473 181.595 426.661L181.709 426.655C181.894 426.307 182.13 426.017 182.415 425.787C182.7 425.55 183.023 425.367 183.384 425.237C183.75 425.107 184.143 425.031 184.562 425.009C185.3 424.971 185.935 425.063 186.466 425.286C186.996 425.503 187.412 425.863 187.712 426.366C188.018 426.869 188.193 427.534 188.237 428.36L188.567 434.659L186.516 434.766L186.206 428.851C186.167 428.101 185.984 427.548 185.656 427.192C185.328 426.83 184.841 426.666 184.195 426.699C183.573 426.732 183.086 426.889 182.733 427.17C182.386 427.445 182.147 427.839 182.016 428.353C181.885 428.862 181.839 429.477 181.877 430.198L182.128 434.996L180.078 435.103L179.367 421.529L181.417 421.421Z" fill="black"/>
<path d="M165.93 488.648C164.778 488.709 163.832 488.338 163.09 487.537C162.353 486.73 161.942 485.507 161.856 483.867C161.769 482.209 162.056 480.937 162.715 480.051C163.38 479.165 164.291 478.691 165.449 478.631C165.937 478.605 166.368 478.65 166.742 478.764C167.115 478.873 167.438 479.031 167.711 479.238C167.99 479.445 168.23 479.68 168.43 479.944L168.526 479.939C168.488 479.76 168.439 479.503 168.381 479.168C168.328 478.827 168.294 478.511 168.279 478.22L168.097 474.748L170.156 474.64L170.867 488.215L169.262 488.299L168.827 487.001L168.739 487.005C168.579 487.293 168.372 487.558 168.116 487.799C167.866 488.034 167.561 488.227 167.202 488.38C166.848 488.533 166.424 488.622 165.93 488.648ZM166.418 486.952C167.297 486.906 167.903 486.62 168.237 486.095C168.571 485.57 168.717 484.802 168.676 483.789L168.662 483.519C168.605 482.437 168.387 481.617 168.008 481.06C167.628 480.496 166.976 480.239 166.052 480.287C165.313 480.326 164.764 480.655 164.406 481.275C164.053 481.888 163.905 482.727 163.961 483.791C164.016 484.856 164.251 485.66 164.664 486.204C165.083 486.742 165.668 486.991 166.418 486.952ZM182.103 482.762C182.145 483.564 182.077 484.282 181.901 484.916C181.724 485.549 181.446 486.091 181.067 486.543C180.688 486.988 180.223 487.339 179.67 487.596C179.118 487.846 178.487 487.99 177.777 488.027C177.114 488.062 176.501 487.983 175.936 487.791C175.372 487.594 174.875 487.293 174.446 486.89C174.022 486.48 173.683 485.97 173.43 485.36C173.176 484.749 173.028 484.042 172.986 483.24C172.93 482.175 173.066 481.264 173.394 480.506C173.727 479.742 174.227 479.147 174.893 478.722C175.558 478.296 176.365 478.059 177.313 478.009C178.203 477.962 178.999 478.116 179.7 478.47C180.4 478.824 180.962 479.363 181.385 480.087C181.808 480.812 182.047 481.703 182.103 482.762ZM175.097 483.129C175.134 483.833 175.25 484.43 175.445 484.922C175.646 485.413 175.933 485.782 176.308 486.031C176.682 486.274 177.154 486.38 177.724 486.35C178.294 486.321 178.753 486.165 179.1 485.885C179.446 485.598 179.691 485.201 179.833 484.692C179.976 484.183 180.028 483.576 179.991 482.872C179.955 482.169 179.839 481.577 179.645 481.097C179.45 480.612 179.166 480.25 178.792 480.013C178.418 479.771 177.943 479.664 177.367 479.694C176.518 479.739 175.913 480.056 175.553 480.647C175.193 481.237 175.041 482.065 175.097 483.129ZM187.694 491.637C186.386 491.705 185.37 491.522 184.647 491.088C183.925 490.653 183.541 490.011 183.497 489.162C183.466 488.569 183.625 488.056 183.976 487.624C184.327 487.197 184.844 486.887 185.528 486.694C185.26 486.591 185.024 486.423 184.819 486.189C184.62 485.948 184.513 485.677 184.497 485.374C184.478 485.014 184.563 484.7 184.754 484.434C184.944 484.167 185.236 483.904 185.631 483.644C185.113 483.455 184.688 483.128 184.354 482.661C184.026 482.189 183.845 481.624 183.811 480.966C183.774 480.268 183.891 479.667 184.162 479.163C184.433 478.653 184.847 478.256 185.403 477.97C185.96 477.678 186.642 477.511 187.45 477.469C187.625 477.46 187.814 477.461 188.019 477.474C188.23 477.48 188.423 477.494 188.599 477.514C188.78 477.527 188.918 477.546 189.013 477.571L192.354 477.396L192.414 478.538L190.79 478.93C190.959 479.142 191.097 479.389 191.205 479.669C191.313 479.943 191.375 480.246 191.392 480.578C191.445 481.578 191.14 482.384 190.478 482.996C189.822 483.602 188.889 483.937 187.679 484C187.388 484.004 187.104 483.996 186.829 483.975C186.626 484.114 186.474 484.265 186.372 484.428C186.269 484.585 186.223 484.759 186.233 484.951C186.241 485.108 186.303 485.233 186.419 485.326C186.534 485.413 186.701 485.475 186.918 485.51C187.142 485.545 187.41 485.554 187.725 485.538L189.391 485.45C190.449 485.395 191.27 485.576 191.851 485.995C192.433 486.414 192.747 487.056 192.792 487.923C192.85 489.022 192.441 489.892 191.564 490.533C190.688 491.179 189.398 491.547 187.694 491.637ZM187.697 490.193C188.413 490.156 189.011 490.054 189.492 489.889C189.973 489.724 190.332 489.504 190.569 489.229C190.805 488.96 190.914 488.648 190.896 488.293C190.879 487.979 190.788 487.742 190.622 487.582C190.456 487.421 190.215 487.317 189.897 487.27C189.58 487.222 189.189 487.211 188.723 487.235L187.205 487.315C186.827 487.334 186.496 487.41 186.211 487.542C185.927 487.679 185.709 487.865 185.558 488.101C185.413 488.336 185.349 488.613 185.366 488.933C185.389 489.375 185.601 489.705 186.004 489.923C186.412 490.141 186.976 490.231 187.697 490.193ZM187.705 482.652C188.304 482.62 188.74 482.434 189.014 482.093C189.287 481.747 189.408 481.274 189.377 480.675C189.343 480.023 189.166 479.543 188.846 479.233C188.533 478.923 188.082 478.783 187.495 478.814C186.919 478.844 186.488 479.033 186.203 479.38C185.924 479.727 185.802 480.226 185.836 480.878C185.866 481.465 186.039 481.917 186.353 482.233C186.672 482.543 187.123 482.682 187.705 482.652Z" fill="black"/>
<path d="M166.47 541.775C165.557 541.823 164.756 541.687 164.069 541.368C163.381 541.048 162.838 540.531 162.439 539.817C162.04 539.103 161.811 538.182 161.752 537.054C161.69 535.879 161.838 534.909 162.194 534.144C162.551 533.378 163.069 532.8 163.748 532.409C164.433 532.017 165.229 531.798 166.137 531.75C166.712 531.72 167.236 531.751 167.707 531.843C168.184 531.928 168.59 532.044 168.924 532.19L168.399 533.862C168.037 533.735 167.667 533.632 167.29 533.553C166.912 533.474 166.552 533.443 166.209 533.461C165.645 533.49 165.18 533.64 164.815 533.91C164.456 534.18 164.196 534.567 164.036 535.071C163.882 535.574 163.824 536.193 163.862 536.926C163.899 537.635 164.024 538.229 164.236 538.708C164.447 539.181 164.742 539.533 165.122 539.764C165.501 539.989 165.958 540.088 166.493 540.06C167.023 540.032 167.493 539.943 167.905 539.793C168.317 539.643 168.704 539.457 169.066 539.234L169.159 541.013C168.804 541.242 168.419 541.417 168.006 541.537C167.592 541.664 167.08 541.743 166.47 541.775ZM179.746 536.041C179.788 536.843 179.721 537.561 179.544 538.195C179.367 538.828 179.09 539.37 178.711 539.822C178.332 540.267 177.866 540.618 177.314 540.875C176.761 541.125 176.13 541.269 175.421 541.306C174.758 541.341 174.144 541.262 173.58 541.07C173.015 540.872 172.519 540.572 172.089 540.169C171.665 539.759 171.327 539.249 171.073 538.639C170.819 538.028 170.671 537.321 170.629 536.519C170.574 535.454 170.71 534.543 171.037 533.785C171.371 533.021 171.87 532.426 172.536 532.001C173.202 531.575 174.009 531.337 174.957 531.288C175.847 531.241 176.642 531.395 177.343 531.749C178.044 532.103 178.606 532.642 179.029 533.366C179.452 534.091 179.691 534.982 179.746 536.041ZM172.741 536.408C172.778 537.112 172.893 537.709 173.088 538.2C173.289 538.692 173.577 539.061 173.951 539.31C174.326 539.553 174.798 539.659 175.368 539.629C175.938 539.6 176.396 539.444 176.743 539.164C177.09 538.877 177.334 538.48 177.477 537.971C177.619 537.461 177.672 536.855 177.635 536.151C177.598 535.448 177.482 534.856 177.288 534.376C177.094 533.891 176.809 533.529 176.435 533.292C176.061 533.05 175.586 532.943 175.01 532.973C174.161 533.018 173.557 533.335 173.197 533.926C172.837 534.516 172.685 535.344 172.741 536.408ZM190.251 540.345L188.794 535.916C188.724 535.699 188.64 535.435 188.542 535.125C188.445 534.815 188.346 534.496 188.247 534.169C188.148 533.836 188.056 533.529 187.972 533.248C187.893 532.966 187.832 532.748 187.789 532.592L187.719 532.596C187.698 532.755 187.663 532.978 187.614 533.266C187.565 533.555 187.509 533.87 187.445 534.211C187.381 534.553 187.317 534.886 187.252 535.21C187.193 535.534 187.138 535.811 187.086 536.041L186.037 540.566L183.786 540.684L180.576 531.168L182.652 531.059L184.16 535.792C184.258 536.113 184.355 536.461 184.451 536.835C184.552 537.209 184.64 537.566 184.717 537.906C184.793 538.246 184.851 538.526 184.892 538.745L184.962 538.742C184.977 538.583 184.998 538.384 185.026 538.143C185.054 537.897 185.088 537.642 185.126 537.377C185.165 537.107 185.204 536.854 185.244 536.619C185.284 536.377 185.323 536.183 185.362 536.035L186.578 530.854L188.82 530.736L190.509 535.765C190.585 535.983 190.669 536.258 190.763 536.592C190.856 536.919 190.94 537.25 191.016 537.585C191.097 537.913 191.152 538.187 191.181 538.407L191.251 538.403C191.264 538.204 191.291 537.935 191.331 537.594C191.377 537.248 191.431 536.881 191.492 536.492C191.553 536.098 191.619 535.733 191.689 535.397L192.72 530.532L194.761 530.425L192.545 540.225L190.251 540.345Z" fill="white"/>
<defs>
<filter id="filter0_f_90_6713" x="62.0806" y="381.892" width="17.62" height="7.21857" filterUnits="userSpaceOnUse" color-interpolation-filters="sRGB">
<feFlood flood-opacity="0" result="BackgroundImageFix"/>
<feBlend mode="normal" in="SourceGraphic" in2="BackgroundImageFix" result="shape"/>
<feGaussianBlur stdDeviation="0.23996" result="effect1_foregroundBlur_90_6713"/>
</filter>
<filter id="filter1_f_90_6713" x="61.4302" y="372.671" width="17.7782" height="6.93897" filterUnits="userSpaceOnUse" color-interpolation-filters="sRGB">
<feFlood flood-opacity="0" result="BackgroundImageFix"/>
<feBlend mode="normal" in="SourceGraphic" in2="BackgroundImageFix" result="shape"/>
<feGaussianBlur stdDeviation="0.23996" result="effect1_foregroundBlur_90_6713"/>
</filter>
<linearGradient id="paint0_linear_90_6713" x1="11.0451" y1="466.667" x2="417.049" y2="589.901" gradientUnits="userSpaceOnUse">
<stop stop-color="#5D5AFF"/>
<stop offset="0.794052" stop-color="#EC4EFF"/>
</linearGradient>
<linearGradient id="paint1_linear_90_6713" x1="8.26775" y1="413.657" x2="414.272" y2="536.891" gradientUnits="userSpaceOnUse">
<stop stop-color="#5D5AFF"/>
<stop offset="0.794052" stop-color="#EC4EFF"/>
</linearGradient>
</defs>
</svg>
