<svg width="105" height="105" viewBox="0 0 105 105" fill="none" xmlns="http://www.w3.org/2000/svg">
<g clip-path="url(#clip0_90_6759)">
<circle cx="41.5" cy="52.5" r="37" stroke="#EBFF00" stroke-width="9"/>
<path d="M112.83 55.8194C113.398 55.4213 113.398 54.579 112.83 54.1809L75.9847 28.3921C75.647 28.1557 75.1987 28.1508 74.8559 28.3798L36.245 54.1686C35.6523 54.5645 35.6523 55.4358 36.245 55.8317L74.8559 81.6202C75.1987 81.8492 75.6469 81.8443 75.9847 81.6079L112.83 55.8194Z" fill="#1C1C1C"/>
<path d="M103.82 55.821C104.392 55.4232 104.392 54.577 103.82 54.1791L79.6781 37.388C79.3414 37.1538 78.8958 37.149 78.5541 37.3758L53.2553 54.1669C52.6593 54.5625 52.6593 55.4377 53.2553 55.8333L78.5541 72.6242C78.8958 72.851 79.3414 72.8462 79.6781 72.612L103.82 55.821Z" fill="white"/>
</g>
<defs>
<clipPath id="clip0_90_6759">
<rect width="105" height="105" fill="white"/>
</clipPath>
</defs>
</svg>
