<svg width="192" height="66" viewBox="0 0 192 66" fill="none" xmlns="http://www.w3.org/2000/svg">
<path d="M74.3055 29.1341C75.8936 29.1341 77.339 29.5249 78.6417 30.3065C79.9569 31.0882 80.9866 32.1676 81.7311 33.5447C82.4755 34.9219 82.8477 36.4603 82.8477 38.1601C82.8477 39.835 82.4755 41.3611 81.7311 42.7382C80.9991 44.1154 79.9755 45.1948 78.6604 45.9764C77.37 46.7705 75.9184 47.1675 74.3055 47.1675C71.8241 47.1675 69.9383 46.1936 68.648 44.2457V54.4069H65.2051V30.7159L68.648 29.2271V32.0559C69.2931 31.1006 70.0934 30.3748 71.0487 29.8785C72.004 29.3822 73.0897 29.1341 74.3055 29.1341ZM74.0264 32.3723C72.9842 32.3723 72.0475 32.6204 71.2162 33.1167C70.3974 33.613 69.7522 34.3015 69.2807 35.1824C68.8093 36.0633 68.5735 37.0559 68.5735 38.1601C68.5735 39.2643 68.8031 40.2568 69.2621 41.1377C69.7336 42.0186 70.3849 42.701 71.2162 43.1849C72.0475 43.6812 72.9842 43.9293 74.0264 43.9293C75.081 43.9293 76.0177 43.6874 76.8365 43.2035C77.6678 42.7072 78.3192 42.0186 78.7906 41.1377C79.2497 40.2693 79.4792 39.2767 79.4792 38.1601C79.4792 37.0559 79.2497 36.0633 78.7906 35.1824C78.3316 34.3015 77.6864 33.613 76.8551 33.1167C76.0239 32.6204 75.081 32.3723 74.0264 32.3723ZM88.6465 29.1713V46.8139H85.1106V30.6601L88.6465 29.1713ZM88.6465 24.9467V27.8872L85.1106 29.376V26.4356L88.6465 24.9467ZM104.493 33.8425C103.848 33.2718 103.191 32.8561 102.521 32.5956C101.851 32.3226 101.131 32.1862 100.362 32.1862C99.332 32.1862 98.4015 32.4405 97.5702 32.9492C96.7514 33.4579 96.1 34.1589 95.6161 35.0522C95.1447 35.9703 94.9089 36.9814 94.9089 38.0856C94.9089 39.1899 95.1447 40.1948 95.6161 41.1005C96.0876 41.9938 96.7389 42.701 97.5702 43.2221C98.4139 43.7308 99.3444 43.9851 100.362 43.9851C101.081 43.9851 101.801 43.8486 102.521 43.5757C103.24 43.3027 103.898 42.9057 104.493 42.3846V46.4045C103.29 46.9876 101.95 47.2792 100.473 47.2792C98.6992 47.2792 97.1112 46.8945 95.7092 46.1253C94.3196 45.3437 93.234 44.2519 92.4524 42.8499C91.6707 41.4603 91.2799 39.8722 91.2799 38.0856C91.2799 36.3115 91.6645 34.7234 92.4338 33.3214C93.2154 31.9194 94.3072 30.8276 95.7092 30.046C97.1112 29.2767 98.6992 28.8921 100.473 28.8921C101.95 28.8921 103.29 29.1837 104.493 29.7668V33.8425Z" fill="#16BCFD"/>
<path d="M123.64 29.2643L128.516 43.464L133.02 29.2643H136.723L130.824 46.9069H126.395L121.556 32.912L117.22 46.9069H112.865L106.724 29.2643H110.501L115.117 43.3896L119.453 29.2643H123.64ZM147.152 29.1713C148.864 29.1713 150.415 29.5559 151.804 30.3251C153.206 31.0944 154.304 32.1613 155.098 33.5261C155.892 34.8785 156.289 36.3983 156.289 38.0856C156.289 39.7482 155.892 41.2618 155.098 42.6266C154.304 43.9789 153.212 45.0459 151.823 45.8275C150.433 46.6092 148.876 47 147.152 47C145.44 47 143.889 46.6154 142.499 45.8462C141.11 45.0769 140.018 44.0099 139.224 42.6452C138.43 41.2928 138.033 39.773 138.033 38.0856C138.033 36.4107 138.423 34.8971 139.205 33.5447C139.999 32.1924 141.097 31.1192 142.499 30.3251C143.889 29.5559 145.44 29.1713 147.152 29.1713ZM147.152 32.3537C146.097 32.3537 145.142 32.6018 144.286 33.0981C143.43 33.5943 142.76 34.2767 142.276 35.1452C141.792 36.0137 141.55 36.9938 141.55 38.0856C141.55 39.165 141.792 40.1452 142.276 41.0261C142.76 41.8946 143.43 42.5769 144.286 43.0732C145.117 43.5695 146.072 43.8176 147.152 43.8176C148.219 43.8176 149.18 43.5695 150.036 43.0732C150.892 42.5769 151.562 41.8946 152.046 41.0261C152.53 40.1452 152.772 39.165 152.772 38.0856C152.772 37.0062 152.53 36.0323 152.046 35.1638C151.562 34.2829 150.892 33.5943 150.036 33.0981C149.193 32.6018 148.231 32.3537 147.152 32.3537ZM169.438 33.0981C169.066 32.9244 168.626 32.7879 168.117 32.6886C167.621 32.5894 167.131 32.5398 166.647 32.5398C165.754 32.5398 164.972 32.7321 164.302 33.1167C163.644 33.5013 163.136 34.0596 162.776 34.7916C162.404 35.5112 162.218 36.3735 162.218 37.3784V47H158.7V30.6601L162.18 29.1713V32.0187C163.198 30.1452 164.984 29.2085 167.54 29.2085C168.297 29.2085 168.93 29.2705 169.438 29.3946V33.0981ZM178.324 29.0596C179.54 29.0596 180.626 29.314 181.581 29.8226C182.549 30.3189 183.355 31.0509 184 32.0187V22.211L187.443 20.7222V47H184V44.1526C183.368 45.1204 182.567 45.8524 181.6 46.3486C180.644 46.8449 179.553 47.0931 178.324 47.0931C176.736 47.0931 175.285 46.7022 173.969 45.9206C172.667 45.139 171.643 44.0534 170.899 42.6638C170.154 41.299 169.782 39.7668 169.782 38.067C169.782 36.3921 170.148 34.8661 170.88 33.4889C171.625 32.1117 172.654 31.0261 173.969 30.2321C175.272 29.4504 176.724 29.0596 178.324 29.0596ZM178.603 32.2978C177.561 32.2978 176.625 32.546 175.793 33.0422C174.974 33.5261 174.329 34.2085 173.858 35.0894C173.386 35.9703 173.151 36.9628 173.151 38.067C173.151 39.1837 173.38 40.1824 173.839 41.0633C174.311 41.9442 174.962 42.6266 175.793 43.1104C176.6 43.6067 177.536 43.8549 178.603 43.8549C179.646 43.8549 180.582 43.6129 181.414 43.129C182.257 42.6328 182.909 41.9442 183.368 41.0633C183.827 40.1948 184.056 39.1961 184.056 38.067C184.056 36.9628 183.821 35.9703 183.349 35.0894C182.89 34.2085 182.245 33.5199 181.414 33.0236C180.582 32.5398 179.646 32.2978 178.603 32.2978Z" fill="white"/>
<path d="M21.1066 10.6072C22.9055 9.70989 25.0215 9.70989 26.8203 10.6072L45.6722 20.0113C47.0539 20.7005 47.927 22.1118 47.927 23.6557V51.6602C47.927 53.2114 47.0457 54.628 45.6542 55.3136L26.792 64.6066C25.0087 65.4852 22.9183 65.4852 21.135 64.6066L2.27277 55.3136C0.881239 54.628 0 53.2114 0 51.6602V23.6558C0 22.1118 0.873098 20.7005 2.25473 20.0113L21.1066 10.6072Z" fill="white"/>
<mask id="mask0_66_6264" style="mask-type:alpha" maskUnits="userSpaceOnUse" x="7" y="24" width="34" height="28">
<path fill-rule="evenodd" clip-rule="evenodd" d="M12.9888 24.2692C12.2783 23.9328 11.4526 23.9413 10.7492 24.2924L9.27305 25.029C8.40438 25.4625 7.85547 26.3499 7.85547 27.3207V48.1585C7.85547 49.1265 8.40122 50.0119 9.26604 50.4467L10.738 51.187C11.4592 51.5496 12.3092 51.5511 13.0316 51.1909L23.2834 46.0792C23.7152 45.8639 24.223 45.8639 24.6548 46.0792L34.9067 51.1909C35.6291 51.5511 36.479 51.5496 37.2002 51.187L38.6722 50.4467C39.5371 50.0119 40.0828 49.1265 40.0828 48.1585V27.3279C40.0828 26.3533 39.5297 25.4632 38.6559 25.0316L37.139 24.2822C36.4406 23.9372 35.6231 23.9288 34.9178 24.2594L24.5424 29.1217C24.1273 29.3162 23.647 29.3153 23.2327 29.1191L12.9888 24.2692ZM35.3155 47.3773C35.6559 47.5453 36.0544 47.2976 36.0544 46.9179V28.5931C36.0544 28.2118 35.6527 27.9641 35.312 28.1354L25.9252 32.8557C24.6946 33.4745 23.2437 33.4745 22.013 32.8557L12.6057 28.1251C12.2651 27.9538 11.8633 28.2015 11.8633 28.5828L11.8633 46.9092C11.8633 47.2898 12.2637 47.5375 12.6043 47.3676L21.9534 42.702C23.1715 42.0941 24.6038 42.0909 25.8246 42.6934L35.3155 47.3773Z" fill="#00D1FF"/>
</mask>
<g mask="url(#mask0_66_6264)">
<path d="M12.5059 23.6851L7.85078 25.7522V50.558L12.5058 48.4908L12.5059 23.6851Z" fill="#2045A3"/>
<path d="M35.4238 23.6851L40.0789 25.7522V50.558L35.4238 48.4956V23.6851Z" fill="#2045A3"/>
<g filter="url(#filter0_f_66_6264)">
<path d="M6.33203 49.7373L23.8854 41.3267L41.8717 50.045L36.2319 53.9426L23.8854 48.1987L11.3452 53.9426L6.33203 49.7373Z" fill="#2045A3"/>
</g>
<path d="M6.24219 25.1209L11.0763 22.4541L23.8851 29.3775L36.8583 22.4541L42.14 25.1209L23.8851 34.4546L6.24219 25.1209Z" fill="#15BAFC"/>
</g>
<defs>
<filter id="filter0_f_66_6264" x="5.30753" y="40.3022" width="37.5881" height="14.6647" filterUnits="userSpaceOnUse" color-interpolation-filters="sRGB">
<feFlood flood-opacity="0" result="BackgroundImageFix"/>
<feBlend mode="normal" in="SourceGraphic" in2="BackgroundImageFix" result="shape"/>
<feGaussianBlur stdDeviation="0.512249" result="effect1_foregroundBlur_66_6264"/>
</filter>
</defs>
</svg>
