<svg width="146" height="42" viewBox="0 0 146 42" fill="none" xmlns="http://www.w3.org/2000/svg">
<g clip-path="url(#clip0_90_7197)">
<path d="M27.6252 22.5044C27.6962 25.9683 26.1702 28.7928 23.9344 31.2086C20.6695 34.7258 17.2981 38.1187 13.9977 41.5826C13.4654 42.1332 13.1105 42.151 12.5781 41.5648C10.2004 38.9891 8.53247 36.0581 7.80496 32.5942C7.66301 31.9547 7.32587 31.5461 6.70482 31.2264C2.57044 29.0947 0.139487 25.8262 0.0330216 21.0478C-0.0202109 18.7918 -0.162164 16.4826 1.11541 14.4931C2.03811 13.0542 3.08502 11.6864 4.23839 10.4252C7.25489 7.1034 10.3424 3.83489 13.4121 0.548628C14.1219 -0.197444 14.3171 -0.17968 15.0446 0.584155C17.4933 3.1954 19.179 6.17969 19.7645 9.75018C19.9065 10.5673 20.4565 10.9226 21.0953 11.2778C25.4604 13.7292 27.3945 17.6195 27.6252 22.5044ZM13.3411 36.0758C13.5718 35.9337 13.7315 35.8627 13.8557 35.7383C16.4109 33.0738 19.0015 30.4448 21.5035 27.7269C22.2132 26.9631 22.852 26.0216 23.1714 25.0446C24.3603 21.4031 23.3666 18.2412 20.6695 15.5944C19.9952 14.9194 19.7645 15.0082 19.3387 15.8786C18.6821 17.1931 18.0788 18.5609 17.2626 19.7688C16.2334 21.3143 14.9913 22.7176 13.8735 24.192C11.2828 27.5671 10.6263 31.1376 12.7201 35.01C12.8798 35.3475 13.1105 35.685 13.3411 36.0758ZM7.73399 27.2651C8.05338 26.5723 8.3018 26.0572 8.53247 25.5243C9.6681 22.8775 11.4603 20.6926 13.2524 18.4899C16.3576 14.6885 16.6948 11.1002 14.4235 6.908C13.9622 6.05535 13.8202 6.00205 13.1637 6.69484C10.8215 9.14621 8.47924 11.6154 6.19024 14.12C4.30936 16.1806 3.47539 18.5965 4.02546 21.4031C4.48681 23.7479 5.65792 25.6664 7.73399 27.2651Z" fill="white"/>
<path d="M43.0636 32.7009C40.331 32.7009 37.7759 32.1502 35.6998 30.214C34.5819 29.166 33.8899 27.887 33.606 26.3948C33.4286 25.4534 33.6415 25.1692 34.5642 25.1336C35.5046 25.0981 36.4628 25.0626 37.4033 25.1514C37.7759 25.1869 38.2905 25.4711 38.4147 25.7909C39.1599 27.7271 40.6504 28.4909 42.5668 28.562C43.525 28.5975 44.5187 28.4377 45.4236 28.1534C46.435 27.8337 47.0916 27.0699 47.1093 25.8975C47.1093 24.8672 46.6302 24.1566 45.4769 23.7125C44.8381 23.4638 44.1815 23.3217 43.5073 23.1619C42.07 22.8244 40.615 22.5579 39.1777 22.1849C35.9128 21.3322 34.0319 19.2894 33.9432 16.6071C33.8367 13.5517 35.6111 11.0826 38.7873 10.0878C42.0167 9.05756 45.2284 9.1819 48.2272 10.8694C50.0194 11.8642 51.1018 13.4807 51.5454 15.488C51.776 16.5538 51.5276 16.8558 50.463 16.8735C49.629 16.8913 48.8128 16.8558 47.9788 16.8735C47.3222 16.8913 46.9141 16.6071 46.7367 15.9676C46.3818 14.7241 45.4946 14.0669 44.288 13.7827C42.9217 13.4807 41.5731 13.4985 40.2778 14.0491C39.4438 14.4044 38.876 15.0084 38.876 16.0031C38.876 16.9801 39.4084 17.5841 40.2601 17.8328C41.8216 18.2769 43.4008 18.6854 44.98 19.0229C46.6302 19.3782 48.2804 19.7335 49.6822 20.746C52.7875 22.9842 52.9471 27.6561 50.0194 30.4449C48.4401 31.9548 46.4528 32.4878 44.359 32.7009C43.9509 32.7364 43.5073 32.7009 43.0636 32.7009Z" fill="white"/>
<path d="M102.167 31.0133C101.919 31.1554 101.671 31.262 101.44 31.4219C97.8911 33.8378 93.5083 32.8252 91.2548 29.1659C89.4804 26.2705 89.3739 19.9466 93.2421 17.2465C95.6553 15.559 98.1927 15.3103 100.854 16.5715C101.067 16.6781 101.262 16.7847 101.617 16.9623C101.688 16.5005 101.777 16.1452 101.777 15.7899C101.795 13.7471 101.777 11.7043 101.795 9.66149C101.795 8.54238 101.99 8.38251 103.09 8.36475C103.8 8.34698 104.51 8.38251 105.219 8.36475C106.036 8.34698 106.408 8.72002 106.391 9.53715C106.373 11.3135 106.391 13.0899 106.391 14.8662C106.391 20.1598 106.391 25.4533 106.391 30.7469C106.391 32.2568 106.266 32.3811 104.794 32.3811C104.652 32.3811 104.492 32.3811 104.35 32.3811C102.806 32.3811 102.806 32.3811 102.167 31.0133ZM101.919 24.2276C101.866 24.2276 101.83 24.2099 101.777 24.2099C101.777 23.8901 101.777 23.5526 101.777 23.2329C101.742 21.5986 100.943 20.4973 99.5235 20.1243C97.8733 19.6979 96.2764 20.2308 95.4956 21.5631C94.5374 23.2151 94.5374 24.9737 95.3004 26.679C95.8682 27.9402 96.9684 28.562 98.3702 28.5797C99.7187 28.5975 100.854 28.0468 101.404 26.8034C101.742 26.004 101.759 25.0803 101.919 24.2276Z" fill="white"/>
<path d="M82.4019 25.7908C80.8937 25.7908 79.3854 25.773 77.8772 25.7908C77.0077 25.7908 76.8835 26.0395 77.2561 26.8211C78.3208 29.1303 81.426 29.4856 82.952 27.4606C83.3601 26.9277 83.8037 26.6967 84.4425 26.7145C85.1523 26.75 85.8621 26.6967 86.5718 26.7323C87.459 26.7678 87.7429 27.1231 87.5123 27.9935C87.1219 29.5744 86.146 30.7113 84.7619 31.5284C81.4615 33.5002 76.7771 33.0206 74.2751 30.356C72.2878 28.2422 71.8442 25.6309 72.1991 22.842C72.9266 17.2465 78.3918 14.1201 83.5553 16.3583C85.8975 17.3708 87.3171 19.165 87.7429 21.6874C87.9026 22.6466 87.9204 23.6236 87.9914 24.6006C88.0446 25.4 87.6897 25.7908 86.838 25.773C85.3475 25.773 83.8747 25.7908 82.4019 25.7908ZM80.0952 22.2558C80.805 22.2736 81.5147 22.2736 82.2068 22.2736C83.1472 22.2558 83.3069 21.9894 82.8455 21.1367C82.2245 20.0176 81.2131 19.6623 80.0065 19.7512C78.7999 19.84 77.8772 20.3906 77.3271 21.492C77.0964 21.9538 77.2384 22.2558 77.7707 22.2558C78.5515 22.2558 79.3322 22.2558 80.0952 22.2558Z" fill="white"/>
<path d="M64.4433 25.7907C62.9705 25.7907 61.48 25.7907 60.0073 25.7907C59.0136 25.7907 58.9071 26.0039 59.3507 26.9099C60.4154 29.1303 63.5561 29.4678 65.0111 27.4961C65.4015 26.9631 65.8451 26.7145 66.5016 26.7322C67.1759 26.75 67.8679 26.7322 68.5422 26.7322C69.5359 26.75 69.7843 27.0875 69.5359 28.1C69.1278 29.7698 68.0631 30.96 66.5904 31.6883C63.5561 33.1804 60.4686 33.2515 57.5408 31.404C55.5357 30.1428 54.6485 28.1178 54.2404 25.8618C53.5129 21.7229 55.6245 17.6372 59.2443 16.2694C62.8286 14.9017 66.9452 16.1096 68.8439 19.1294C69.9795 20.9413 70.1569 22.9663 70.0327 25.0447C69.9972 25.6486 69.6069 25.8085 69.0568 25.8085C67.513 25.773 65.987 25.7907 64.4433 25.7907ZM62.1898 22.2558C62.9528 22.2558 63.7158 22.2558 64.4788 22.2558C65.1353 22.2558 65.295 21.9716 65.0466 21.3498C64.603 20.2663 63.6093 19.6801 62.1898 19.7334C60.9655 19.7689 59.6879 20.6038 59.3685 21.5275C59.191 22.0426 59.404 22.2558 59.9008 22.2558C60.6638 22.2558 61.4268 22.2558 62.1898 22.2558Z" fill="white"/>
<path d="M138.652 26.3948C138.882 25.7198 139.131 25.0448 139.326 24.352C140 22.025 140.657 19.6979 141.313 17.3531C141.544 16.536 141.97 16.0742 142.893 16.1274C143.549 16.163 144.188 16.1274 144.844 16.1274C146.193 16.1452 146.37 16.3939 145.945 17.6551C144.986 20.5684 144.081 23.5171 143.088 26.4126C142.112 29.2725 141.136 32.1147 140.053 34.9391C139.06 37.5148 137.108 39.007 134.411 39.5399C133.399 39.7353 133.098 39.5576 132.832 38.5451C132.796 38.4385 132.778 38.3142 132.743 38.2076C132.211 36.2181 132.228 36.2359 134.003 35.2944C134.446 35.0635 134.837 34.7437 135.209 34.424C136.026 33.749 136.132 32.9673 135.777 31.9726C134.038 27.2297 132.335 22.4691 130.631 17.7084C130.135 16.3584 130.276 16.1274 131.696 16.1274C132.406 16.1274 133.116 16.1452 133.825 16.1274C134.553 16.1097 134.961 16.4294 135.192 17.1222C136.114 19.9289 137.055 22.7355 138.013 25.5244C138.119 25.8086 138.279 26.0928 138.403 26.3593C138.474 26.3771 138.563 26.3948 138.652 26.3948Z" fill="white"/>
<path d="M119.681 26.5193C119.681 24.8672 119.663 23.1975 119.681 21.5455C119.699 20.7816 119.379 20.4974 118.616 20.4974C116.576 20.4796 116.576 20.4441 116.611 18.4013C116.629 17.5664 116.966 17.1578 117.765 17.0157C119.592 16.6782 119.592 16.6605 119.752 14.7953C119.894 13.0367 120.409 11.4024 121.651 10.1235C123.301 8.43591 125.395 8.0984 127.63 8.38262C128.358 8.47144 129.068 8.72013 129.76 8.95105C130.328 9.12869 130.434 9.57278 130.239 10.0879C130.008 10.7629 129.76 11.4202 129.511 12.0774C129.298 12.6281 128.926 12.8768 128.322 12.7169C128.18 12.6814 128.039 12.6459 127.897 12.5926C124.987 11.8465 124.224 13.7472 124.33 15.9144C124.348 16.1276 124.809 16.4828 125.093 16.5006C126.033 16.5716 126.992 16.5539 127.932 16.5361C128.784 16.5184 129.174 16.8559 129.174 17.744C129.156 20.906 129.352 20.4974 126.513 20.5152C124.011 20.5329 124.312 20.2487 124.295 22.7534C124.277 25.5956 124.295 28.4377 124.295 31.2799C124.295 32.5767 124.153 32.7188 122.893 32.7365C122.218 32.7365 121.526 32.701 120.852 32.7365C120 32.7721 119.681 32.399 119.681 31.5819C119.699 29.8944 119.681 28.2068 119.681 26.5193Z" fill="white"/>
<path d="M109.959 24.6186C109.959 22.4337 109.959 20.2488 109.959 18.0639C109.959 16.7138 110.119 16.554 111.503 16.554C112.177 16.554 112.869 16.554 113.543 16.554C114.218 16.554 114.59 16.9092 114.59 17.602C114.59 22.3094 114.59 26.999 114.59 31.7063C114.59 32.4346 114.218 32.7721 113.49 32.7544C112.727 32.7366 111.946 32.7188 111.183 32.7544C110.296 32.8077 109.959 32.3991 109.959 31.5464C109.977 29.2372 109.959 26.9279 109.959 24.6186Z" fill="white"/>
<path d="M112.23 14.7241C109.959 14.7241 109.959 14.7241 109.959 12.4859C109.959 10.2832 109.959 10.2832 112.159 10.2832C114.608 10.2832 114.608 10.2832 114.608 12.7701C114.608 12.9833 114.608 13.1787 114.608 13.3918C114.572 14.4577 114.342 14.6886 113.295 14.7241C112.94 14.7419 112.585 14.7241 112.23 14.7241Z" fill="white"/>
</g>
<defs>
<clipPath id="clip0_90_7197">
<rect width="146" height="42" fill="white"/>
</clipPath>
</defs>
</svg>
