<svg width="200" height="44" viewBox="0 0 200 44" fill="none" xmlns="http://www.w3.org/2000/svg">
<path d="M88.5813 24.4413C90.9854 20.4855 93.302 16.7046 95.5531 12.9018C96.6459 11.0441 98.0227 9.49241 100.23 9.12087C102.197 8.77119 104.208 8.64006 105.978 9.97322C106.874 10.6507 107.377 11.4812 107.377 12.6396C107.355 19.5895 107.355 26.5613 107.377 33.5112C107.377 34.3636 107.158 34.6695 106.262 34.6477C104.339 34.5821 102.394 34.604 100.471 34.6477C99.6619 34.6695 99.3996 34.3854 99.3996 33.5768C99.4433 30.08 99.4215 26.5831 99.4215 23.0863C99.4215 22.9115 99.3996 22.7585 99.3559 22.2995C99.0281 22.7585 98.8532 22.9989 98.6784 23.2393C96.6459 26.299 94.6571 29.3806 92.5808 32.3966C91.1602 34.451 89.1277 35.1941 86.9859 34.3854C86.0461 34.0139 85.1282 33.2052 84.5381 32.3529C82.3963 29.3369 80.3856 26.2116 78.3313 23.1519C78.222 22.977 78.0909 22.8022 77.8067 22.3432C77.763 22.977 77.7412 23.3486 77.7412 23.7201C77.7412 26.8891 77.7412 30.0581 77.7412 33.2271C77.7412 34.6258 77.7193 34.6477 76.3643 34.6477C74.5066 34.6477 72.6489 34.6258 70.7912 34.6695C70.0482 34.6914 69.7422 34.451 69.7422 33.6642C69.764 26.6268 69.7422 19.6113 69.764 12.574C69.764 10.7819 71.3376 9.252 73.4357 9.05531C75.6212 8.83676 77.8504 8.88047 79.5989 10.5196C80.2327 11.1097 80.8227 11.7653 81.2817 12.5084C83.6421 16.3549 85.9369 20.2233 88.2754 24.0916C88.3409 24.1135 88.4065 24.2009 88.5813 24.4413Z" fill="#fff"/>
<path d="M121.604 25.2062C121.604 23.0207 121.582 20.9445 121.604 18.8682C121.604 18.0815 122.259 18.2344 122.74 18.2344C126.39 18.2344 130.018 18.2344 133.668 18.2344C134.061 18.2344 134.454 18.2344 134.826 18.2344C135.285 16.5735 135.176 16.4205 133.624 16.4205C129.471 16.4205 125.319 16.4205 121.166 16.4205C120.773 16.4205 120.38 16.4205 119.877 16.4205C119.877 19.9391 119.877 23.3704 119.877 26.9546C127.504 26.9546 135.154 26.9546 142.956 26.9546C142.956 29.4243 142.978 31.7409 142.912 34.0576C142.912 34.2543 142.3 34.5602 141.951 34.5821C138.607 34.6258 135.241 34.6039 131.897 34.6039C126.871 34.6039 121.844 34.6039 116.817 34.6039C113.736 34.6039 111.703 32.5714 111.703 29.4898C111.703 24.2883 111.703 19.0649 111.703 13.8634C111.703 11.0441 113.779 8.96787 116.577 8.96787C123.789 8.96787 131.001 9.05529 138.213 8.92416C140.508 8.88045 143.153 11.3501 143 13.7104C142.847 16.0052 142.978 18.3 142.978 20.5948C142.978 23.0863 140.902 25.2062 138.41 25.2062C132.881 25.2062 127.351 25.2062 121.604 25.2062Z" fill="#fff"/>
<path d="M31.539 16.3766C23.693 16.3766 15.9563 16.3766 8.11032 16.3766C8.11032 19.9609 8.11032 23.3921 8.11032 26.9108C13.2244 26.9108 18.3385 26.9108 23.5401 26.9108C23.5401 26.3863 23.5401 25.8618 23.5401 25.2061C22.2287 25.2061 20.9174 25.2061 19.628 25.2061C17.2895 25.2061 14.9728 25.1842 12.6343 25.228C11.8694 25.2498 11.6071 24.9875 11.629 24.2226C11.6727 22.5398 11.6727 20.8788 11.629 19.1959C11.6071 18.4747 11.8913 18.2343 12.5688 18.2343C17.3332 18.2562 22.1195 18.1906 26.8839 18.2562C29.5502 18.2999 31.5172 20.4854 31.5172 23.1954C31.5172 25.3372 31.5172 27.5009 31.5172 29.6427C31.5172 32.5713 29.4628 34.6038 26.4905 34.6038C19.3439 34.6038 12.2191 34.5601 5.07245 34.6257C2.62468 34.6475 -0.0853598 32.8991 0.00206074 29.599C0.0894813 25.9929 0.00206124 22.3868 0.0239164 18.7807C0.0239164 16.77 -0.0197939 14.7812 0.133192 12.7705C0.286178 10.6724 2.25314 8.96772 4.35123 8.96772C13.0496 8.94587 21.7698 8.94587 30.4681 8.98958C30.8178 8.98958 31.4298 9.38297 31.4516 9.60152C31.5609 11.8089 31.539 14.0163 31.539 16.3766Z" fill="#fff"/>
<path d="M57.5454 30.4513C53.677 30.4513 49.9835 30.4295 46.2682 30.4732C45.9622 30.4732 45.6125 30.7354 45.3939 30.954C44.8039 31.5878 44.1919 32.2434 43.7548 32.9865C42.9899 34.3197 41.9627 34.7568 40.4547 34.6256C38.5314 34.4727 36.5863 34.6038 34.6631 34.5819C34.2915 34.5819 33.92 34.4071 33.5703 34.2978C33.7233 33.9481 33.8107 33.5547 34.0511 33.2488C39.1871 26.4081 44.476 19.6549 49.4371 12.6612C51.4041 9.88562 53.9612 9.12069 56.9553 8.94585C58.2229 8.88029 59.5124 8.96771 60.7581 9.12069C63.6867 9.51409 65.4133 11.3499 65.4351 14.3441C65.5007 20.7913 65.457 27.2386 65.457 33.6859C65.457 34.3415 65.2384 34.5819 64.5609 34.5819C62.5284 34.5601 60.474 34.5382 58.4415 34.5819C57.6984 34.6038 57.4798 34.2978 57.5236 33.6203C57.5673 32.6368 57.5454 31.6096 57.5454 30.4513ZM57.5454 23.5451C57.5454 21.6437 57.5673 19.8079 57.5454 17.9502C57.5454 17.076 56.9116 17.1634 56.3871 17.3819C56.0374 17.5131 55.7314 17.8409 55.4692 18.1469C54.289 19.5237 53.1307 20.9225 51.9942 22.2993C51.6882 22.6709 51.426 23.0424 51.0544 23.5451C53.3274 23.5451 55.3817 23.5451 57.5454 23.5451Z" fill="#fff"/>
<path d="M155.61 25.4029C155.61 28.1348 155.589 30.6919 155.632 33.2271C155.654 34.2324 155.261 34.6039 154.299 34.6039C152.288 34.5821 150.3 34.5821 148.289 34.6039C147.371 34.6039 146.912 34.3198 146.912 33.2708C146.956 26.6487 146.912 20.0266 146.934 13.4044C146.934 11.0222 149.36 8.61817 151.83 8.59632C159.37 8.57446 166.91 8.59632 174.428 8.57446C175.28 8.57446 175.673 8.88043 175.652 9.79835C175.608 11.7216 175.586 13.6667 175.652 15.59C175.673 16.5953 175.346 16.9231 174.34 16.9013C168.527 16.8576 162.692 16.8794 156.878 16.8794C156.594 16.8794 156.288 16.8357 156.004 16.9013C155.851 16.945 155.654 17.1635 155.654 17.3165C155.654 17.4695 155.851 17.6881 156.004 17.7318C156.288 17.7973 156.572 17.7755 156.878 17.7755C162.67 17.7755 168.461 17.7755 174.231 17.7755C175.586 17.7755 175.63 17.841 175.63 19.2179C175.63 20.8133 175.586 22.4306 175.652 24.026C175.695 25.0532 175.346 25.4248 174.275 25.4248C168.483 25.3811 162.692 25.4029 156.922 25.4029C156.528 25.4029 156.157 25.4029 155.61 25.4029ZM174.756 9.55794C174.493 9.51423 174.362 9.49238 174.209 9.49238C166.713 9.49238 159.217 9.47052 151.72 9.49238C149.666 9.49238 147.808 11.4593 147.808 13.5356C147.808 19.9173 147.808 26.2771 147.808 32.6588C147.808 32.9648 147.852 33.2926 147.874 33.6205C150.169 33.6205 152.398 33.6205 154.758 33.6205C154.758 30.5607 154.758 27.6103 154.758 24.5287C161.468 24.5287 168.046 24.5287 174.624 24.5287C174.624 22.518 174.624 20.6166 174.624 18.5841C167.959 18.5841 161.38 18.5841 154.78 18.5841C154.78 17.6881 154.78 16.9231 154.78 16.0271C161.468 16.0271 168.068 16.0271 174.756 16.0271C174.756 13.8416 174.756 11.7435 174.756 9.55794Z" fill="#fff"/>
<path d="M179.453 21.8842C179.453 18.1251 179.453 14.3879 179.453 10.6288C179.453 9.33933 179.628 9.16449 180.874 9.14263C182.775 9.12078 184.655 9.16449 186.556 9.12078C187.518 9.09892 187.998 9.38304 187.998 10.4976C187.955 18.0595 187.955 25.6433 187.998 33.2051C187.998 34.1668 187.693 34.6039 186.687 34.582C184.72 34.5383 182.753 34.5383 180.786 34.582C179.803 34.6039 179.453 34.1886 179.453 33.2051C179.475 29.4461 179.453 25.6651 179.453 21.8842ZM180.371 10.1261C180.371 18.0595 180.371 25.8618 180.371 33.6422C182.666 33.6422 184.873 33.6422 187.102 33.6422C187.102 25.7744 187.102 17.9721 187.102 10.1261C184.829 10.1261 182.622 10.1261 180.371 10.1261Z" fill="#fff"/>
</svg>
