<svg width="145" height="44" viewBox="0 0 145 44" fill="none" xmlns="http://www.w3.org/2000/svg">
<g clip-path="url(#clip0_90_7185)">
<path d="M22.3656 0.125977C23.6108 1.35882 24.8442 2.6033 26.0893 3.83615C26.6179 4.35953 26.6179 4.45257 26.101 4.96432C20.6976 10.3028 15.306 15.6529 9.91427 20.9913C9.36219 21.538 9.36219 21.6543 9.92602 22.2126C13.7319 25.9809 17.5378 29.7492 21.3437 33.5175C21.9897 34.1572 22.072 34.1572 22.7063 33.5292C25.7956 30.4703 28.8732 27.4231 31.9626 24.3642C32.4794 23.8525 32.5499 23.8757 33.1137 24.341C33.2665 24.4689 33.5601 24.5968 33.7128 24.5387C33.8655 24.4805 33.9947 24.1898 34.0065 23.9921C34.03 22.2823 34.0182 20.5843 34.0182 18.8746C34.0182 18.421 33.8068 18.2581 33.3722 18.2581C31.6689 18.2698 29.9657 18.2581 28.2624 18.2698C28.0627 18.2698 27.7221 18.3977 27.6868 18.5257C27.6398 18.7117 27.7456 19.0258 27.8983 19.1653C28.697 19.8864 28.4034 20.0725 27.863 20.6075C26.148 22.3056 24.433 24.0037 22.718 25.7018C22.3891 26.0158 22.1425 26.2833 22.4714 26.795C22.7063 27.144 22.4244 27.4464 21.8958 27.4464C20.7211 27.458 19.5465 27.4464 18.3718 27.4464C17.8667 27.4464 17.3499 27.4347 16.8448 27.4464C16.3631 27.458 16.1165 27.2835 16.1282 26.7718C16.14 25.0853 16.1282 23.3989 16.1517 21.7124C16.1517 21.5147 16.2809 21.224 16.4336 21.1542C16.5863 21.0844 16.88 21.2007 17.0327 21.3286C17.6435 21.8404 17.6905 21.852 18.2661 21.2821C22.3069 17.2812 26.3477 13.2802 30.3885 9.29092C30.9289 8.75591 31.0346 8.75591 31.5749 9.27929C35.6158 13.2802 39.6566 17.2812 43.6974 21.2705C44.3317 21.8985 44.32 21.9916 43.6857 22.6196C36.6847 29.5515 29.6838 36.4717 22.6945 43.4036C22.5888 43.5083 22.4831 43.6246 22.3774 43.7409C22.1777 43.7409 21.9897 43.7409 21.7901 43.7409C21.6374 43.5664 21.4846 43.392 21.3202 43.2291C14.3662 36.3554 7.424 29.4817 0.481779 22.608C-0.152536 21.98 -0.152536 21.8869 0.434793 21.3054C5.27438 16.5135 10.114 11.7217 14.9536 6.9299C17.2324 4.66193 19.4995 2.39395 21.7783 0.125977C21.978 0.125977 22.1659 0.125977 22.3656 0.125977Z" fill="white"/>
<path d="M145 22.8058C144.789 23.8409 144.706 24.9226 144.342 25.9112C143.109 29.3073 139.785 31.6218 136.131 31.773C131.997 31.9475 128.849 30.2843 127.075 26.5974C125.548 23.4222 125.712 20.154 127.862 17.2347C130 14.3154 132.995 13.0709 136.613 13.4547C140.654 13.8851 143.861 16.6881 144.695 20.4099C144.836 21.0495 144.906 21.7009 145 22.3522C145 22.4917 145 22.6546 145 22.8058ZM140.76 22.6313C140.76 22.3987 140.783 22.1661 140.76 21.9335C140.572 19.8749 139.691 18.2233 137.682 17.4324C135.709 16.6532 133.782 16.8276 132.126 18.2349C130.646 19.491 130.235 21.2007 130.34 23.0616C130.575 27.2487 134.663 29.5748 138.246 27.5394C140.137 26.4694 140.76 24.6899 140.76 22.6313Z" fill="white"/>
<path d="M63.689 27.3651C62.6436 27.9582 61.6921 28.691 60.6231 29.0748C57.2284 30.3076 53.7631 29.1562 51.6488 26.2485C48.9235 22.4918 49.4052 16.4788 52.6825 13.2687C55.5721 10.4425 60.3647 10.3959 63.3014 13.1757C63.3953 13.2687 63.5011 13.3385 63.595 13.4199C63.642 13.3618 63.6773 13.3269 63.6773 13.3036C63.595 12.0824 64.1471 11.5241 65.451 11.6172C65.8034 11.6404 66.1558 11.6055 66.5082 11.6288C67.2482 11.6637 67.7063 12.094 67.7416 12.8384C67.7886 13.7805 67.6476 14.6411 67.1895 15.5483C65.4862 18.9328 65.6389 22.3406 67.4597 25.6786C67.6124 25.9577 67.7298 26.295 67.7298 26.5974C67.6828 28.4351 67.7533 30.296 67.4714 32.0987C66.9076 35.7042 64.1119 38.1583 60.4469 38.4956C58.5675 38.67 56.7233 38.5421 54.9965 37.7047C52.9526 36.7161 51.6018 35.1343 50.9909 32.9478C50.7325 32.0289 51.2376 31.3776 52.2008 31.3311C52.4123 31.3195 52.6355 31.3544 52.8469 31.3311C54.0216 31.2032 54.8321 31.587 55.2432 32.7733C55.3959 33.2153 55.7836 33.634 56.1594 33.948C58.7789 36.1578 62.7375 34.8552 63.4893 31.5637C63.6068 31.0403 63.6655 30.4937 63.689 29.9471C63.7125 29.0515 63.689 28.1676 63.689 27.3651ZM63.9122 20.3401C63.8065 19.6772 63.7477 18.991 63.5715 18.3397C63.0782 16.4439 61.4571 14.9784 59.6599 14.7807C57.4633 14.5365 55.7013 15.339 54.7851 17.1534C53.7631 19.1771 53.7396 21.2706 54.6676 23.3292C55.3959 24.9459 56.735 25.8182 58.5322 25.9229C60.4 26.0275 61.9035 25.3762 62.9255 23.7828C63.6068 22.7361 63.8652 21.5846 63.9122 20.3401Z" fill="white"/>
<path d="M81.5328 13.5596C81.5446 13.3154 81.5563 13.1642 81.5563 13.0246C81.5798 12.0244 81.9792 11.6406 83.0011 11.629C83.4123 11.629 83.8234 11.6173 84.2345 11.629C85.0568 11.6522 85.5736 12.1523 85.6441 12.9665C85.6559 13.1177 85.6441 13.2805 85.6441 13.4317C85.6441 18.8167 85.6441 24.2017 85.6441 29.5867C85.6441 29.8077 85.6441 30.0403 85.6441 30.2961C84.6222 30.2961 83.6707 30.3543 82.7192 30.2729C82.0379 30.2147 81.6033 29.6216 81.5563 28.9354C81.5446 28.6678 81.5563 28.3887 81.5563 28.1212C81.5563 27.8653 81.5563 27.6211 81.5563 27.2838C81.3801 27.4001 81.2509 27.4699 81.1334 27.5629C77.0456 31.1917 70.4793 29.7262 68.4589 24.1668C67.061 20.3287 67.4252 16.6069 70.3618 13.4899C73.228 10.4543 77.8444 10.3263 80.9807 13.0944C81.1452 13.234 81.2979 13.3619 81.5328 13.5596ZM71.9006 20.6194C71.9594 20.98 72.0181 21.6778 72.1943 22.3408C72.7346 24.3878 74.4731 25.83 76.4583 25.9346C78.7371 26.051 80.5226 24.946 81.3449 22.8642C81.9322 21.3871 81.9557 19.8751 81.5328 18.3631C80.6871 15.3508 77.351 13.8271 74.6376 15.281C72.6759 16.3394 71.9476 18.1421 71.9006 20.6194Z" fill="white"/>
<path d="M101.691 22.5617C101.773 25.3531 103.665 27.2023 106.355 27.2256C108.786 27.2489 111.206 27.2954 113.638 27.3187C113.825 27.3187 114.025 27.3187 114.354 27.3187C114.131 27.97 113.802 28.5515 113.79 29.1214C113.778 29.7146 114.084 30.3077 114.26 30.9707C114.002 30.9707 113.79 30.9707 113.579 30.9707C111.1 30.9242 108.61 30.8544 106.131 30.8195C101.163 30.7497 97.7796 27.5745 97.4507 22.6664C97.298 20.3054 97.5917 18.0258 98.919 15.9788C100.352 13.7922 102.408 12.6524 105.004 12.4431C107.012 12.2802 108.951 12.5594 110.677 13.6992C112.698 15.0367 113.708 16.9906 114.096 19.2935C114.201 19.9216 114.248 20.5612 114.284 21.2009C114.342 22.2012 113.99 22.5501 112.991 22.5501C109.467 22.5501 105.943 22.5501 102.431 22.5501C102.196 22.5617 101.961 22.5617 101.691 22.5617ZM101.997 19.2354C104.698 19.2354 107.365 19.2354 110.031 19.2354C109.761 17.3512 108.211 16.0951 106.178 16.0602C104.088 16.0137 102.361 17.3047 101.997 19.2354Z" fill="white"/>
<path d="M93.1152 15.3623C93.1152 15.6763 93.1152 15.9089 93.1152 16.1416C93.1152 20.189 93.1152 24.2481 93.1152 28.2956C93.1152 29.7145 92.4808 30.3426 91.036 30.3426C90.4135 30.3426 89.7909 30.3426 89.0978 30.3426C89.0978 25.3414 89.0978 20.3984 89.0978 15.3856C88.487 15.3856 87.9584 15.3856 87.3711 15.3856C87.3711 14.1062 87.3711 12.9082 87.3711 11.6289C87.9232 11.6289 88.4635 11.6289 89.0743 11.6289C89.0743 11.3265 89.0743 11.0706 89.0743 10.8264C89.0743 9.40742 89.0626 8.00011 89.0743 6.58117C89.0861 5.77866 89.4972 5.35996 90.296 5.32506C90.8246 5.3018 91.3532 5.3018 91.8818 5.32506C92.6688 5.34832 93.1034 5.79029 93.1034 6.58117C93.1152 8.035 93.1034 9.48883 93.1034 10.9427C93.1034 11.152 93.1034 11.3614 93.1034 11.6056C95.8639 11.6056 98.5303 11.6056 101.209 11.6056C101.22 11.6405 101.22 11.6638 101.232 11.6987C100.88 11.8847 100.527 12.0592 100.187 12.2569C99.0707 12.9082 98.1779 13.8038 97.5436 14.9203C97.3322 15.2809 97.0973 15.3739 96.7096 15.3739C95.5467 15.3507 94.372 15.3623 93.1152 15.3623Z" fill="white"/>
<path d="M120.203 31.0054C120.309 30.61 120.344 30.2843 120.473 30.0168C120.79 29.3422 120.814 28.6909 120.473 28.0047C120.356 27.7721 120.274 27.493 120.274 27.2371C120.262 23.2245 120.262 19.2236 120.262 15.211C120.262 14.0596 120.743 13.5827 121.895 13.5711C122.247 13.5711 122.599 13.5595 122.952 13.5711C123.868 13.5943 124.314 14.0247 124.314 14.9435C124.314 18.8514 124.314 22.7709 124.314 26.6788C124.314 27.586 124.314 28.4932 124.314 29.412C124.303 30.4123 123.762 30.9705 122.776 30.9938C121.977 31.0287 121.166 31.0054 120.203 31.0054Z" fill="white"/>
<path d="M124.936 7.90711C124.936 9.3842 123.785 10.5356 122.329 10.5473C120.837 10.5473 119.65 9.36094 119.662 7.88385C119.674 6.46491 120.849 5.32511 122.293 5.31348C123.785 5.31348 124.936 6.44165 124.936 7.90711Z" fill="white"/>
<path d="M117.091 31.0637C115.963 31.0405 115.094 30.1217 115.118 28.9819C115.141 27.8886 116.057 27.0046 117.162 27.0046C118.324 27.0163 119.229 27.9467 119.205 29.0982C119.17 30.2263 118.254 31.087 117.091 31.0637Z" fill="white"/>
</g>
<defs>
<clipPath id="clip0_90_7185">
<rect width="145" height="44" fill="white"/>
</clipPath>
</defs>
</svg>
