<svg width="170" height="46" viewBox="0 0 170 46" fill="none" xmlns="http://www.w3.org/2000/svg">
<g clip-path="url(#clip0_90_7078)">
<path d="M23.0225 45.9971C18.1747 45.9971 13.3278 45.9981 8.48006 45.9962C8.01952 45.9962 7.54637 46.0525 7.14013 45.7448C7.09262 45.7089 7.01797 45.6954 6.95688 45.6963C6.44787 45.7012 5.96018 45.6381 5.55005 45.2965C5.52678 45.2771 5.49285 45.2577 5.46376 45.2567C4.95765 45.247 4.59504 44.9317 4.19946 44.6784C4.07924 44.6017 3.90665 44.5959 3.80485 44.5057C3.24541 44.005 2.67241 43.5149 2.16048 42.9686C1.71157 42.4902 1.33926 41.9429 1.08912 41.3209C0.941746 40.955 0.740078 40.6105 0.573314 40.2515C0.526775 40.1516 0.514171 40.0341 0.49478 39.9235C0.430789 39.5625 0.371646 39.2016 0.309594 38.8406C0.303777 38.8095 0.301838 38.7668 0.281477 38.7494C-0.113133 38.4088 0.0167875 37.9469 0.015818 37.5276C0.0119397 27.7452 0.0129093 17.9609 0.0138788 8.17747C0.0138788 7.84463 0.0284222 7.54479 0.250451 7.23038C0.434667 6.96838 0.413337 6.55985 0.478297 6.21536C0.499627 6.10474 0.479267 5.98053 0.520958 5.88058C0.719717 5.3983 0.922355 4.91699 1.14535 4.44538C1.47791 3.74283 2.04122 3.20524 2.52697 2.61815C2.80524 2.28143 3.24057 2.07862 3.54501 1.75937C3.95707 1.32561 4.4913 1.10921 5.00322 0.871467C5.58981 0.59879 6.17348 0.260127 6.86575 0.305734C7.05772 0.318349 7.23902 0.304764 7.40191 0.149503C7.49305 0.0621686 7.65884 0.0262644 7.79458 0.017531C8.11648 -0.0038174 8.44031 0.00200489 8.76317 0.00200489C18.3938 0.00103451 28.0234 0.00103451 37.6541 0.00297527C38.1301 0.00297527 38.6071 -0.0465142 39.0473 0.258186C39.2083 0.368809 39.4865 0.309616 39.7105 0.328053C39.9345 0.346491 40.1613 0.339698 40.3262 0.54833C40.3795 0.616257 40.492 0.661865 40.5821 0.671569C41.2123 0.735614 41.7291 1.09757 42.1993 1.43914C42.8082 1.88066 43.4724 2.29017 43.9058 2.94905C44.1957 3.38961 44.5563 3.78552 44.8259 4.23772C45.109 4.71224 45.3281 5.22751 45.5598 5.73114C45.619 5.85923 45.6384 6.01158 45.6481 6.1552C45.6762 6.60545 45.809 7.0266 45.9593 7.44678C46.0126 7.59621 46.0349 7.76118 46.0446 7.92129C46.063 8.24346 46.0689 8.56757 46.0689 8.89071C46.0698 18.384 46.065 27.8762 46.0805 37.3695C46.0815 38.0128 45.9128 38.6038 45.7751 39.2113C45.7373 39.3801 45.6801 39.547 45.6665 39.7178C45.6471 39.9633 45.6335 40.202 45.4541 40.3951C45.4222 40.4291 45.3853 40.4766 45.3834 40.5193C45.3572 41.1549 44.8627 41.5771 44.6446 42.1263C44.5777 42.2951 44.4012 42.4213 44.2723 42.5639C44.2102 42.6328 44.1239 42.6862 44.0784 42.7648C43.7138 43.3946 43.1301 43.7905 42.591 44.2495C42.1305 44.6415 41.6089 44.9142 41.0882 45.1325C40.4697 45.3926 39.8598 45.7943 39.1239 45.6992C39.0366 45.6876 38.9096 45.708 38.8544 45.7652C38.611 46.0204 38.3037 45.9923 38.0002 45.9923C33.007 45.9923 28.0147 45.9923 23.0215 45.9923C23.0225 45.9942 23.0225 45.9952 23.0225 45.9971ZM18.4268 25.7521C18.6624 25.7521 18.8514 25.7521 19.0415 25.7521C21.3519 25.7521 23.6624 25.7521 25.9728 25.7511C26.1173 25.7511 26.2685 25.7627 26.4052 25.7259C27.3127 25.4833 28.0816 26.0451 28.0855 26.9728C28.0903 28.1052 28.0816 29.2367 28.0913 30.3691C28.0932 30.5865 28.1165 30.8175 28.195 31.0164C28.2852 31.2415 28.546 31.1076 28.7147 31.1775C29.2315 31.39 29.7774 31.3221 30.2874 31.2502C30.8672 31.1687 31.4188 31.1095 31.9909 31.2648C32.1664 31.3124 32.3719 31.257 32.5629 31.2415C32.848 31.2192 33.1495 31.1183 33.4132 31.1813C33.7535 31.2629 34.0483 31.2658 34.3886 31.1755C34.9102 31.0368 34.9218 31.0717 34.9228 30.5225C34.9248 29.326 34.9277 28.1295 34.9209 26.932C34.9189 26.5381 35.0169 26.1179 34.6804 25.7899C34.6513 25.7618 34.6455 25.6987 34.6455 25.6511C34.6416 25.2125 34.4216 24.8554 34.1918 24.5139C33.9988 24.2266 33.7826 23.9413 33.5257 23.7133C33.2542 23.4736 32.9197 23.3057 32.6172 23.1C32.3981 22.9506 32.4068 22.7148 32.6317 22.5653C32.7791 22.4683 32.9488 22.3975 33.0758 22.2791C33.5451 21.8414 34.1724 21.526 34.2587 20.7808C34.2674 20.708 34.3265 20.6333 34.3799 20.5751C34.5466 20.3946 34.5001 20.0753 34.7754 19.9666C34.7793 19.5144 34.7687 19.0603 34.7939 18.6091C34.8065 18.3985 34.6436 18.3529 34.5495 18.2394C34.5311 18.217 34.5301 18.1792 34.5214 18.1481C34.3682 17.5844 34.1704 17.0506 33.7904 16.5849C33.3899 16.0929 32.8712 15.7591 32.3486 15.4408C31.9754 15.2137 31.5342 15.1099 31.1076 14.9925C30.4221 14.8042 29.757 14.5306 29.0279 14.5529C28.9804 14.5539 28.9154 14.5558 28.8883 14.5277C28.7041 14.3336 28.4685 14.3967 28.2503 14.3967C23.0477 14.3937 17.845 14.3947 12.6414 14.3947C12.528 14.3947 12.4145 14.3899 12.3021 14.3996C12.2439 14.4044 12.1741 14.4219 12.1324 14.4588C11.9705 14.6004 11.7562 14.7266 11.6786 14.909C11.5962 15.1021 11.6437 15.3525 11.6379 15.5776C11.634 15.7232 11.6369 15.8687 11.6369 16.0143C11.6369 20.8012 11.6418 25.5881 11.6282 30.375C11.6272 30.7845 11.732 31.0212 12.2361 31.226C12.3641 31.2784 12.5192 31.2862 12.6608 31.2794C13.5256 31.2367 14.3895 31.3512 15.2582 31.1833C15.679 31.1018 16.1434 31.2832 16.5865 31.2726C17.1576 31.258 17.7277 31.1687 18.3376 31.1076C18.355 30.8592 18.386 30.603 18.387 30.3478C18.3918 29.0058 18.387 27.6637 18.3889 26.3207C18.3928 26.148 18.4132 25.9762 18.4268 25.7521Z" fill="#FFC700"/>
<path d="M65.3035 34.3234C65.0407 34.3234 64.8187 34.3234 64.5967 34.3234C63.5302 34.3234 62.4637 34.3205 61.3981 34.3254C60.731 34.3283 60.6758 34.2788 60.6758 33.617C60.6758 26.5672 60.6768 19.5173 60.6768 12.4665C60.6768 12.2123 60.6768 11.9571 60.6768 11.6611C60.8755 11.6524 61.0491 11.6378 61.2216 11.6378C64.5017 11.6398 67.7807 11.6427 71.0607 11.6446C71.2886 11.6446 71.499 11.6563 71.6987 11.8096C71.8121 11.8969 71.9925 11.9318 72.1428 11.9318C72.4123 11.9328 72.6537 11.9726 72.8515 12.1735C72.9068 12.2298 72.9785 12.2792 73.0522 12.3045C73.8618 12.5859 74.7431 13.1875 75.1988 13.7756C75.5488 14.2278 75.9813 14.6421 76.1538 15.2205C76.18 15.3078 76.243 15.4029 76.3177 15.4534C76.5106 15.5844 76.5232 15.7707 76.5116 15.9677C76.498 16.2006 76.5417 16.4014 76.7026 16.5926C76.7831 16.6877 76.7947 16.8575 76.8015 16.9963C76.8461 18.0123 76.8781 19.0292 76.8005 20.0452C76.787 20.2276 76.7055 20.4062 76.6522 20.5857C76.6076 20.7352 76.5572 20.8827 76.5135 21.0321C76.466 21.198 76.4583 21.3873 76.372 21.5299C76.0831 22.0073 75.7573 22.4624 75.4654 22.9389C75.2046 23.3639 74.8149 23.6463 74.4183 23.9132C73.9141 24.2538 73.4236 24.6293 72.8059 24.7661C72.7255 24.7836 72.6256 24.9185 72.614 25.0087C72.5732 25.3086 72.5529 25.5968 72.7633 25.8811C72.9853 26.1809 73.1463 26.5322 73.2975 26.8767C73.473 27.2775 73.6543 27.6724 73.8608 28.0596C74.0509 28.4148 74.2496 28.7699 74.3776 29.1629C74.4843 29.489 74.6908 29.783 74.8527 30.0916C75.064 30.4953 75.2774 30.898 75.4868 31.3026C75.797 31.9033 76.1606 32.4855 76.3914 33.1153C76.53 33.4947 76.9411 33.8072 76.7705 34.3166C75.1077 34.3166 73.4497 34.3166 71.8199 34.3166C71.5765 33.8615 71.338 33.4152 71.0985 32.9697C71.084 32.9426 71.0346 32.9222 71.0355 32.8999C71.053 32.4816 70.6942 32.2313 70.575 31.8674C70.4596 31.5161 70.2376 31.2007 70.066 30.8679C70.0233 30.7835 70.002 30.6884 69.9613 30.603C69.7635 30.1799 69.5783 29.75 69.3252 29.3551C69.2758 29.2784 69.267 29.1765 69.238 29.0863C69.1885 28.9339 69.1604 28.7699 69.0838 28.6321C68.7086 27.9577 68.3469 27.2785 68.0532 26.5642C67.964 26.3479 67.8515 26.1363 67.7187 25.9442C67.6566 25.8539 67.5238 25.7627 67.42 25.7598C66.8713 25.7414 66.3215 25.7433 65.7728 25.754C65.4916 25.7588 65.3733 25.884 65.3529 26.1732C65.3403 26.3498 65.3588 26.5283 65.3588 26.7059C65.3617 29.0504 65.3655 31.3948 65.3636 33.7393C65.3617 33.9265 65.3258 34.1148 65.3035 34.3234ZM65.352 18.5178C65.3539 18.5178 65.3558 18.5178 65.3578 18.5178C65.3578 19.3097 65.3462 20.1015 65.3617 20.8933C65.3733 21.5086 65.5459 21.6677 66.1489 21.6725C66.8267 21.6774 67.5054 21.6823 68.1831 21.6716C68.8346 21.6609 69.4707 21.7104 70.1125 21.3979C70.8077 21.0593 71.5145 20.8118 71.7608 19.9812C72.1534 19.6881 72.0439 19.2514 72.0477 18.8662C72.0536 18.2665 72.1602 17.6523 71.7472 17.104C71.3914 16.6333 71.1015 16.1132 70.4489 16.0007C70.3917 15.991 70.3287 15.9492 70.2919 15.9036C70.1532 15.729 69.9661 15.7192 69.7673 15.7192C68.4594 15.7212 67.1515 15.7173 65.8435 15.7222C65.4072 15.7241 65.3539 15.7862 65.3529 16.2413C65.35 16.9982 65.352 17.758 65.352 18.5178Z" fill="white"/>
<path d="M125.781 33.9703C125.612 33.8403 125.432 33.7228 125.276 33.5782C125.009 33.3289 124.741 33.0766 124.505 32.799C124.401 32.6777 124.317 32.5681 124.156 32.6088C123.97 32.6554 123.92 32.8068 123.922 32.9853C123.925 33.26 123.924 33.5346 123.92 33.8102C123.918 33.9683 123.906 34.1265 123.898 34.3128C122.467 34.3128 121.068 34.3128 119.637 34.3128C119.462 34.1459 119.469 33.9024 119.469 33.6607C119.471 27.3882 119.473 21.1166 119.474 14.844C119.474 13.7776 119.471 12.7102 119.469 11.6437C119.468 11.1527 119.526 11.1052 120.02 11.1061C121.215 11.1081 122.409 11.0993 123.605 11.0955C123.683 11.0955 123.761 11.1061 123.887 11.1149C123.903 11.2818 123.928 11.4361 123.929 11.5904C123.932 14.1124 123.931 16.6344 123.931 19.1555C123.931 19.236 123.925 19.3175 123.931 19.3981C123.961 19.8027 124.166 19.9056 124.497 19.6756C124.745 19.5038 124.98 19.3136 125.227 19.1409C125.533 18.9264 125.843 18.7139 126.162 18.5199C126.248 18.4675 126.378 18.483 126.487 18.4713C126.839 18.4325 127.183 18.3879 127.495 18.1792C127.63 18.089 127.828 18.0647 127.998 18.0609C128.627 18.0473 129.257 18.0628 129.888 18.0521C130.155 18.0473 130.388 18.1181 130.622 18.2433C130.803 18.3403 131.004 18.418 131.204 18.4587C131.446 18.5072 131.731 18.4102 131.879 18.7081C131.885 18.7198 131.907 18.7295 131.921 18.7295C132.578 18.7382 132.948 19.2971 133.469 19.5659C133.832 19.7532 134.1 20.1433 134.377 20.4713C134.608 20.744 134.832 21.038 134.982 21.3592C135.132 21.6804 135.409 21.9414 135.437 22.3257C135.446 22.4421 135.545 22.5508 135.596 22.6653C135.673 22.8371 135.787 23.0059 135.807 23.1845C135.845 23.5212 135.851 23.8521 136.077 24.1403C136.145 24.2267 136.135 24.3868 136.135 24.5139C136.138 25.6774 136.137 26.8419 136.136 28.0053C136.136 28.1014 136.161 28.2363 136.108 28.2877C135.814 28.5808 135.883 28.9777 135.781 29.3241C135.642 29.7918 135.39 30.2207 135.235 30.6739C135.097 31.0747 134.78 31.3347 134.635 31.7306C134.511 32.0703 134.133 32.3197 133.859 32.5991C133.653 32.8078 133.445 33.0183 133.213 33.1969C133.008 33.356 132.769 33.4734 132.543 33.6064C132.366 33.7102 132.19 33.817 132.007 33.9091C131.883 33.9713 131.748 34.0169 131.615 34.0586C131.555 34.077 131.46 34.044 131.427 34.079C131.06 34.471 130.552 34.308 130.116 34.4176C129.746 34.5108 129.372 34.6185 128.996 34.635C128.632 34.6515 128.263 34.5622 127.897 34.5137C127.531 34.4642 127.165 34.4089 126.8 34.3536C126.707 34.339 126.569 34.3458 126.531 34.2895C126.341 34.0052 126.052 34.0702 125.781 33.9703ZM123.922 26.3353C123.923 26.3353 123.923 26.3353 123.924 26.3353C123.924 26.5934 123.947 26.8554 123.918 27.1106C123.885 27.4056 124.088 27.5842 124.199 27.8093C124.206 27.8229 124.206 27.8404 124.21 27.8569C124.388 28.7128 124.895 29.36 125.559 29.8821C125.818 30.0868 126.079 30.3527 126.482 30.3061C126.593 30.2935 126.718 30.3954 126.836 30.4468C127.536 30.7467 128.228 30.7981 128.917 30.408C129.038 30.3391 129.189 30.3216 129.326 30.2819C129.416 30.2557 129.538 30.2595 129.591 30.2013C129.824 29.9451 130.167 29.8656 130.409 29.5861C130.819 29.1116 131.282 28.7001 131.376 28.0354C131.389 27.9423 131.45 27.8578 131.483 27.7666C131.834 26.7953 131.874 25.8278 131.442 24.8671C131.409 24.7943 131.359 24.7138 131.367 24.643C131.419 24.1869 131.109 23.8958 130.857 23.6095C130.421 23.1146 129.972 22.6459 129.304 22.4004C128.887 22.2471 128.499 22.1083 128.057 22.1268C127.783 22.1384 127.508 22.1306 127.234 22.1316C126.937 22.1326 126.657 22.1666 126.449 22.4227C126.395 22.4877 126.282 22.5382 126.199 22.5353C125.989 22.5285 125.837 22.6032 125.692 22.7507C125.506 22.9399 125.271 23.0836 125.104 23.2864C124.798 23.6571 124.39 23.9647 124.316 24.4945C124.296 24.6323 124.242 24.7846 124.155 24.8904C123.904 25.1951 123.918 25.5464 123.923 25.9025C123.924 26.0442 123.922 26.1898 123.922 26.3353Z" fill="white"/>
<path d="M163.012 27.4725C162.792 27.4725 162.587 27.4725 162.38 27.4725C159.085 27.4706 155.789 27.4687 152.493 27.4677C152.347 27.4677 152.201 27.4725 152.057 27.4929C151.731 27.5395 151.597 27.7598 151.758 28.0373C151.906 28.2935 151.985 28.5516 152.031 28.8447C152.063 29.0465 152.225 29.2522 152.38 29.4036C152.726 29.7432 152.978 30.2042 153.511 30.3235C153.596 30.3429 153.666 30.4341 153.739 30.4953C153.788 30.536 153.833 30.6243 153.877 30.6224C154.388 30.6001 154.769 31.0513 155.292 30.995C155.563 30.9659 155.84 30.9892 156.115 30.9882C156.358 30.9873 156.604 30.9989 156.782 30.7815C156.801 30.7573 156.834 30.7243 156.858 30.7272C157.251 30.7728 157.489 30.472 157.797 30.3245C158.229 30.1188 158.477 29.7772 158.704 29.392C158.784 29.2561 158.893 29.1377 158.987 29.0096C159.118 28.832 159.269 28.8039 159.439 28.9495C159.726 29.195 160.062 29.2648 160.429 29.2474C160.534 29.2425 160.688 29.2571 160.741 29.324C160.92 29.556 161.161 29.521 161.401 29.5453C161.573 29.5627 161.746 29.6093 161.906 29.6743C162.187 29.7888 162.458 29.9266 162.759 30.0673C162.751 30.1265 162.767 30.2265 162.724 30.275C162.369 30.6826 162.249 31.2085 161.996 31.6627C161.799 32.0139 161.493 32.3128 161.2 32.5991C160.857 32.9348 160.476 33.2327 160.11 33.5462C160.087 33.5665 160.054 33.5918 160.028 33.5898C159.684 33.5675 159.528 33.8334 159.328 34.0498C159.067 34.0634 158.785 34.0129 158.604 34.304C158.567 34.3642 158.392 34.3322 158.283 34.3545C157.969 34.4176 157.644 34.4515 157.346 34.5612C157.024 34.6796 156.711 34.7727 156.364 34.7669C155.75 34.7553 155.137 34.7562 154.523 34.765C154.24 34.7688 153.984 34.7135 153.75 34.5476C153.673 34.4933 153.577 34.4263 153.49 34.4292C152.968 34.4447 152.527 34.1536 152.035 34.0566C151.96 34.042 151.88 34.0129 151.823 33.9654C151.467 33.6704 151.074 33.4452 150.637 33.2958C150.594 33.2812 150.56 33.2395 150.525 33.2075C150.028 32.7407 149.5 32.3021 149.066 31.7742C148.776 31.421 148.518 31.0368 148.281 30.6457C148.196 30.506 148.271 30.2566 148.174 30.1382C147.857 29.751 147.896 29.2309 147.628 28.8253C147.515 28.6535 147.513 28.3993 147.488 28.179C147.427 27.6356 147.358 27.0922 147.337 26.5468C147.325 26.1994 147.394 25.8491 147.426 25.4998C147.444 25.3066 147.491 25.1126 147.477 24.9224C147.44 24.3925 147.537 23.9015 147.809 23.4416C147.879 23.3212 147.9 23.1699 147.932 23.0292C148.025 22.6245 148.196 22.2626 148.448 21.9297C148.609 21.7182 148.758 21.4901 148.867 21.2495C149.04 20.8691 149.36 20.6284 149.644 20.3538C149.996 20.0142 150.334 19.6386 150.744 19.3873C151.114 19.1612 151.429 18.8129 151.895 18.7527C151.953 18.7449 152.025 18.7051 152.055 18.6576C152.168 18.4781 152.336 18.4655 152.519 18.4713C152.77 18.479 153.005 18.4189 153.181 18.2306C153.331 18.0686 153.514 18.055 153.711 18.056C154.778 18.0579 155.844 18.056 156.91 18.0589C157.037 18.0589 157.181 18.055 157.288 18.1103C157.676 18.3092 158.053 18.5227 158.515 18.4907C158.575 18.4868 158.641 18.5732 158.705 18.6178C158.769 18.6634 158.84 18.7556 158.897 18.7469C159.406 18.6692 159.645 19.1224 160.012 19.3136C160.606 19.6212 161.059 20.1161 161.458 20.644C161.68 20.937 161.915 21.2194 162.051 21.5852C162.209 22.0122 162.484 22.3936 162.684 22.8069C162.75 22.9428 162.757 23.1136 162.762 23.2688C162.774 23.6065 162.731 23.9491 162.993 24.2315C163.048 24.2916 163.053 24.4129 163.054 24.5071C163.058 25.4289 163.057 26.3498 163.054 27.2717C163.056 27.3289 163.031 27.3901 163.012 27.4725ZM155.349 24.5614C155.349 24.5672 155.349 24.573 155.349 24.5789C156.3 24.5789 157.251 24.576 158.202 24.5808C158.405 24.5818 158.639 24.5808 158.671 24.3508C158.715 24.0413 158.774 23.7104 158.553 23.4202C158.351 23.1543 158.134 22.8923 157.982 22.5973C157.88 22.4004 157.778 22.2499 157.576 22.1529C157.388 22.0627 157.221 21.9297 157.034 21.8375C156.865 21.7541 156.681 21.7036 156.506 21.6347C155.679 21.3116 154.861 21.1981 154.07 21.7356C154.007 21.7783 153.93 21.8113 153.856 21.8249C153.373 21.9152 152.989 22.1616 152.693 22.5498C152.635 22.6265 152.583 22.707 152.52 22.7798C152.225 23.1204 151.99 23.4746 151.99 23.9588C151.99 24.4935 152.018 24.5546 152.544 24.5575C153.479 24.5653 154.413 24.5614 155.349 24.5614Z" fill="white"/>
<path d="M93.3499 34.336C92.168 34.336 91.0705 34.3389 89.9729 34.3341C89.6462 34.3321 89.3292 33.9906 89.3107 33.6335C89.3001 33.4239 89.3311 33.2084 89.2952 33.0046C89.2739 32.8804 89.1828 32.7329 89.078 32.6737C89.0208 32.6417 88.8473 32.7475 88.7697 32.8309C88.4226 33.2065 88.1017 33.6179 87.6586 33.879C87.3164 34.0798 86.9983 34.336 86.5659 34.3768C86.3041 34.401 86.054 34.5437 85.7971 34.6271C85.6322 34.6805 85.4655 34.7504 85.2958 34.763C85.0069 34.7843 84.715 34.7659 84.4242 34.7649C83.9607 34.763 83.4886 34.828 83.0842 34.4971C82.9921 34.4214 82.8448 34.3952 82.7187 34.3836C81.9809 34.3108 81.4408 33.8751 80.8649 33.4607C80.3637 33.1007 80.1058 32.5612 79.6927 32.1449C79.6404 32.0925 79.5948 32.0042 79.5958 31.9333C79.5987 31.7111 79.5202 31.5374 79.3805 31.3647C79.3088 31.2764 79.2933 31.124 79.2923 31.0008C79.2846 30.306 79.2797 29.6102 79.2962 28.9164C79.3001 28.7699 79.3931 28.6243 79.4523 28.4817C79.4697 28.439 79.5318 28.4089 79.5386 28.3672C79.6317 27.8267 79.9797 27.4269 80.2696 26.9902C80.4626 26.7001 80.7505 26.54 81.0123 26.3546C81.3643 26.1062 81.7657 25.9276 82.1457 25.719C82.1738 25.7035 82.2 25.6608 82.2223 25.6637C82.7856 25.7384 83.2287 25.2988 83.792 25.3192C84.3864 25.3406 84.9729 25.2358 85.5314 24.9951C85.7176 24.9146 85.9377 24.899 86.1442 24.8855C86.4176 24.867 86.7007 24.9223 86.9654 24.8699C87.4463 24.7758 87.9408 24.6836 88.3838 24.4866C88.9675 24.2275 89.2012 23.2057 88.8366 22.6798C88.6582 22.4226 88.4633 22.147 88.2103 21.9753C87.2824 21.3465 86.2867 21.1107 85.2308 21.6618C84.9555 21.8055 84.6472 21.8579 84.4058 22.1121C84.0751 22.4605 83.6863 22.7351 83.634 23.2736C83.6088 23.5337 83.3625 23.6657 83.1036 23.6395C82.8797 23.6162 82.6557 23.5968 82.4317 23.5861C82.2097 23.5754 82.0061 23.5706 81.7928 23.4386C81.6018 23.3202 81.3313 23.2999 81.0937 23.295C80.7166 23.2872 80.3598 23.2183 80.0108 23.0805C79.5745 22.9088 79.4251 22.5827 79.6646 22.1761C79.8178 21.9161 79.9167 21.6463 80.034 21.3775C80.3559 20.64 80.9086 20.0432 81.532 19.5289C81.8393 19.2757 82.1506 18.9661 82.5132 18.8545C82.87 18.7439 83.1444 18.4479 83.5545 18.4528C83.7639 18.4557 83.9985 18.3538 84.1779 18.2335C84.3641 18.1093 84.5395 18.052 84.7587 18.053C85.9212 18.0588 87.0846 18.0462 88.2471 18.0646C88.4769 18.0685 88.7086 18.1714 88.9336 18.2451C89.0994 18.2995 89.2506 18.4159 89.4184 18.445C89.6976 18.4935 89.9981 18.4421 90.1959 18.7274C90.227 18.772 90.3482 18.7546 90.4267 18.7662C90.5062 18.7779 90.608 18.7623 90.6604 18.806C91.3584 19.3892 92.1409 19.9113 92.5927 20.7138C92.7817 21.0486 93.061 21.395 93.0523 21.8394C93.0474 22.0985 93.1405 22.3314 93.2898 22.5604C93.3838 22.704 93.3751 22.9301 93.3751 23.1184C93.38 26.3672 93.378 29.6161 93.379 32.8649C93.379 33.188 93.3994 33.5112 93.3974 33.8343C93.3984 33.9857 93.3703 34.139 93.3499 34.336ZM88.8899 27.2309C88.3402 27.193 87.8845 27.161 87.4327 27.3628C87.2213 27.457 86.9673 27.4608 86.7317 27.4938C86.3662 27.5453 85.9939 27.5598 85.6361 27.6423C85.2968 27.7209 84.9313 27.8073 84.654 28.0004C84.3728 28.1954 84.0868 28.4089 83.8919 28.7398C83.6388 29.1697 83.5545 30.0731 83.8298 30.4894C84.0499 30.8223 84.3447 31.0823 84.6559 31.322C84.7393 31.386 84.8595 31.4326 84.9642 31.4336C85.6099 31.4414 86.2547 31.4375 86.9004 31.4297C86.9925 31.4287 87.0982 31.4016 87.1729 31.3511C87.5975 31.0629 88.0028 30.764 88.3421 30.3594C88.5322 30.1333 88.5632 29.8761 88.6922 29.6471C89.1255 28.8795 89.0383 28.078 88.8899 27.2309Z" fill="white"/>
<path d="M143.93 11.0963C144.024 11.4311 144.05 33.6965 143.955 34.3088C142.548 34.3088 141.136 34.3088 139.66 34.3088C139.632 34.1177 139.577 33.9187 139.577 33.7188C139.575 26.4895 139.579 19.2611 139.581 12.0318C139.581 11.8542 139.553 11.6766 139.555 11.5C139.558 11.206 139.671 11.0973 139.965 11.0973C141.287 11.0953 142.611 11.0963 143.93 11.0963Z" fill="white"/>
<path d="M97.6484 34.3234C97.6484 29.0436 97.6484 23.7831 97.6484 18.5033C99.0999 18.5033 100.528 18.5033 101.98 18.5033C101.98 18.9341 101.969 19.3349 101.985 19.7337C101.992 19.9055 102.032 20.0869 102.104 20.2422C102.192 20.4334 102.424 20.4431 102.519 20.2577C102.845 19.6289 103.439 19.2864 103.962 18.8691C104.032 18.8138 104.133 18.773 104.22 18.7701C104.424 18.7653 104.601 18.7313 104.734 18.5557C104.767 18.512 104.843 18.4771 104.899 18.4761C105.718 18.4577 106.536 18.2529 107.356 18.4683C107.386 18.4761 107.412 18.4965 107.47 18.5266C107.47 19.9268 107.47 21.3416 107.47 22.8069C107.32 22.8166 107.166 22.8351 107.011 22.836C106.43 22.8399 105.848 22.8331 105.266 22.8409C105.125 22.8428 104.966 22.8486 104.846 22.9117C104.457 23.1194 104.047 23.3125 103.708 23.59C103.267 23.952 102.912 24.3819 102.642 24.9224C102.397 25.4105 102.481 25.9316 102.271 26.3954C102.1 26.7758 102.115 27.1746 102.116 27.5773C102.121 29.6151 102.12 31.652 102.121 33.6898C102.121 33.7548 102.124 33.8198 102.12 33.8838C102.094 34.2526 102.012 34.3293 101.643 34.3283C100.593 34.3273 99.543 34.3254 98.492 34.3234C98.2234 34.3234 97.9519 34.3234 97.6484 34.3234Z" fill="white"/>
<path d="M110.554 18.4713C112.102 18.4713 113.622 18.4694 115.095 18.4723C115.089 19.0798 115.08 19.6057 115.08 20.1326C115.08 24.642 115.081 29.1514 115.082 33.6607C115.082 33.7257 115.086 33.7898 115.082 33.8548C115.061 34.2352 114.96 34.3293 114.577 34.3293C113.463 34.3283 112.349 34.3264 111.234 34.3245C111.028 34.3245 110.822 34.3245 110.625 34.3245C110.504 33.8839 110.444 20.1889 110.554 18.4713Z" fill="white"/>
<path d="M111.472 15.7067C111.267 15.5174 111.079 15.3893 110.951 15.2166C110.785 14.9954 110.508 14.8353 110.512 14.5044C110.513 14.4461 110.473 14.3782 110.433 14.3307C110.091 13.9221 110.125 13.4331 110.134 12.9488C110.136 12.8693 110.137 12.78 110.172 12.713C110.408 12.2657 110.601 11.7834 110.911 11.3923C111.105 11.1468 111.382 10.8955 111.78 10.8839C111.955 10.879 112.133 10.749 112.298 10.6549C112.664 10.4462 113.024 10.4171 113.397 10.6345C113.52 10.7063 113.65 10.7859 113.786 10.8121C114.49 10.946 114.833 11.5369 115.283 11.9901C115.34 12.0474 115.332 12.1677 115.358 12.2579C115.407 12.4268 115.433 12.6073 115.514 12.7586C115.704 13.1128 115.736 13.4505 115.518 13.8018C115.468 13.8823 115.417 13.9813 115.419 14.0716C115.426 14.5286 115.078 14.8129 114.884 15.1662C114.789 15.3399 114.568 15.4728 114.375 15.5582C113.949 15.7474 113.572 16.0822 113.054 16.0162C112.863 15.992 112.667 16.0201 112.473 16.0143C112.379 16.0114 112.24 16.0191 112.2 15.9648C111.993 15.6834 111.69 15.7251 111.472 15.7067Z" fill="white"/>
<path d="M18.5313 19.5892C18.8901 19.5892 19.1916 19.5892 19.4941 19.5892C21.7687 19.5892 24.0443 19.5815 26.3188 19.596C26.632 19.598 26.9587 19.6717 27.2554 19.7794C27.5919 19.9007 27.6462 20.5819 27.3466 20.7818C27.0576 20.9759 26.76 21.1331 26.377 21.1312C23.9085 21.1166 21.44 21.1253 18.9715 21.1244C18.6079 21.1244 18.4053 20.9303 18.5207 20.6353C18.6167 20.3898 18.6496 20.1947 18.5158 19.9599C18.4712 19.8803 18.5217 19.7445 18.5313 19.5892Z" fill="#FFC700"/>
</g>
<defs>
<clipPath id="clip0_90_7078">
<rect width="163.061" height="46" fill="white"/>
</clipPath>
</defs>
</svg>
