<svg width="196" height="46" viewBox="0 0 196 46" fill="none" xmlns="http://www.w3.org/2000/svg">
<g clip-path="url(#clip0_90_7036)">
<path d="M0 23.642C0.0329595 16.8654 2.05737 11.5358 6.16343 7.15738C10.5731 2.45482 16.0131 0.0140997 22.4819 -6.99952e-05C28.6627 -0.0124684 33.9553 2.18914 38.3371 6.53214C42.5681 10.7246 44.8232 15.9497 45.0678 21.9682C45.3402 28.7059 43.0729 34.542 38.4221 39.303C34.0333 43.7966 28.5655 46.0177 22.4003 45.9982C16.8666 45.9822 11.8429 44.0711 7.67957 40.2736C2.64891 35.6862 0.0832662 29.8802 0 23.642ZM22.6501 34.7475C22.6501 34.7439 22.6501 34.7404 22.6501 34.7351C24.5878 34.7351 26.5238 34.7528 28.4597 34.728C29.6098 34.7138 30.6107 34.3242 31.4486 33.4545C32.4756 32.39 33.1573 31.0882 33.9501 29.866C34.6231 28.8299 35.4246 27.9992 36.5348 27.466C36.8453 27.3173 37.2738 27.2092 37.2755 26.7115C37.2755 26.3573 37.2859 26.003 37.2738 25.6488C37.2651 25.4114 37.168 25.252 36.8904 25.3264C36.5886 25.4079 36.2832 25.477 35.9831 25.5655C35.0672 25.8365 34.153 26.1164 33.2371 26.3891C32.6057 26.5769 31.9829 26.8018 31.3393 26.9294C30.6732 27.0604 30.0782 27.2606 29.6202 27.8061C29.3617 28.1143 29.0773 28.4172 28.7511 28.6421C28.3088 28.9468 27.8369 29.3169 27.3356 29.402C26.5619 29.533 25.7518 29.448 24.9556 29.4516C24.6971 29.4533 24.5653 29.34 24.5618 29.053C24.5531 28.4402 24.508 27.8256 24.5098 27.2128C24.5098 27.11 24.6624 26.9311 24.7596 26.9205C25.1672 26.8745 25.5853 26.9081 25.9929 26.855C26.3312 26.8107 26.7822 26.793 26.9696 26.5751C27.8768 25.5159 28.7667 24.4302 29.5474 23.2736C29.9394 22.6926 30.2066 21.9611 30.3228 21.2633C30.5188 20.0978 30.073 19.028 29.5422 18.006C28.8864 16.7414 27.9809 15.6698 27.0077 14.6638C26.359 13.9925 25.594 13.4381 24.9053 12.804C24.7249 12.6375 24.5444 12.3789 24.5219 12.1469C24.4629 11.5323 24.5011 10.9088 24.4803 10.2906C24.4733 10.11 24.4334 9.90806 24.3432 9.75751C24.083 9.32179 23.429 8.97109 23.0751 9.10394C22.5409 9.30408 22.0465 9.57508 21.9996 10.2641C21.9701 10.7016 21.9285 11.1391 21.8973 11.5765C21.8782 11.8387 21.7967 11.9308 21.5104 11.8458C20.6622 11.5943 19.8052 11.3729 18.9483 11.155C18.8442 11.1284 18.6829 11.1692 18.6117 11.2436C18.5632 11.2949 18.5944 11.4703 18.6395 11.5659C19.0628 12.4887 19.5242 13.3938 19.9162 14.329C20.2077 15.0233 20.4419 15.746 20.6465 16.4722C20.827 17.1133 20.9501 17.774 21.0646 18.4311C21.1704 19.0351 21.3283 19.6532 21.2884 20.2555C21.2259 21.2243 21.0299 22.1932 20.5685 23.0593C20.003 24.1167 19.3802 25.144 18.7956 26.1908C18.7089 26.3449 18.6846 26.5362 18.6325 26.7097C18.8095 26.7487 18.9864 26.8195 19.1651 26.8231C19.9024 26.8355 20.6396 26.8284 21.3769 26.8284C21.7203 26.8284 21.9164 26.9577 21.9025 27.3509C21.8851 27.8911 21.8834 28.4331 21.9077 28.9716C21.9268 29.3789 21.7394 29.471 21.3838 29.4622C20.5598 29.4427 19.7358 29.4268 18.9136 29.4569C17.4529 29.51 16.4763 28.3516 16.4381 27.048C16.4277 26.7115 16.3098 26.5981 16.0114 26.5981C13.9592 26.5981 11.9071 26.5964 9.8549 26.5893C9.56174 26.5875 9.43163 26.7363 9.41429 27.0108C9.40388 27.1862 9.39347 27.3686 9.42469 27.5404C9.62072 28.6598 9.86184 29.758 10.4187 30.7729C10.9755 31.7896 11.7162 32.6362 12.6252 33.2969C14.0286 34.3153 15.6384 34.7475 17.3575 34.7492C19.1235 34.7492 20.8859 34.7475 22.6501 34.7475ZM11.064 23.9502C11.5775 24.0033 12.0164 24.0813 12.4587 24.0866C13.7597 24.1043 15.0625 24.0476 16.3601 24.1096C17.1199 24.1468 17.6021 23.959 17.9647 23.2205C18.4764 22.179 19.0402 21.1659 18.95 19.9614C18.8893 19.152 18.7713 18.3337 18.5701 17.5491C18.3151 16.5536 17.9595 15.5848 17.6264 14.6124C17.5726 14.4548 17.4061 14.2174 17.3072 14.2245C17.1494 14.2351 16.9568 14.391 16.8614 14.5398C15.8015 16.1976 14.7555 17.8661 13.7077 19.531C12.9305 20.7656 12.1534 21.9983 11.3849 23.2382C11.26 23.4401 11.1872 23.6721 11.064 23.9502Z" fill="#3D81E3"/>
<path d="M65.9819 12.8651C66.6029 12.8651 67.2344 12.7943 67.8433 12.8846C68.4816 12.9785 69.1061 13.1963 69.7202 13.4124C70.3031 13.6161 70.8669 13.8747 71.4289 14.1333C72.5131 14.6328 73.403 15.3997 74.2305 16.2587C75.0978 17.1585 75.7761 18.2035 76.2479 19.3442C76.6001 20.1944 76.921 21.0941 76.9019 22.0736C76.8846 22.9946 77.0147 23.9192 76.9904 24.8402C76.9592 25.9951 76.7146 27.134 76.2584 28.1861C75.6217 29.6508 74.6676 30.8942 73.5019 31.9835C72.6241 32.8036 71.6301 33.4359 70.5529 33.8628C69.5346 34.2666 68.4886 34.6864 67.3402 34.6421C66.8007 34.6209 66.256 34.782 65.7148 34.7732C64.9845 34.7608 64.2455 34.7147 63.5256 34.5854C62.9635 34.4845 62.4119 34.2719 61.8793 34.047C61.1785 33.7494 60.4915 33.4093 59.8167 33.0551C58.658 32.4458 57.6865 31.585 56.9441 30.501C56.3716 29.6668 55.8512 28.7812 55.4193 27.8637C55.1642 27.3199 55.1885 26.6433 54.9752 26.073C54.5883 25.0422 54.6941 23.9848 54.7045 22.9344C54.7097 22.4899 54.8468 22.0453 54.9422 21.6043C55.0671 21.0251 55.166 20.4353 55.3585 19.8791C55.5546 19.3141 55.8044 18.7579 56.1097 18.2478C56.899 16.9265 57.8687 15.7593 59.1454 14.8967C60.0006 14.3175 60.9113 13.8623 61.8793 13.4762C62.4049 13.2672 62.9444 13.1822 63.4631 13.0476C64.2715 12.8368 65.1371 12.8492 65.9784 12.7677C65.9784 12.7996 65.9802 12.8332 65.9819 12.8651ZM65.9472 29.7961C66.4434 29.7961 66.9898 29.9218 67.4425 29.7677C68.152 29.5251 68.8719 29.185 69.4548 28.7139C70.029 28.2498 70.4956 27.6104 70.8964 26.9728C71.1514 26.5672 71.1618 26.0092 71.3543 25.5505C71.9667 24.0928 71.6215 22.6422 71.219 21.2589C70.9311 20.2705 70.2788 19.4044 69.4184 18.7615C68.5267 18.0973 67.5726 17.635 66.4399 17.6491C66.0201 17.6545 65.5951 17.6031 65.1839 17.6615C64.5976 17.7466 63.9801 17.8156 63.451 18.0583C62.4743 18.5064 61.6347 19.1901 61.1213 20.1749C60.8055 20.7806 60.5106 21.4378 60.4048 22.1055C60.2799 22.9025 60.4048 23.7386 60.351 24.5515C60.2886 25.4814 60.6234 26.2856 60.9998 27.0826C61.515 28.1754 62.3702 28.9565 63.4267 29.4241C64.2021 29.7695 65.0556 29.9962 65.9472 29.7961Z" fill="white"/>
<path d="M85.3542 32.584C85.3542 33.3243 85.3542 33.9265 85.3542 34.5305C85.3542 36.0059 85.3559 37.4831 85.3559 38.9585C85.3559 39.5147 85.2657 39.6174 84.7297 39.6192C83.2846 39.6245 81.8379 39.6139 80.3929 39.6245C80.0685 39.6263 79.9505 39.4828 79.9505 39.1782C79.9523 38.367 79.9488 37.554 79.9488 36.7428C79.9471 30.5878 79.947 24.4329 79.9453 18.2797C79.9453 18.161 79.9523 18.0441 79.947 17.9255C79.928 17.55 80.0876 17.4118 80.4657 17.4171C81.8674 17.4366 83.2708 17.4366 84.6724 17.4189C85.2501 17.4118 85.3836 17.6474 85.3594 18.1132C85.3368 18.5241 85.3542 18.9368 85.3542 19.4274C85.5016 19.3725 85.6265 19.3655 85.6803 19.2981C86.2232 18.6038 86.9241 18.0902 87.7064 17.7714C88.3691 17.5004 89.1046 17.341 89.8193 17.2967C90.6763 17.2435 91.5714 17.2435 92.4006 17.4384C93.9757 17.8086 95.3409 18.6198 96.3037 19.9978C96.7113 20.5823 97.0964 21.1933 97.4087 21.8345C97.6307 22.2897 97.714 22.8158 97.8562 23.3117C97.8753 23.3808 97.8562 23.4658 97.884 23.5296C98.4738 24.8898 98.2743 26.3422 98.1164 27.7061C97.9222 29.3923 97.2612 31.0023 96.1077 32.3041C95.5005 32.9896 94.7789 33.5333 93.9566 33.9708C92.8117 34.5819 91.6078 34.8316 90.3519 34.798C89.1827 34.7661 88.0221 34.5571 87.0143 33.8894C86.5459 33.5794 86.14 33.1685 85.7028 32.8071C85.6265 32.7452 85.5346 32.6991 85.3542 32.584ZM85.3732 25.9579C85.257 26.8098 85.3767 27.5874 85.7965 28.3047C86.2562 29.0912 86.9137 29.5871 87.7619 29.9236C88.8461 30.354 89.8592 30.2212 90.7977 29.6668C91.7171 29.1213 92.3381 28.3154 92.5393 27.1641C92.744 25.9862 92.7249 24.8845 92.1837 23.8059C91.58 22.6032 90.5479 22.0807 89.3145 21.8611C88.6154 21.7371 87.9562 21.9603 87.363 22.2525C86.872 22.4952 86.4002 22.8884 86.0654 23.3294C85.4843 24.091 85.1859 24.9908 85.3732 25.9579Z" fill="white"/>
<path d="M190.598 19.5001C190.612 19.3088 190.636 19.1158 190.638 18.9245C190.643 18.5419 190.645 18.1576 190.636 17.775C190.631 17.5465 190.7 17.4101 190.952 17.4119C192.498 17.419 194.043 17.419 195.589 17.4243C195.957 17.4261 195.988 17.7024 195.993 17.9734C196.005 18.4604 195.998 18.9475 195.998 19.4328C195.998 24.2718 195.998 29.1107 195.997 33.9479C195.997 34.5448 195.936 34.6085 195.355 34.6085C193.953 34.6085 192.551 34.5926 191.15 34.6174C190.716 34.6245 190.595 34.4704 190.631 34.0524C190.666 33.6432 190.647 33.227 190.633 32.8143C190.629 32.7151 190.551 32.6195 190.508 32.5238C190.43 32.5716 190.331 32.6035 190.279 32.6708C189.759 33.3474 189.058 33.7938 188.326 34.1657C187.88 34.3924 187.372 34.5182 186.877 34.6032C186.216 34.7148 185.529 34.853 184.877 34.7768C184.188 34.6971 183.495 34.605 182.804 34.3606C181.515 33.9054 180.469 33.1579 179.633 32.1164C179.159 31.5266 178.814 30.8181 178.473 30.1309C178.219 29.619 178.065 29.0576 177.869 28.5156C177.85 28.4607 177.836 28.4022 177.831 28.3438C177.773 27.4794 177.68 26.6151 177.678 25.7507C177.676 25.0192 177.676 24.2576 177.862 23.5633C178.105 22.6529 178.462 21.7531 178.899 20.9206C179.395 19.9766 180.088 19.1618 180.99 18.5685C181.954 17.9344 182.971 17.3782 184.129 17.3233C185.174 17.2737 186.256 17.2418 187.268 17.4632C188.454 17.7236 189.543 18.3276 190.312 19.3744C190.352 19.4293 190.411 19.47 190.461 19.5178C190.508 19.5108 190.553 19.5054 190.598 19.5001ZM183.177 25.9119C183.125 27.0012 183.399 27.9258 184.025 28.737C184.45 29.2878 184.99 29.6509 185.633 29.9219C186.704 30.3718 187.713 30.2336 188.652 29.6598C189.51 29.1337 190.092 28.3969 190.395 27.3324C190.843 25.7596 190.619 24.3816 189.613 23.1878C188.284 21.6096 186.704 21.491 185.188 22.2774C183.802 22.993 183.071 24.3001 183.177 25.9119Z" fill="white"/>
<path d="M153.35 19.245C152.512 19.245 151.672 19.2433 150.835 19.245C150.58 19.245 150.389 19.2025 150.371 18.8696C150.337 18.1841 149.87 17.7891 149.37 17.442C148.777 17.031 148.101 17.0186 147.422 17.0842C146.661 17.1568 145.963 17.9042 145.915 18.6783C145.847 19.7552 146.114 20.1856 147.091 20.6195C147.698 20.8887 148.286 21.2075 148.902 21.4502C149.36 21.6309 149.856 21.7123 150.326 21.8664C150.864 22.0436 151.402 22.2295 151.924 22.4492C152.939 22.8778 153.978 23.3064 154.771 24.0999C155.34 24.6702 155.926 25.3203 156.219 26.0553C156.665 27.173 156.88 28.3862 156.361 29.5977C156.177 30.0264 156.162 30.5436 155.928 30.9332C155.563 31.5408 155.133 32.1288 154.63 32.6194C154.162 33.0782 153.586 33.4377 153.015 33.7672C152.606 34.0027 152.096 34.0576 151.692 34.2985C150.911 34.7644 150.033 34.5359 149.216 34.7396C148.742 34.8582 148.212 34.7573 147.709 34.736C147.511 34.7272 147.306 34.6103 147.119 34.6386C146.303 34.7626 145.528 34.4774 144.824 34.2153C143.027 33.544 141.41 32.545 140.647 30.602C140.385 29.936 140.204 29.2311 140.031 28.5332C139.947 28.202 140.18 28.055 140.489 28.055C141.183 28.0533 141.876 28.0568 142.57 28.0568C143.509 28.055 144.449 28.0497 145.388 28.0462C145.686 28.0444 145.891 28.1684 145.922 28.4925C145.981 29.0983 146.326 29.518 146.734 29.9272C147.461 30.6569 149.762 30.556 150.34 29.867C150.831 29.2807 151.204 28.4943 150.687 27.7096C150.331 27.1694 149.87 26.8807 149.344 26.6203C148.958 26.4273 148.579 26.2112 148.177 26.0624C147.688 25.8818 147.173 25.7808 146.678 25.6143C145.901 25.3522 145.122 25.0936 144.366 24.7765C143.708 24.5002 143.028 24.2221 142.459 23.8024C141.561 23.1382 140.794 22.311 140.388 21.2199C140.279 20.9259 140.291 20.5858 140.209 20.2777C139.925 19.2149 140.154 18.154 140.416 17.1657C140.714 16.0392 141.5 15.1536 142.426 14.4309C142.959 14.0147 143.521 13.687 144.177 13.5117C144.636 13.3894 145.072 13.1751 145.53 13.0441C145.858 12.9502 146.203 12.8793 146.541 12.874C147.624 12.8528 148.71 12.8457 149.792 12.8758C150.155 12.8864 150.517 13.0051 150.873 13.106C151.317 13.2318 151.775 13.3416 152.189 13.5418C152.835 13.8553 153.487 14.1812 154.061 14.6063C154.913 15.2386 155.525 16.1118 155.909 17.109C156.118 17.6527 156.176 18.2585 156.295 18.8377C156.361 19.1547 156.203 19.2504 155.91 19.2468C155.057 19.238 154.203 19.245 153.35 19.245Z" fill="white"/>
<path d="M158.747 25.9845C158.747 25.3504 158.7 24.711 158.763 24.084C158.81 23.6005 158.954 23.1169 159.122 22.6582C159.632 21.2731 160.395 20.0315 161.547 19.1335C162.444 18.4339 163.445 17.8954 164.579 17.5996C165.799 17.2826 167.015 17.2383 168.248 17.2773C169.369 17.3127 170.467 17.543 171.477 18.0212C172.828 18.6624 173.912 19.6436 174.757 20.926C175.317 21.7761 175.597 22.7202 175.902 23.666C175.937 23.7741 175.923 23.8998 175.931 24.0167C175.97 24.4985 176.037 24.9803 176.035 25.462C176.032 26.0022 175.976 26.5442 175.914 27.0827C175.904 27.1659 175.742 27.2952 175.65 27.297C174.153 27.3129 172.656 27.3218 171.159 27.3094C170.203 27.3005 169.249 27.2403 168.293 27.2261C167.22 27.2102 166.144 27.2173 165.07 27.2208C164.821 27.2208 164.566 27.2208 164.324 27.2775C164.231 27.2988 164.123 27.467 164.106 27.5822C164.019 28.156 164.305 28.6573 164.583 29.0841C165.426 30.3771 166.737 30.6021 168.099 30.3506C168.751 30.2301 169.392 29.8599 169.732 29.1479C169.811 28.9796 170.092 28.8185 170.283 28.8149C171.959 28.7883 173.635 28.8007 175.31 28.7972C175.69 28.7972 175.65 29.0434 175.571 29.279C174.866 31.3566 173.522 32.8905 171.614 33.854C170.798 34.2649 169.936 34.667 168.961 34.6351C168.512 34.6209 168.056 34.8034 167.605 34.7981C166.505 34.7839 165.433 34.6404 164.354 34.3234C162.376 33.7424 160.923 32.5238 159.838 30.8182C159.455 30.2159 159.276 29.4756 159.014 28.799C158.65 27.8514 158.832 26.9162 158.747 25.9845ZM167.277 24.3479C168.2 24.3479 169.123 24.3462 170.046 24.3479C170.354 24.3479 170.592 24.2239 170.51 23.8839C170.386 23.3525 170.203 22.8265 169.787 22.451C168.993 21.7354 168.068 21.4095 166.999 21.5105C166.179 21.5866 165.454 21.8895 164.912 22.5112C164.59 22.8814 164.366 23.3472 164.139 23.7918C163.969 24.1283 164.134 24.3462 164.508 24.3462C165.431 24.3497 166.354 24.3479 167.277 24.3479Z" fill="white"/>
<path d="M108.62 17.2189C109.368 17.2862 110.107 17.3021 110.827 17.4314C111.334 17.5235 111.802 17.8175 112.307 17.9398C113.164 18.1488 113.838 18.6748 114.479 19.2239C115.469 20.0705 116.224 21.1155 116.605 22.4032C116.781 22.9948 117.042 23.5757 117.115 24.1815C117.226 25.0954 117.261 26.0271 117.223 26.9463C117.206 27.3838 116.711 27.297 116.408 27.3023C115.238 27.3236 114.069 27.3183 112.9 27.3059C112.359 27.3006 111.819 27.2421 111.278 27.2297C110.61 27.2156 109.941 27.2244 109.273 27.2244C108.15 27.2244 107.028 27.2226 105.907 27.2262C105.324 27.228 105.257 27.3059 105.311 27.8904C105.399 28.8628 106.225 29.821 107.083 30.1947C107.751 30.4852 108.419 30.4551 109.068 30.3718C109.8 30.278 110.487 29.9344 110.86 29.2099C111.035 28.8699 111.257 28.7813 111.613 28.7866C113.131 28.8079 114.649 28.8043 116.166 28.8079C116.744 28.8079 116.774 28.8575 116.619 29.4065C116.272 30.6517 115.578 31.6772 114.666 32.5433C113.884 33.2855 112.98 33.8806 111.975 34.2313C110.657 34.69 109.269 34.9664 107.881 34.768C107.122 34.6599 106.343 34.6794 105.581 34.3535C104.873 34.0489 104.129 33.808 103.489 33.3794C102.905 32.9879 102.356 32.5115 101.876 31.9907C101.428 31.5054 101.061 30.9298 100.717 30.3577C100.518 30.0265 100.401 29.6315 100.302 29.2507C100.126 28.5599 99.9208 27.8656 99.8567 27.1607C99.7855 26.3813 99.841 25.5878 99.8775 24.8014C99.8931 24.4684 99.9815 24.1354 100.067 23.8095C100.256 23.0869 100.351 22.3093 100.686 21.6611C101.329 20.4177 102.23 19.3585 103.449 18.6394C104.018 18.3046 104.594 17.9699 105.194 17.6989C105.552 17.5377 105.959 17.4668 106.351 17.419C107.109 17.3287 107.871 17.2826 108.62 17.2189ZM108.485 24.3444C108.485 24.3462 108.485 24.348 108.485 24.3497C109.394 24.3497 110.301 24.3409 111.21 24.3551C111.5 24.3604 111.578 24.247 111.587 23.9689C111.613 23.1985 111.254 22.637 110.667 22.2243C110.348 21.9994 109.984 21.8311 109.62 21.6894C108.61 21.2962 107.632 21.468 106.717 21.9852C106.114 22.327 105.717 22.9044 105.39 23.5191C105.132 24.0061 105.326 24.348 105.847 24.348C106.726 24.3444 107.606 24.3444 108.485 24.3444Z" fill="white"/>
<path d="M119.891 25.9862C119.891 23.3896 119.891 20.793 119.891 18.1947C119.891 17.4773 119.944 17.4242 120.659 17.426C122.004 17.426 123.348 17.4242 124.691 17.426C125.268 17.4277 125.424 17.6367 125.329 18.2124C125.289 18.4568 125.291 18.7119 125.298 18.9616C125.301 19.0466 125.364 19.1688 125.433 19.2007C125.489 19.2273 125.6 19.1547 125.674 19.1051C126.392 18.6446 127.081 18.1203 127.836 17.7359C128.276 17.511 128.821 17.4968 129.322 17.4065C129.619 17.3516 129.924 17.2754 130.217 17.3055C131.168 17.4012 132.148 17.4224 133.052 17.697C134.027 17.9945 134.813 18.6888 135.515 19.4717C136.147 20.1766 136.533 21.018 136.823 21.8788C137.071 22.6121 137.184 23.425 137.194 24.2044C137.236 27.4492 137.215 30.6958 137.215 33.9425C137.215 34.5022 137.109 34.6049 136.546 34.6067C135.173 34.6102 133.8 34.6067 132.427 34.6067C131.89 34.6067 131.824 34.5447 131.824 34.0027C131.822 31.066 131.853 28.1294 131.803 25.1945C131.784 24.0857 131.458 23.0371 130.485 22.3535C130.087 22.0736 129.685 21.8044 129.157 21.8451C128.785 21.8735 128.406 21.8451 128.032 21.8504C126.999 21.8646 125.957 22.6174 125.615 23.6358C125.49 24.0078 125.398 24.4134 125.395 24.803C125.374 27.0755 125.386 29.348 125.384 31.6204C125.384 32.3927 125.419 33.1667 125.36 33.9336C125.325 34.3746 125.282 34.6208 124.671 34.6137C123.299 34.5978 121.925 34.6084 120.553 34.6067C119.957 34.6067 119.892 34.5429 119.892 33.9088C119.891 31.2679 119.891 28.6271 119.891 25.9844C119.892 25.9862 119.892 25.9862 119.891 25.9862Z" fill="white"/>
</g>
<defs>
<clipPath id="clip0_90_7036">
<rect width="196" height="46" fill="white"/>
</clipPath>
</defs>
</svg>
