<svg width="196" height="46" viewBox="0 0 196 46" fill="none" xmlns="http://www.w3.org/2000/svg">
<g clip-path="url(#clip0_90_7049)">
<path d="M34.6409 24.2636C34.6409 21.9587 34.6207 19.6539 34.6692 17.349C34.6773 17.064 35.049 16.5518 35.2672 16.5436C38.3462 16.4279 41.4454 16.0107 44.488 16.936C46.9972 17.7001 47.5912 21.1822 46.1002 22.8509C45.1345 23.9332 45.1426 23.9951 46.2578 24.8171C47.6074 25.8126 47.9387 27.2128 47.6922 28.7329C47.4498 30.2364 46.3871 31.1699 45.0617 31.7606C44.6375 31.9506 44.1526 32.0621 43.692 32.0787C41.1706 32.1571 38.6452 32.2439 36.1238 32.2274C34.7096 32.2191 34.653 32.0745 34.649 30.666C34.6409 28.5305 34.6449 26.3991 34.6409 24.2636C34.6449 24.2636 34.6449 24.2636 34.6409 24.2636ZM40.8352 29.3153C40.8352 29.2988 40.8352 29.2823 40.8352 29.2657C41.5747 29.2657 42.3141 29.307 43.0495 29.2575C43.9465 29.1955 44.4354 28.6503 44.5324 27.7374C44.6415 26.7006 44.1688 25.9076 43.0535 25.7878C41.5625 25.6226 40.0473 25.668 38.5442 25.7093C38.2896 25.7176 37.8977 26.1141 37.829 26.3991C37.6916 26.9526 37.6835 27.5598 37.7239 28.134C37.7805 28.9105 38.1482 29.402 39.025 29.3277C39.623 29.274 40.2291 29.3153 40.8352 29.3153ZM40.4433 22.9046C40.4433 22.8757 40.4433 22.8468 40.4433 22.8179C41.013 22.8179 41.5868 22.8633 42.1525 22.8096C43.1182 22.7146 43.7202 21.9257 43.692 20.8807C43.6637 19.8108 43.2313 19.34 42.1404 19.2739C41.0373 19.2119 39.9261 19.1913 38.823 19.1582C38.1724 19.1376 37.8573 19.4556 37.7845 20.1289C37.5098 22.5907 37.8451 22.9831 40.2453 22.9046C40.3059 22.9005 40.3746 22.9046 40.4433 22.9046Z" fill="#FFF500"/>
<path d="M106.147 25.7052C106.188 25.2756 106.257 24.8419 106.257 24.4123C106.277 22.1074 106.309 19.8026 106.273 17.4977C106.261 16.7005 106.495 16.399 107.291 16.3825C109.323 16.3453 109.331 16.3164 109.336 18.3775C109.344 22.5081 109.356 26.6346 109.323 30.7651C109.319 31.2443 109.101 32.0952 108.883 32.1323C108.034 32.2769 106.996 32.6445 106.337 31.7895C104.681 29.6334 103.113 27.407 101.497 25.2178C100.951 24.4784 100.369 23.7679 99.7834 23.0616C99.4076 22.6072 99.0521 22.7188 98.8864 23.2351C98.7773 23.5821 98.7935 23.9827 98.7935 24.3545C98.7894 26.5891 98.7652 28.8279 98.8056 31.0625C98.8218 31.9837 98.5389 32.3554 97.5853 32.3182C95.6498 32.2439 95.6014 32.248 95.6014 30.286C95.5973 26.2256 95.5771 22.1653 95.6256 18.1049C95.6337 17.5638 95.8438 16.8368 96.2196 16.5353C96.8014 16.0685 98.5308 16.4196 98.9389 16.9277C99.7673 17.9603 100.571 19.0178 101.367 20.0752C102.592 21.7026 103.792 23.3507 105.02 24.9782C105.259 25.2921 105.582 25.5358 105.865 25.8126C105.962 25.7754 106.055 25.7424 106.147 25.7052Z" fill="#FFF500"/>
<path d="M70.3649 25.4697C70.4215 24.7303 70.5265 23.9868 70.5306 23.2475C70.5386 21.3887 70.5023 19.5341 70.474 17.6753C70.4619 16.9855 70.4295 16.3701 71.4114 16.3535C73.0721 16.3246 73.557 16.5312 73.5732 17.6216C73.6176 20.5791 73.6176 23.5366 73.6297 26.4982C73.6378 28.0802 73.6176 29.6623 73.6419 31.2443C73.654 32.0373 73.3671 32.2645 72.567 32.3058C71.2053 32.376 70.4821 31.7317 69.7346 30.6453C67.9203 28.0142 65.9444 25.4986 64.017 22.9501C63.8958 22.7931 63.6372 22.7435 63.4392 22.6485C63.3382 22.917 63.1523 23.1855 63.1483 23.4581C63.1119 25.9695 63.0473 28.4809 63.12 30.9882C63.1483 32.0456 62.7361 32.3265 61.8391 32.2728C61.5037 32.2521 61.1158 32.3554 60.8451 32.215C60.5259 32.0497 60.0814 31.6862 60.0774 31.4054C60.0329 26.6593 60.0531 21.9092 60.041 17.1631C60.041 16.5394 60.3804 16.5022 60.8613 16.3948C62.8856 15.9446 63.7382 17.4481 64.708 18.741C66.1747 20.6989 67.6011 22.6898 69.0678 24.6477C69.3345 25.0071 69.7022 25.288 70.0214 25.606C70.1346 25.5647 70.2518 25.5193 70.3649 25.4697Z" fill="#FFF500"/>
<path d="M154.907 21.4547C154.907 23.0987 154.907 24.7385 154.907 26.3825C154.907 27.9976 154.882 29.6168 154.919 31.2318C154.935 31.934 154.721 32.2273 153.997 32.1901C151.779 32.0786 152.013 32.6362 152.005 30.1785C151.993 25.8455 152.005 21.5084 151.969 17.1755C151.961 16.4196 152.175 16.1263 152.939 16.1387C153.957 16.1552 154.777 16.1924 155.517 17.2374C157.735 20.3808 160.139 23.3837 162.475 26.4403C162.531 26.5147 162.62 26.5684 162.846 26.7625C162.887 26.3619 162.935 26.0892 162.939 25.8166C162.955 22.9954 162.96 20.1743 162.976 17.3531C162.984 16.1511 163.057 16.1593 164.822 16.1387C165.796 16.1263 165.768 16.6261 165.76 17.3737C165.727 21.9504 165.723 26.5271 165.772 31.0996C165.78 31.9836 165.529 32.1653 164.705 32.2025C163.691 32.2438 163.04 31.9092 162.434 31.0872C160.325 28.2082 158.155 25.3788 156.006 22.5287C155.723 22.1528 155.432 21.781 155.145 21.4052C155.064 21.4176 154.983 21.4341 154.907 21.4547Z" fill="white"/>
<path d="M140.76 22.8963C141.063 25.763 140.922 25.9034 138.267 25.7547C137.059 25.6886 135.847 25.6845 134.634 25.6638C133.83 25.6473 133.418 25.9736 133.394 26.8865C133.325 29.3855 133.297 29.3772 135.802 29.3607C137.515 29.3483 139.233 29.3855 140.95 29.3607C142 29.3442 142.041 30.034 142.033 30.8105C142.025 31.5664 142.017 32.2934 140.962 32.281C137.766 32.2438 134.57 32.2273 131.378 32.219C130.602 32.219 130.238 31.9506 130.246 31.0749C130.287 26.5354 130.287 21.9959 130.266 17.4564C130.262 16.6839 130.537 16.4361 131.26 16.4402C134.457 16.4568 137.653 16.4526 140.849 16.4196C141.706 16.4113 142.057 16.7294 142.013 17.6381C141.944 19.121 141.843 19.3399 140.772 19.3399C138.857 19.344 136.938 19.3275 135.018 19.3151C133.539 19.3027 133.414 19.4225 133.394 20.9302C133.39 21.1367 133.406 21.3474 133.378 21.5498C133.24 22.5039 133.673 22.8592 134.57 22.8509C136.352 22.8344 138.134 22.855 139.92 22.8633C140.178 22.8592 140.441 22.8798 140.76 22.8963Z" fill="#FFF500"/>
<path d="M84.8952 16.2875C85.7599 16.0066 86.1519 16.494 86.5479 17.4647C88.4187 22.0909 90.4107 26.6635 92.3422 31.2608C92.7139 32.1489 92.5361 32.2232 91.5785 32.3017C89.9582 32.438 88.9965 31.8515 88.6207 30.1951C88.3621 29.0509 87.554 28.6709 86.4186 28.737C85.0124 28.8196 83.5941 28.7949 82.184 28.7701C81.4203 28.7577 81.0122 29.1707 80.7334 29.8151C80.596 30.129 80.4788 30.4471 80.3333 30.7527C79.5575 32.3595 79.109 32.5661 77.416 32.153C76.6967 31.9795 76.8543 31.488 77.0362 31.0295C77.719 29.3153 78.41 27.6052 79.1171 25.8993C79.9656 23.8464 80.8303 21.8018 81.691 19.753C81.9536 19.1252 82.2688 18.5221 82.4991 17.8819C83.0285 16.3866 83.1497 16.2792 84.8952 16.2875ZM84.5922 25.9117C84.9922 25.8828 85.4488 25.9695 85.7721 25.7919C86.0792 25.6267 86.4994 25.1104 86.4307 24.8915C86.067 23.7308 85.6104 22.5949 85.0932 21.5003C84.8265 20.9385 84.3821 21.05 84.1073 21.5705C83.7598 22.2314 83.3921 22.8964 83.1456 23.5986C82.4143 25.7011 82.4345 25.7093 84.5922 25.9117Z" fill="#FFF500"/>
<path d="M121.283 16.1635C123.251 15.957 124.887 16.7129 126.378 17.9397C126.839 18.3197 126.891 18.646 126.479 19.1334C125.194 20.6452 125.21 20.6576 123.429 19.7158C121.679 18.7864 118.939 19.0797 117.788 20.385C115.537 22.9377 115.747 27.25 118.794 28.8939C120.374 29.7448 122.091 29.6375 123.719 28.7948C123.776 28.7659 123.812 28.6915 123.873 28.6626C124.334 28.4231 124.94 27.882 125.231 28.0183C125.833 28.3033 126.305 28.927 126.754 29.4764C126.871 29.6209 126.798 30.1249 126.641 30.2736C125.433 31.4053 124.043 32.1488 122.378 32.3554C119.897 32.661 117.634 32.1654 115.654 30.571C114.333 29.5094 113.573 28.0141 113.206 26.4197C112.062 21.4754 114.927 17.3986 119.275 16.2792C119.913 16.1139 120.612 16.1966 121.283 16.1635Z" fill="#FFF500"/>
<path d="M172.586 18.9103C172.586 20.3065 172.586 21.6241 172.586 23.0492C174.848 23.0492 177.063 23.0822 179.273 23.0326C180.113 23.012 180.493 23.1896 180.449 24.1561C180.38 25.6473 180.412 25.701 179.237 25.7092C177.321 25.7216 175.402 25.7464 173.487 25.6969C172.727 25.6803 172.489 25.9529 172.509 26.7047C172.553 28.2165 172.501 29.7324 172.529 31.2442C172.545 31.9464 172.319 32.2108 171.6 32.1984C169.183 32.1529 169.636 32.3677 169.624 30.1661C169.6 25.9364 169.636 21.7067 169.6 17.4811C169.592 16.5187 169.858 16.1387 170.86 16.1552C173.955 16.2089 177.051 16.2378 180.142 16.147C181.374 16.1098 181.269 16.7913 181.318 17.6257C181.37 18.5881 181.099 18.964 180.085 18.9351C177.628 18.8607 175.176 18.9103 172.586 18.9103Z" fill="white"/>
<path d="M13.7637 38.6462C13.5293 38.4562 13.2828 38.2868 13.0768 38.0803C11.913 36.899 10.7574 35.7093 9.59775 34.5239C8.41384 33.3136 7.24609 32.0786 6.02582 30.9014C5.48841 30.3809 5.47225 29.9141 5.91672 29.3978C6.47029 28.7535 7.05618 28.1339 7.62592 27.506C8.05422 27.0351 8.45021 27.1673 8.83407 27.568C10.0988 28.898 11.3918 30.2033 12.6202 31.5664C13.4889 32.5288 13.9536 32.5495 14.8344 31.5912C16.0749 30.2446 17.3518 28.9311 18.6003 27.5886C19.1095 27.0393 19.5539 27.0517 20.0226 27.6382C20.2974 27.981 20.6126 28.295 20.9197 28.613C22.2006 29.9389 22.2692 30.2033 20.9924 31.554C18.8226 33.8465 16.5638 36.0481 14.3334 38.2827C14.196 38.4149 14.0021 38.4934 13.7637 38.6462Z" fill="#FFF500"/>
<path d="M13.7866 10.17C14.0614 10.3559 14.3725 10.5005 14.5947 10.7277C16.906 13.078 19.2011 15.4489 21.5123 17.7992C22.0295 18.3238 22.171 18.8153 21.6134 19.3895C21.0477 19.9719 20.5305 20.6163 19.8961 21.1119C19.6577 21.2978 19.0152 21.2978 18.8051 21.1037C17.3424 19.7447 15.9282 18.3321 14.5341 16.8988C13.9199 16.2709 13.4351 16.4361 12.9017 16.9731C11.5602 18.3155 10.1823 19.6249 8.87317 20.9963C8.35597 21.5374 7.96807 21.6076 7.46298 21.0376C6.96598 20.48 6.43262 19.9595 5.91945 19.4143C5.40225 18.8649 5.43458 18.3031 5.94774 17.7827C8.32768 15.3622 10.7157 12.9499 13.1118 10.5459C13.2734 10.389 13.5159 10.3187 13.7866 10.17Z" fill="#FFF500"/>
<path d="M189.483 16.1635C191.297 16.1635 193.115 16.2089 194.929 16.1469C195.923 16.1139 195.996 16.655 196 17.4316C196.004 18.2494 196.016 18.9723 194.905 18.9351C194 18.9062 193.075 19.0631 192.186 18.9309C191.079 18.7699 190.953 19.3275 190.962 20.2073C190.982 23.5737 190.978 26.9443 190.978 30.3107C190.978 32.124 190.242 32.6775 188.501 32.0992C188.283 32.0249 188.068 31.5457 188.064 31.2525C188.036 27.6423 188.036 24.0363 188.048 20.4262C188.052 18.9186 188.068 18.9186 186.586 18.9186C185.745 18.9186 184.905 18.9103 184.064 18.9268C183.389 18.9433 183.111 18.6459 183.094 17.9396C183.05 16.1924 183.034 16.1759 184.747 16.1635C186.323 16.1552 187.903 16.1635 189.483 16.1635Z" fill="white"/>
<path d="M55.1312 24.3669C55.1312 26.6346 55.1029 28.9023 55.1473 31.1658C55.1635 32.0332 54.8402 32.2976 54.0281 32.3059C51.9512 32.3306 51.9714 32.3554 51.9552 30.2406C51.9229 26.2256 51.8421 22.2066 51.834 18.1917C51.834 17.6341 52.0239 16.6675 52.2987 16.5973C53.1068 16.3866 54.0079 16.4981 54.8645 16.5808C54.9857 16.5931 55.1312 17.1549 55.1352 17.4647C55.1595 19.7654 55.1473 22.0662 55.1473 24.3669C55.1352 24.3669 55.1312 24.3669 55.1312 24.3669Z" fill="#FFF500"/>
<path d="M24.8828 21.4382C25.0808 21.5745 25.2909 21.6778 25.4565 21.8389C26.0384 22.4048 26.596 22.9996 27.1859 23.5572C27.7516 24.0942 27.7314 24.6105 27.2021 25.1351C26.697 25.6349 26.1717 26.114 25.6666 26.6097C25.1212 27.1426 24.5878 27.0723 24.0787 26.5725C23.4766 25.9777 22.8705 25.3912 22.325 24.7468C22.1796 24.5775 22.1311 24.0942 22.2523 23.9538C22.9635 23.14 23.7352 22.3841 24.4989 21.6158C24.5797 21.5291 24.7292 21.5043 24.8828 21.4382Z" fill="#FFF500"/>
<path d="M16.5143 24.3337C16.4496 24.4659 16.4052 24.6394 16.3001 24.7551C15.6779 25.4283 15.0516 26.0975 14.4051 26.746C13.9647 27.188 13.4636 27.1384 13.0717 26.7047C12.3767 25.9364 11.1524 25.0772 11.2089 24.3379C11.2736 23.4787 12.4413 22.6691 13.209 21.9256C13.4151 21.7273 14.0535 21.6695 14.2515 21.8389C15.0152 22.4998 15.6819 23.2763 16.3769 24.0157C16.4375 24.0818 16.4577 24.1974 16.5143 24.3337Z" fill="#FFF500"/>
<path d="M2.78808 26.9401C2.00823 26.969 -0.00805709 25.0979 2.42215e-05 24.3998C0.00406488 24.1809 0.0969999 23.9124 0.238423 23.7513C0.800074 23.1152 1.38597 22.4998 1.98803 21.905C2.4325 21.4671 2.86081 21.3804 3.34569 21.9587C3.86693 22.5782 4.50131 23.1028 5.07913 23.677C5.49127 24.0859 5.5034 24.5155 5.08317 24.9285C4.47707 25.5192 3.86693 26.1099 3.24063 26.6882C3.09517 26.8162 2.89717 26.8823 2.78808 26.9401Z" fill="#FFF500"/>
</g>
<defs>
<clipPath id="clip0_90_7049">
<rect width="196" height="28.4762" fill="white" transform="translate(0 10.17)"/>
</clipPath>
</defs>
</svg>
