<svg width="105" height="105" viewBox="0 0 105 105" fill="none" xmlns="http://www.w3.org/2000/svg">
<path fill-rule="evenodd" clip-rule="evenodd" d="M8.00003 71L8.00001 81.25H81.9999V71H89.9999V81.25V89.25H81.9999L8 89.25L0 89.25V81.25L1.87856e-05 71H8.00003Z" fill="white"/>
<path fill-rule="evenodd" clip-rule="evenodd" d="M89.9998 62V27.1052V15L81.9998 24.085L68.3843 39.5471L62.8193 45.8668L58.5523 38.6073L49.3712 22.9876L44.6762 15L40.1478 23.0832L31.4198 38.6623L27.2729 46.0645L21.6751 39.6884L8.00007 24.1122L8.32772e-05 15L6.39157e-05 27.1257L0 62H8.00001L8.00005 36.2379L21.261 51.3426L28.7237 59.8428L34.2522 49.9746L44.8428 31.0708L55.9225 49.9207L61.5213 59.446L68.8233 51.1538L81.9998 36.1902V62H89.9998Z" fill="#EBFF00"/>
</svg>
