<svg width="28" height="27" viewBox="0 0 28 27" fill="none" xmlns="http://www.w3.org/2000/svg">
<path d="M5.16027 21.7016C5.5543 22.3109 6.44565 22.3109 6.83968 21.7016L11.6569 14.2529C11.8665 13.9288 11.8709 13.5131 11.6682 13.1847L6.85097 5.37894C6.46026 4.74584 5.53969 4.74585 5.14898 5.37894L0.331818 13.1847C0.129138 13.5131 0.133533 13.9288 0.343109 14.2529L5.16027 21.7016Z" fill="#00B2B2"/>
<path d="M21.1603 21.7016C21.5543 22.3109 22.4457 22.3109 22.8397 21.7016L27.6569 14.2529C27.8665 13.9288 27.8709 13.5131 27.6682 13.1847L22.851 5.37894C22.4603 4.74584 21.5397 4.74585 21.149 5.37894L16.3318 13.1847C16.1291 13.5131 16.1335 13.9288 16.3431 14.2529L21.1603 21.7016Z" fill="#00B2B2"/>
<path d="M13.174 25.7901C13.5711 26.3717 14.4288 26.3717 14.8259 25.7901L22.624 14.3668C22.8517 14.0333 22.8564 13.5955 22.636 13.2572L14.8379 1.28626C14.4434 0.680698 13.5565 0.6807 13.1621 1.28627L5.36402 13.2572C5.1436 13.5955 5.14833 14.0333 5.37601 14.3668L13.174 25.7901Z" fill="#B8F526"/>
</svg>
