<svg width="196" height="47" viewBox="0 0 196 47" fill="none" xmlns="http://www.w3.org/2000/svg">
<g clip-path="url(#clip0_90_7143)">
<path d="M70.9076 17.1058C72.36 17.1058 73.8124 17.1004 75.2648 17.1072C76.5752 17.1134 77.588 17.9201 77.8632 19.0785C77.9227 19.3294 77.9714 19.5899 77.9721 19.8462C77.9795 22.6393 77.987 25.4325 77.9701 28.225C77.9633 29.3648 77.4941 30.2662 76.4284 30.7378C76.0714 30.8961 75.6549 30.9838 75.2648 30.9866C72.3377 31.0064 69.41 31.0058 66.4829 30.9941C65.1968 30.9886 64.1867 30.2127 63.8973 29.018C63.8418 28.7898 63.8161 28.5485 63.8155 28.3134C63.8101 25.475 63.8087 22.6359 63.8134 19.7975C63.8155 18.5247 64.493 17.5993 65.6945 17.234C65.9575 17.1538 66.2422 17.1134 66.5167 17.1113C67.9806 17.0997 69.4445 17.1058 70.9076 17.1058ZM70.8475 19.6378C69.913 19.6378 68.9779 19.6371 68.0435 19.6378C67.1983 19.6385 66.4937 20.3192 66.4897 21.1711C66.4809 23.0184 66.4795 24.8656 66.4903 26.7129C66.4951 27.5573 67.2084 28.2579 68.0414 28.2599C69.9333 28.264 71.8252 28.264 73.7171 28.2599C74.567 28.2579 75.2702 27.5443 75.2722 26.6827C75.2756 24.8581 75.2756 23.0342 75.2722 21.2095C75.2709 20.3315 74.5819 19.6392 73.7191 19.6385C72.7617 19.6371 71.8049 19.6378 70.8475 19.6378Z" fill="white"/>
<path d="M147.999 25.0316C147.999 26.787 147.999 28.543 147.999 30.2984C147.999 30.8125 147.823 30.9942 147.314 30.9976C146.852 31.001 146.391 31.0024 145.929 30.9969C145.486 30.9914 145.297 30.7974 145.297 30.3553C145.296 28.9646 145.297 27.5738 145.296 26.1831C145.296 25.7711 145.188 25.6608 144.785 25.6608C142.241 25.6601 139.697 25.6608 137.152 25.6608C136.691 25.6608 136.578 25.7725 136.577 26.2345C136.576 27.6136 136.577 28.9934 136.576 30.3725C136.576 30.8043 136.396 30.9921 135.967 30.9969C135.483 31.0031 134.999 31.0024 134.515 30.9969C134.095 30.9921 133.904 30.8015 133.903 30.3677C133.901 26.8336 133.892 23.2995 133.907 19.7654C133.913 18.4918 134.598 17.5946 135.783 17.2341C136.046 17.1539 136.331 17.1114 136.605 17.1107C139.51 17.1018 142.415 17.0922 145.32 17.1107C146.869 17.1203 147.992 18.2177 147.998 19.8332C148.004 21.566 147.999 23.2988 147.999 25.0316ZM140.944 23.6072C142.193 23.6072 143.442 23.6086 144.69 23.6065C145.134 23.6059 145.294 23.4537 145.295 23.0363C145.297 22.307 145.299 21.5783 145.295 20.849C145.29 20.0807 144.64 19.4329 143.881 19.4322C141.969 19.4316 140.055 19.4645 138.144 19.4165C137.321 19.3959 136.557 20.093 136.574 21.0197C136.586 21.6462 136.576 22.2727 136.576 22.8992C136.576 23.4523 136.725 23.6059 137.265 23.6065C138.492 23.6079 139.718 23.6072 140.944 23.6072Z" fill="white"/>
<path d="M97.9161 25.0104C97.9161 23.2544 97.8992 21.4983 97.9222 19.7422C97.9378 18.531 98.6552 17.5269 99.8243 17.2232C100.082 17.156 100.352 17.1122 100.617 17.1115C103.489 17.1039 106.361 17.0964 109.233 17.1115C110.484 17.1183 111.519 17.8655 111.817 19.1794C111.877 19.4413 111.875 19.7216 111.875 19.9937C111.878 23.3921 111.877 26.7905 111.877 30.1882C111.877 30.8545 111.729 30.9998 111.062 30.9998C110.679 30.9998 110.296 31.0005 109.913 30.9998C109.378 30.9984 109.204 30.8264 109.204 30.2972C109.204 28.94 109.204 27.5829 109.204 26.2264C109.204 25.7487 109.116 25.6623 108.633 25.6623C106.166 25.6623 103.7 25.6623 101.233 25.6623C100.667 25.6623 100.593 25.7295 100.591 26.3059C100.586 27.6062 100.59 28.9058 100.59 30.206C100.59 30.8661 100.456 30.9998 99.7999 31.0004C99.3834 31.0004 98.9662 31.0046 98.5497 30.9991C98.1122 30.9936 97.9175 30.7948 97.9168 30.3486C97.9148 28.5678 97.9161 26.7891 97.9161 25.0104ZM104.891 23.6074C106.14 23.6074 107.389 23.6094 108.638 23.606C109.059 23.6046 109.203 23.4552 109.203 23.0343C109.205 22.3167 109.205 21.599 109.203 20.8814C109.2 20.0849 108.561 19.4331 107.783 19.4324C105.86 19.4317 103.935 19.4317 102.012 19.4324C101.279 19.4324 100.648 20.039 100.623 20.7916C100.598 21.5195 100.593 22.2474 100.592 22.9761C100.592 23.4771 100.734 23.606 101.246 23.6067C102.461 23.608 103.676 23.6074 104.891 23.6074Z" fill="white"/>
<path d="M51.4152 30.9984C50.0075 30.9984 48.5997 31.0004 47.192 30.9949C47.0507 30.9942 46.8992 30.9723 46.7707 30.9168C46.4455 30.7756 46.3678 30.4061 46.6301 30.1697C47.3177 29.5494 48.0196 28.9448 48.7275 28.3485C48.8154 28.2744 48.9757 28.2648 49.1028 28.2648C51.2989 28.2601 53.4951 28.2635 55.6912 28.2601C56.3694 28.2594 56.9827 27.735 57.0888 27.0811C57.1991 26.4025 56.838 25.7534 56.1882 25.5176C55.9631 25.4361 55.7122 25.3942 55.4728 25.3929C53.5918 25.3833 51.7114 25.3881 49.8303 25.3874C47.9222 25.386 46.1656 23.7081 46.0094 21.795C45.8518 19.8703 46.672 18.3343 48.2461 17.5447C48.8242 17.2547 49.4456 17.1163 50.0805 17.1128C52.8622 17.0984 55.6439 17.1067 58.4256 17.106C58.7109 17.106 58.9895 17.1567 59.0436 17.4871C59.0679 17.6365 59.0044 17.8579 58.8989 17.9628C58.3052 18.5522 57.694 19.1253 57.0699 19.6818C56.9516 19.7867 56.7474 19.8374 56.5831 19.8381C54.4093 19.8484 52.2361 19.8436 50.0623 19.8457C49.3746 19.8463 48.7728 20.344 48.6471 21.0054C48.5186 21.6819 48.8952 22.3585 49.5585 22.5942C49.7742 22.671 50.0129 22.7128 50.2414 22.7142C52.0887 22.7238 53.9359 22.7457 55.7825 22.7121C57.5912 22.6792 59.2843 24.1488 59.6738 25.9248C60.1106 27.9146 59.0362 29.8078 57.4736 30.5713C56.7109 30.9442 55.8948 31.0066 55.0644 31.0025C53.8474 30.9943 52.6316 30.9984 51.4152 30.9984Z" fill="white"/>
<path d="M129.854 24.0582C129.854 26.1221 129.855 28.1859 129.854 30.2498C129.854 30.8427 129.701 30.9976 129.121 30.9983C128.581 30.999 128.039 31.0099 127.5 30.99C127.365 30.9852 127.196 30.9119 127.109 30.8111C126.082 29.6212 125.066 28.421 124.049 27.2215C122.483 25.375 120.923 23.5236 119.347 21.686C119.251 21.5742 119.03 21.4968 118.886 21.5201C118.642 21.5592 118.594 21.7826 118.595 22.0232C118.6 24.7601 118.598 27.4964 118.598 30.2333C118.598 30.8475 118.452 30.9983 117.852 30.9983C117.413 30.999 116.974 31.0017 116.535 30.9976C116.103 30.9928 115.896 30.7885 115.896 30.345C115.894 26.1488 115.894 21.9526 115.896 17.7564C115.896 17.3184 116.101 17.1127 116.538 17.1073C117.09 17.1011 117.643 17.0846 118.193 17.1175C118.382 17.1292 118.618 17.2265 118.74 17.3677C119.547 18.2992 120.331 19.2513 121.118 20.1999C122.238 21.5489 123.353 22.9005 124.472 24.2502C125.1 25.0076 125.732 25.7615 126.358 26.521C126.505 26.6992 126.632 26.8932 126.907 26.7938C127.192 26.691 127.184 26.4518 127.184 26.205C127.181 23.4228 127.182 20.6407 127.182 17.8578C127.182 17.2759 127.347 17.1073 127.92 17.1059C128.337 17.1045 128.754 17.1052 129.171 17.1059C129.689 17.1073 129.854 17.2704 129.854 17.7982C129.856 19.8846 129.854 21.9711 129.854 24.0582Z" fill="white"/>
<path d="M82.1002 24.0177C82.1002 21.9874 82.1002 19.9572 82.1002 17.9269C82.1002 17.2785 82.2739 17.1058 82.9217 17.1058C83.3044 17.1058 83.6878 17.1051 84.0705 17.1058C84.5702 17.1071 84.7358 17.273 84.7358 17.7652C84.7358 21.1526 84.7358 24.54 84.7358 27.9274C84.7358 28.5272 84.8406 28.6334 85.4444 28.6334C88.2038 28.6341 90.9639 28.6334 93.7233 28.6341C93.8355 28.6341 93.9633 28.6039 94.0573 28.6471C94.2182 28.7205 94.4427 28.8137 94.4853 28.9487C94.534 29.1022 94.465 29.3552 94.3555 29.4875C93.987 29.9316 93.5901 30.3539 93.1763 30.7555C93.0451 30.883 92.8287 30.9879 92.6502 30.9886C89.3384 31.0023 86.0266 31.0002 82.7155 30.9968C82.3017 30.9961 82.1022 30.7576 82.1002 30.2798C82.0954 29.2421 82.0988 28.2043 82.0988 27.1659C82.1002 26.1158 82.1002 25.0671 82.1002 24.0177Z" fill="white"/>
<path d="M20.5977 27.4827C16.0134 27.4827 11.429 27.4779 6.84538 27.4888C6.31325 27.4902 5.90418 27.3168 5.53026 26.9329C3.8054 25.1631 2.06565 23.4091 0.325231 21.6558C0.0933104 21.422 -0.0838419 21.1815 0.0615312 20.847C0.199467 20.5296 0.491565 20.4871 0.800567 20.4871C10.0476 20.483 19.2947 20.4775 28.5425 20.47C29.0036 20.4693 29.3843 20.6269 29.7149 20.9642C31.4608 22.7449 33.214 24.5175 34.9693 26.2886C35.2046 26.5265 35.4034 26.7684 35.2499 27.1221C35.1052 27.4566 34.8064 27.495 34.4859 27.495C29.8569 27.4923 25.2273 27.4929 20.5984 27.4929C20.5977 27.4888 20.5977 27.4861 20.5977 27.4827Z" fill="url(#paint0_linear_90_7143)"/>
<path d="M20.5587 10.0569C25.2221 10.0569 29.8856 10.0589 34.549 10.0527C34.8661 10.0521 35.1258 10.1035 35.2603 10.4325C35.3922 10.7567 35.2191 10.9699 35.0122 11.1796C33.2427 12.9686 31.4718 14.7569 29.7098 16.5534C29.3805 16.8893 29.0174 17.0442 28.5421 17.0442C19.2828 17.0353 10.0235 17.038 0.763616 17.0373C0.216608 17.0373 -0.0849571 16.7289 0.0428361 16.284C0.0779961 16.162 0.167925 16.0455 0.259205 15.953C2.08076 14.1037 3.90706 12.2592 5.72929 10.4105C5.97338 10.1631 6.25331 10.0527 6.60221 10.0527C11.2541 10.0582 15.9068 10.0569 20.5587 10.0569Z" fill="url(#paint1_linear_90_7143)"/>
<path d="M14.708 38.0472C10.056 38.0472 5.40475 38.0458 0.752807 38.0506C0.44989 38.0513 0.192276 38.0081 0.0550164 37.699C-0.0923852 37.3672 0.0793579 37.141 0.299108 36.9189C2.08551 35.1156 3.86988 33.3094 5.65155 31.5006C5.93688 31.2113 6.26076 31.0633 6.67051 31.064C15.9629 31.0681 25.2546 31.0674 34.547 31.064C34.8655 31.064 35.1312 31.1263 35.2563 31.4567C35.3699 31.7569 35.2313 31.9735 35.025 32.1812C33.4273 33.7892 31.8363 35.4034 30.2406 37.0135C29.0519 38.2124 29.4211 38.0444 27.7841 38.0458C23.4256 38.0506 19.0664 38.0472 14.708 38.0472Z" fill="url(#paint2_linear_90_7143)"/>
</g>
<defs>
<linearGradient id="paint0_linear_90_7143" x1="-3.67146e-07" y1="38.0527" x2="38.5" y2="7.55273" gradientUnits="userSpaceOnUse">
<stop stop-color="#C93BFF"/>
<stop offset="0.512785" stop-color="#789EF3"/>
<stop offset="1" stop-color="#64FFAF"/>
</linearGradient>
<linearGradient id="paint1_linear_90_7143" x1="-3.67146e-07" y1="38.0527" x2="38.5" y2="7.55273" gradientUnits="userSpaceOnUse">
<stop stop-color="#C93BFF"/>
<stop offset="0.512785" stop-color="#789EF3"/>
<stop offset="1" stop-color="#64FFAF"/>
</linearGradient>
<linearGradient id="paint2_linear_90_7143" x1="-3.67146e-07" y1="38.0527" x2="38.5" y2="7.55273" gradientUnits="userSpaceOnUse">
<stop stop-color="#C93BFF"/>
<stop offset="0.512785" stop-color="#789EF3"/>
<stop offset="1" stop-color="#64FFAF"/>
</linearGradient>
<clipPath id="clip0_90_7143">
<rect width="148" height="28" fill="white" transform="translate(0 10.0527)"/>
</clipPath>
</defs>
</svg>
