<svg width="176" height="47" viewBox="0 0 176 47" fill="none" xmlns="http://www.w3.org/2000/svg">
<path d="M0 10.6341C0.368786 9.57101 1.15165 8.95415 2.10596 8.42588C4.95435 6.85091 7.77848 5.22674 10.5913 3.58943C11.8287 2.86921 12.9706 2.87085 14.2177 3.6206C17.1696 5.39408 20.1635 7.09536 23.1446 8.81798C24.0957 9.36757 24.568 10.1797 24.5647 11.2854C24.5615 12.3469 24.5793 13.41 24.5518 14.4714C24.5453 14.7077 24.4547 15.0522 24.2881 15.1539C22.9844 15.9496 21.6516 16.6994 20.1975 17.5393C20.1975 16.2925 20.1765 15.1654 20.2024 14.04C20.2315 12.798 19.6961 11.899 18.6528 11.2953C17.0256 10.3503 15.3968 9.40695 13.7486 8.49642C12.7911 7.96815 11.7979 7.94847 10.8274 8.4997C9.14202 9.45617 7.45822 10.4126 5.77765 11.3773C4.8573 11.9056 4.39147 12.7341 4.37853 13.7873C4.35427 15.7199 4.36074 17.6542 4.37529 19.5868C4.38338 20.6876 4.922 21.5112 5.83912 22.0559C7.52615 23.0583 9.21966 24.0492 10.9374 24.9974C11.9192 25.5388 12.9302 25.5208 13.9282 24.94C19.5117 21.6933 25.1098 18.4745 30.6788 15.2064C31.976 14.4452 33.1439 14.4157 34.4475 15.1949C37.4286 16.9733 40.4468 18.6845 43.4666 20.3956C44.4824 20.9714 45 21.7999 45.0016 22.9647C45.0049 26.5314 45.0049 30.098 45.0032 33.6646C45.0016 34.8557 44.4808 35.7252 43.4424 36.3142C40.3303 38.0811 37.2377 39.8825 34.1192 41.6412C33.173 42.1744 32.1717 42.2023 31.1964 41.6461C28.065 39.8595 24.9351 38.0696 21.7988 36.2945C20.8494 35.758 20.3269 34.9771 20.2913 33.8746C20.2816 33.5482 20.2752 33.2217 20.28 32.8952C20.2929 31.9716 20.0002 30.856 20.4126 30.1784C20.8607 29.4401 21.9606 29.1005 22.7839 28.6034C23.35 28.2606 23.9323 27.9456 24.644 27.5403C24.644 28.6838 24.6747 29.6829 24.6375 30.6788C24.5825 32.1569 25.1373 33.2217 26.4669 33.9239C27.9889 34.7261 29.4657 35.6169 30.957 36.4766C32.0553 37.1099 33.1261 37.1148 34.226 36.4487C35.8143 35.4857 37.4253 34.562 39.0315 33.6286C39.9179 33.1151 40.4355 32.3669 40.4468 31.3235C40.4678 29.3089 40.4905 27.2943 40.4581 25.2813C40.4403 24.1903 39.8661 23.388 38.9312 22.8548C37.3428 21.9476 35.748 21.0502 34.1629 20.1364C33.0306 19.4834 31.9615 19.549 30.8244 20.2086C25.2392 23.4553 19.6298 26.6561 14.0381 29.8897C12.9334 30.5278 11.882 30.5623 10.766 29.9192C7.68952 28.1441 4.60174 26.3919 1.51073 24.6447C0.737572 24.2067 0.291147 23.534 0 22.7236C0 18.6927 0 14.6634 0 10.6341Z" fill="#7A4ADD"/>
<path d="M132.496 16.2841C132.596 15.198 133.254 15.1357 134.055 15.1767C135.124 15.2325 136.198 15.1898 137.377 15.1898C137.377 15.5393 137.377 15.828 137.377 16.1151C137.377 20.4971 137.233 24.8857 137.416 29.2595C137.615 34.0434 134.296 36.6241 131.173 37.4083C127.482 38.3352 124.083 37.7167 121.11 35.2C120.987 35.0967 120.829 35.0376 120.633 34.9261C121.665 33.7153 122.571 32.6522 123.511 31.5497C125.08 32.9984 126.825 33.7941 128.962 33.5414C131.349 33.2592 132.51 31.9878 132.51 29.563C132.51 29.1332 132.51 28.7017 132.51 28.0553C130.901 30.0256 128.907 30.6523 126.637 30.6015C124.337 30.549 122.495 29.5499 121.023 27.8207C118.421 24.7626 118.534 20.187 121.154 17.1323C124.104 13.6887 129.293 13.6936 132.496 16.2841ZM132.507 22.5954C132.48 21.5832 132.672 20.5578 131.86 19.6817C130.136 17.818 126.594 17.8673 124.996 19.8327C123.865 21.2223 123.786 23.2894 124.805 24.8496C125.882 26.5 127.837 27.1202 129.942 26.482C131.838 25.9061 132.507 24.8906 132.507 22.5954Z" fill="white"/>
<path d="M59.3897 28.8921C59.3897 30.4097 59.3897 31.796 59.3897 33.1806C59.3897 34.562 59.3897 35.9434 59.3897 37.3608C57.7609 37.3608 56.2388 37.3608 54.6602 37.3608C54.6602 29.8322 54.6602 22.3363 54.6602 14.7486C55.9153 14.7486 57.1462 14.7322 58.3755 14.7683C58.5292 14.7732 58.7411 15.0275 58.809 15.2113C58.9578 15.6132 59.0322 16.0414 59.1616 16.5549C61.4779 14.7552 63.993 13.9464 66.835 14.5616C68.4799 14.9176 69.7949 15.8511 70.7994 17.1865C73.1642 20.3315 72.949 25.647 70.3433 28.29C68.0788 30.5885 63.0533 31.7992 59.3897 28.8921ZM59.4689 22.5808C59.4042 22.5972 59.3379 22.6136 59.2732 22.63C59.4948 23.5258 59.5239 24.5396 59.9784 25.291C60.9392 26.8808 63.3396 27.2827 65.1964 26.3591C67.0485 25.437 67.8782 23.47 67.2798 21.4143C66.67 19.3177 64.8649 18.1775 62.6829 18.5121C60.3553 18.8714 59.4689 19.9919 59.4689 22.5808Z" fill="white"/>
<path d="M149.07 14.3746C153.261 14.3992 156.38 16.7567 157.274 20.5793C158.379 25.3025 155.403 29.7026 150.644 30.3998C148.109 30.7706 145.703 30.4572 143.54 28.9955C140.999 27.2794 140.124 24.7332 140.324 21.7884C140.533 18.7369 142.099 16.4958 144.855 15.2752C146.154 14.701 147.618 14.5075 149.007 14.1416C149.03 14.2187 149.051 14.2958 149.07 14.3746ZM148.758 26.6544C150.904 26.6839 152.312 25.2566 152.522 22.8367C152.718 20.5989 151.396 18.7172 149.445 18.4563C147.299 18.1676 145.597 19.4587 145.172 21.6965C144.697 24.2082 146.442 26.6232 148.758 26.6544Z" fill="white"/>
<path d="M83.0924 30.6197C80.0628 30.5606 77.6641 29.8339 75.8929 27.7027C73.0074 24.2296 73.182 16.509 80.4154 14.7355C83.1166 14.0727 85.7386 14.3418 88.0532 15.9906C90.8822 18.0052 91.8446 20.891 91.1895 24.228C90.5215 27.6355 88.2926 29.637 84.9638 30.3785C84.2343 30.5409 83.4757 30.5721 83.0924 30.6197ZM86.4664 22.5136C86.4648 19.6212 84.32 17.7624 81.7693 18.4482C79.1667 19.1471 78.1267 22.9549 79.9658 25.2287C80.3879 25.7504 80.9896 26.2459 81.6091 26.4559C84.2311 27.3467 86.4664 25.4912 86.4664 22.5136Z" fill="white"/>
<path d="M160.496 15.221C161.934 15.221 163.327 15.221 164.782 15.221C164.896 15.9166 165.006 16.6007 165.142 17.4341C165.407 17.1175 165.585 16.9059 165.761 16.6909C167.586 14.4597 171.204 13.7215 173.703 15.0996C175.102 15.8706 175.956 17.065 175.974 18.699C176.016 22.4281 175.992 26.1571 175.992 29.8862C175.992 29.9649 175.962 30.042 175.937 30.1733C174.368 30.1733 172.797 30.1733 171.129 30.1733C171.129 29.8648 171.129 29.5745 171.129 29.2841C171.129 26.5344 171.131 23.7848 171.129 21.0352C171.129 20.0705 170.974 19.1338 169.992 18.7039C168.922 18.2347 167.862 18.3971 166.971 19.1715C165.89 20.1099 165.397 21.3929 165.323 22.7792C165.211 24.8693 165.235 26.9676 165.205 29.061C165.2 29.412 165.205 29.7615 165.205 30.1683C163.618 30.1683 162.096 30.1683 160.498 30.1683C160.496 25.2236 160.496 20.2641 160.496 15.221Z" fill="white"/>
<path d="M104.522 37.4445C105.263 35.8121 105.957 34.2913 106.647 32.7672C106.939 32.1257 107.15 31.4318 107.532 30.851C108.187 29.8552 107.992 29.0119 107.482 28.0062C105.486 24.0672 103.577 20.0822 101.638 16.1136C101.51 15.8511 101.4 15.5772 101.23 15.1933C103.011 15.1933 104.695 15.1703 106.376 15.2228C106.579 15.2294 106.838 15.6165 106.956 15.879C108.178 18.5663 109.375 21.2651 110.638 24.0951C111.345 22.5168 112.005 21.0469 112.663 19.5736C113.226 18.3137 113.8 17.057 114.342 15.7872C114.521 15.3655 114.738 15.1588 115.233 15.1752C116.414 15.2162 117.598 15.1883 118.918 15.1883C118.447 16.2826 118.018 17.2899 117.58 18.2907C114.889 24.4199 112.189 30.5459 109.514 36.6833C109.263 37.2591 108.972 37.4954 108.325 37.4609C107.1 37.3986 105.868 37.4445 104.522 37.4445Z" fill="white"/>
<path d="M99.1335 30.1833C97.5468 30.1833 95.9989 30.1833 94.4121 30.1833C94.4121 21.1404 94.4121 12.1402 94.4121 3.0874C95.973 3.0874 97.5225 3.0874 99.1335 3.0874C99.1335 12.1041 99.1335 21.0961 99.1335 30.1833Z" fill="white"/>
</svg>
